<svg xmlns="http://www.w3.org/2000/svg" viewBox="0 0 1047.76 1098.26"><defs><style>.cls-1{fill:#fff;}</style></defs><title>in 1</title><g id="Layer_2" data-name="Layer 2"><g id="Layer_1-2" data-name="Layer 1"><text/><path class="cls-1" d="M619.89,377.94,618,382.62l-17.79-7.4,1.94-4.68Z"/><path class="cls-1" d="M667.45,425l22-21.85a18.92,18.92,0,0,0,2.61-3.07,23.25,23.25,0,0,0,1.39-2.42,18,18,0,0,0,.78-1.82,3.38,3.38,0,0,1,.78-1.26,1.67,1.67,0,0,1,.89-.44,1.61,1.61,0,0,1,.82,0,2.46,2.46,0,0,1,1.1.73l7.3,7.37a2.31,2.31,0,0,1,.6.94,2.19,2.19,0,0,1,.17.88,1.45,1.45,0,0,1-.51,1,3.28,3.28,0,0,1-1.27.77c-.51.18-1.12.43-1.82.76a21.76,21.76,0,0,0-2.43,1.37,19,19,0,0,0-3.11,2.57l-22,21.85a18.92,18.92,0,0,0-2.61,3.07,23.25,23.25,0,0,0-1.39,2.42,18,18,0,0,0-.78,1.82,3.42,3.42,0,0,1-.78,1.27,1.6,1.6,0,0,1-.77.43,2,2,0,0,1-.94,0,2.51,2.51,0,0,1-1.1-.72l-7.3-7.37a2.24,2.24,0,0,1-.6-.95,2,2,0,0,1-.14-.91,1.45,1.45,0,0,1,.48-1,3.4,3.4,0,0,1,1.27-.77c.51-.18,1.12-.43,1.82-.76a22.72,22.72,0,0,0,2.44-1.37A19.4,19.4,0,0,0,667.45,425Z"/><path class="cls-1" d="M697.08,423.85l6.56,1.64a5.56,5.56,0,0,1,1.45.58,3.85,3.85,0,0,1,1.21,1,2.11,2.11,0,0,1,.39,1.71,4,4,0,0,1-1.73,2.11l-1.32,1a20.35,20.35,0,0,1,6,1.13,10.16,10.16,0,0,1,4.73,3.63,10.44,10.44,0,0,1,2.09,6.8,10.7,10.7,0,0,1-3.19,7c-.44.46-1.15,1.11-2.13,2s-2.08,1.8-3.29,2.83L704,458.53l-3.79,3.15c-1.18,1-2.23,1.87-3.15,2.68a26,26,0,0,0-1.92,1.81,3.46,3.46,0,0,0-.8,1.33c-.15.46-.29.9-.42,1.33s-.3.83-.46,1.21a2.61,2.61,0,0,1-.88,1,1.53,1.53,0,0,1-1.46.25,2.67,2.67,0,0,1-1.33-1L684,462.45a2.31,2.31,0,0,1-.32-2,4.65,4.65,0,0,1,2.09-2.42,78.5,78.5,0,0,1,7.09-4.2,100.77,100.77,0,0,0,9.57-5.94c1.5-1,2.85-2,4.05-2.86a16,16,0,0,0,2.85-2.5,5.08,5.08,0,0,0,1.26-2.44,3.34,3.34,0,0,0-.77-2.54,6.91,6.91,0,0,0-3.82-2.26,19.44,19.44,0,0,0-6-.64l-14.16,10.51a19.13,19.13,0,0,0-3,2.67,23.17,23.17,0,0,0-1.72,2.2c-.43.64-.77,1.21-1,1.69a3.37,3.37,0,0,1-.95,1.14,1.61,1.61,0,0,1-.83.32,2,2,0,0,1-.93-.13,2.52,2.52,0,0,1-1-.87l-6.19-8.33c-.86-1.17-.82-2.11.14-2.83a3.41,3.41,0,0,1,1.37-.58,19.35,19.35,0,0,0,1.91-.49,23.29,23.29,0,0,0,2.61-1,19.37,19.37,0,0,0,3.43-2.11L692,427.67a4.66,4.66,0,0,0,1.47-1.63,15.5,15.5,0,0,1,.77-1.44,1.88,1.88,0,0,1,.93-.84A3.73,3.73,0,0,1,697.08,423.85Z"/><path class="cls-1" d="M724.62,453.2l2.5,4.85,3.33-1.72a6.82,6.82,0,0,1,1.95-3.28c.73-.56,2-.44,3.73.35l6.21,2.68a5.27,5.27,0,0,1,1.34.8,3.71,3.71,0,0,1,1,1.22,2.17,2.17,0,0,1,.11,1.75,4,4,0,0,1-2.06,1.8l-10.88,5.62,2.51,4.85a1.26,1.26,0,0,1,.12,1.08,1.39,1.39,0,0,1-.66.69,1.34,1.34,0,0,1-.94.13,1.22,1.22,0,0,1-.81-.72l-2.5-4.85-17.54,9.05c-.74.39-1.8.94-3.17,1.68s-2.71,1.53-4,2.38a25.63,25.63,0,0,0-3.25,2.46c-.87.81-1.17,1.46-.91,2,.48.92,1.34,1.21,2.59.85a39.84,39.84,0,0,0,4.41-1.57,3.24,3.24,0,0,1,2.6-.07,3.36,3.36,0,0,1,1.9,4.11,3.19,3.19,0,0,1-2.05,2.07,7.7,7.7,0,0,1-2.78.56,10.34,10.34,0,0,1-3.43-.52,10.78,10.78,0,0,1-3.53-2,12.41,12.41,0,0,1-3.07-4,12,12,0,0,1-1.47-4.73,8.64,8.64,0,0,1,.58-3.81,8.79,8.79,0,0,1,2-3,22,22,0,0,1,2.9-2.38,25.39,25.39,0,0,1,3.14-1.84c1.05-.51,2-1,2.75-1.37l17.54-9.06-2.51-4.85a1.26,1.26,0,0,1-.12-1.08,1.47,1.47,0,0,1,.66-.69,1.39,1.39,0,0,1,.94-.13A1.22,1.22,0,0,1,724.62,453.2Z"/><path class="cls-1" d="M722,489.41q8.76-2.81,15.12,0t9,11.08a21.3,21.3,0,0,1,1,5.22,14.13,14.13,0,0,1-.57,5.1,10.75,10.75,0,0,1-7.46,7.26,8.76,8.76,0,0,1-4.76.38,7.77,7.77,0,0,1-3.48-1.92,12.44,12.44,0,0,1-2.51-3.49,32.43,32.43,0,0,1-1.8-4.46l-2.5-7.8a37.31,37.31,0,0,0-7.17,3,21.1,21.1,0,0,0-4.44,3.27,8.62,8.62,0,0,0-2.09,3.08,4,4,0,0,0-.2,2.44,4.47,4.47,0,0,0,1.35,2,8.77,8.77,0,0,0,2.25,1.41,13.36,13.36,0,0,0,2.81.86,19.46,19.46,0,0,0,2.94.33,3.29,3.29,0,0,1,3.27,2.3,3.3,3.3,0,0,1-.29,2.68,2.63,2.63,0,0,1-2.52,1.34,9.81,9.81,0,0,1-3-.58,13.49,13.49,0,0,1-3.49-1.83,16.87,16.87,0,0,1-3.31-3.16,14.11,14.11,0,0,1-2.41-4.59,17.87,17.87,0,0,1-.83-8.09,16.85,16.85,0,0,1,2.59-6.89,20.15,20.15,0,0,1,5.26-5.41A26.34,26.34,0,0,1,722,489.41Zm4.49,10.69,1.52,4.75a3.76,3.76,0,0,0,1.29,2,4.55,4.55,0,0,0,1.94.82,7.32,7.32,0,0,0,2.29,0,14.64,14.64,0,0,0,2.33-.54c1-.34,2.06-.72,3.07-1.15a16,16,0,0,0,2.65-1.42,7.07,7.07,0,0,0,1.75-1.59,1.74,1.74,0,0,0,.34-1.62,2.94,2.94,0,0,0-1.55-1.51,10.13,10.13,0,0,0-3.5-1,26.78,26.78,0,0,0-5.26,0A36.14,36.14,0,0,0,726.49,500.1Z"/><path class="cls-1" d="M746.29,524.39l4.94,4.62a5.56,5.56,0,0,1,1,1.21,3.6,3.6,0,0,1,.55,1.5,2.14,2.14,0,0,1-.48,1.67,4,4,0,0,1-2.55,1l-.38.05a18,18,0,0,1,3.82,3.94,11.21,11.21,0,0,1,1.93,5.13,14.32,14.32,0,0,1,0,3.86A14.13,14.13,0,0,1,754,551.3a9.35,9.35,0,0,1-2.23,3.13,6,6,0,0,1-3.33,1.54,4.21,4.21,0,0,1-3-.86,4.51,4.51,0,0,1-1.81-3.31,4,4,0,0,1,.85-3.37,13.28,13.28,0,0,1,2.57-2.27q1.46-1,2.64-1.8a2.12,2.12,0,0,0,1-2.14,7.39,7.39,0,0,0-1.76-3.55A20.86,20.86,0,0,0,745,535l-18.95,2.49a19.25,19.25,0,0,0-3.94.88,23.53,23.53,0,0,0-2.57,1.08c-.69.36-1.26.68-1.72,1a3.43,3.43,0,0,1-1.38.53,1.63,1.63,0,0,1-.88-.12,2,2,0,0,1-.75-.57,2.45,2.45,0,0,1-.44-1.24L713,528.77c-.19-1.45.3-2.25,1.49-2.4a3.35,3.35,0,0,1,1.48.16c.52.16,1.16.33,1.91.49a24.58,24.58,0,0,0,2.77.39,19.36,19.36,0,0,0,4-.18l15.24-2a4.58,4.58,0,0,0,2.07-.7,15.59,15.59,0,0,1,1.38-.89,1.85,1.85,0,0,1,1.22-.28A3.71,3.71,0,0,1,746.29,524.39Z"/><path class="cls-1" d="M742.15,577.75a26.06,26.06,0,0,0,1.14,2.4c.42.8.83,1.52,1.22,2.17a20.5,20.5,0,0,0,6.34-1.1c1.72-.65,2.61-1.65,2.68-3a3.29,3.29,0,0,0-1.44-2.53c-1-.85-2.09-1.75-3.27-2.69a25.23,25.23,0,0,1-3.24-3.13,5.25,5.25,0,0,1-1.38-3.81,3.7,3.7,0,0,1,1.52-3.17,4.94,4.94,0,0,1,2.89-.84,5.74,5.74,0,0,1,3.45,1.34,9.09,9.09,0,0,1,2.45,3.4,18.92,18.92,0,0,1,1.36,5.1,35.46,35.46,0,0,1,.23,6.46q-.32,6.61-2.84,9.43a10.77,10.77,0,0,1-6.92,3.37c-.62.07-1.59.13-2.89.17s-2.75.08-4.34.11l-5,.07-4.92,0c-1.54,0-2.92,0-4.15.07s-2.1.11-2.62.19a3.42,3.42,0,0,0-1.47.51l-1.17.77a12.93,12.93,0,0,1-1.13.64,2.58,2.58,0,0,1-1.34.25,1.54,1.54,0,0,1-1.29-.72,2.72,2.72,0,0,1-.39-1.62l.48-9.82a2,2,0,0,1,.57-1.3,3.05,3.05,0,0,1,1.64-.86,14.34,14.34,0,0,1-2-4.11,13.39,13.39,0,0,1-.6-4.52,10.29,10.29,0,0,1,1.19-4.47,10.82,10.82,0,0,1,2.74-3.31,12.26,12.26,0,0,1,3.69-2,11.42,11.42,0,0,1,4.13-.58,11.63,11.63,0,0,1,6.12,1.82,13.5,13.5,0,0,1,3.9,4.1,27.17,27.17,0,0,1,2.55,5.43Q741.11,575,742.15,577.75Zm-20.32,1.91q3.34.47,7.63,1.26c2.87.53,6.24,1,10.13,1.31l1.33.07c-.29-.43-.63-1-1-1.61s-.82-1.34-1.3-2.1a19.48,19.48,0,0,0-1.58-2.14,11.79,11.79,0,0,0-5.25-3.57,14.66,14.66,0,0,0-6.1-.69,9.28,9.28,0,0,0-2.21.48,5.05,5.05,0,0,0-1.85,1.12,2.9,2.9,0,0,0-.84,2.07,5.42,5.42,0,0,0,.25,2A11.06,11.06,0,0,0,721.83,579.66Z"/><path class="cls-1" d="M750.11,620.81A18.41,18.41,0,0,1,748.6,625a15.05,15.05,0,0,1-2.46,3.6,9.33,9.33,0,0,1-3.2,2.32,5.85,5.85,0,0,1-3.67.32,4.17,4.17,0,0,1-2.5-1.84,4.52,4.52,0,0,1-.56-3.73,3.52,3.52,0,0,1,1.23-2.08,6.17,6.17,0,0,1,2.12-1,12.61,12.61,0,0,1,2.53-.42c.9-.07,1.73-.15,2.5-.24a8,8,0,0,0,2-.47,1.58,1.58,0,0,0,1-1.17,3.53,3.53,0,0,0-.56-2.32,10.38,10.38,0,0,0-2.68-3,25,25,0,0,0-5-3,36.13,36.13,0,0,0-7.55-2.47,35.54,35.54,0,0,0-7.54-1,25.62,25.62,0,0,0-5.75.49,11.27,11.27,0,0,0-3.82,1.5,3.5,3.5,0,0,0-1.64,1.94,3.85,3.85,0,0,0,.14,2.23,6.8,6.8,0,0,0,1.21,2.08,13.29,13.29,0,0,0,1.93,1.88,13.59,13.59,0,0,0,2.26,1.47,3.3,3.3,0,0,1,1.66,1.69,3.44,3.44,0,0,1,.15,2,3.5,3.5,0,0,1-1.53,2.13,2.57,2.57,0,0,1-2.74.1A8.68,8.68,0,0,1,714,624.3a12.7,12.7,0,0,1-2.22-3.11,14.51,14.51,0,0,1-1.4-4.23,13,13,0,0,1,.2-5.12,19.08,19.08,0,0,1,3.28-7.41,16.48,16.48,0,0,1,5.46-4.68,18.77,18.77,0,0,1,7-2,25.5,25.5,0,0,1,8,.58,27,27,0,0,1,7.87,3,17.82,17.82,0,0,1,5.46,4.87,16.3,16.3,0,0,1,2.75,6.55A20,20,0,0,1,750.11,620.81Z"/><path class="cls-1" d="M744,640.45l-2.05,5.06,3.47,1.41a6.83,6.83,0,0,1,3.76-.66c.9.2,1.62,1.22,2.16,3.07l2,6.45a5.57,5.57,0,0,1,.26,1.54,3.89,3.89,0,0,1-.26,1.58,2.15,2.15,0,0,1-1.25,1.22,4,4,0,0,1-2.71-.39L738,655.12l-2,5.06a1.24,1.24,0,0,1-.74.79,1.35,1.35,0,0,1-1-.05,1.37,1.37,0,0,1-.72-.62,1.26,1.26,0,0,1,0-1.09l2.06-5.06-18.28-7.43L714,645.41c-1.46-.57-2.93-1.06-4.4-1.5a25.14,25.14,0,0,0-4-.86c-1.18-.14-1.87.05-2.09.58-.39,1,0,1.81,1,2.53a40.69,40.69,0,0,0,4.06,2.33,3.19,3.19,0,0,1,1.74,1.93,3.34,3.34,0,0,1-1.88,4.11,3.15,3.15,0,0,1-2.9-.21,7.5,7.5,0,0,1-2.24-1.75,10,10,0,0,1-1.84-2.94,11,11,0,0,1-.78-4,12.38,12.38,0,0,1,1-4.93,11.84,11.84,0,0,1,2.63-4.19,8.6,8.6,0,0,1,6.89-2.47,23.41,23.41,0,0,1,3.69.66,24.69,24.69,0,0,1,3.43,1.19c1.08.46,2,.86,2.84,1.19l18.28,7.43,2.06-5.06a1.22,1.22,0,0,1,.74-.79,1.35,1.35,0,0,1,.95,0,1.37,1.37,0,0,1,.71.63A1.17,1.17,0,0,1,744,640.45Z"/><path class="cls-1" d="M724.81,669.69l1.22,6.66a9.5,9.5,0,0,1,.18,1.75,3.28,3.28,0,0,1-.41,1.69,1.73,1.73,0,0,1-1.38.89,5.15,5.15,0,0,1-2.8-.89L701,668.34a19.06,19.06,0,0,0-3.69-1.64,20.12,20.12,0,0,0-2.71-.66c-.76-.13-1.42-.21-2-.25a3.22,3.22,0,0,1-1.43-.39,1.66,1.66,0,0,1-.64-.62,2.2,2.2,0,0,1-.26-.9,2.42,2.42,0,0,1,.39-1.26l5-9.07a2.44,2.44,0,0,1,.74-.84,1.93,1.93,0,0,1,.83-.38,1.46,1.46,0,0,1,1.06.18,3.46,3.46,0,0,1,1.09,1,19.48,19.48,0,0,0,1.24,1.54,23.63,23.63,0,0,0,2,2,18.81,18.81,0,0,0,3.34,2.25l13.15,7.32a6.85,6.85,0,0,1,3.82-.2Q724.35,666.84,724.81,669.69Zm19.56,16.85a6.67,6.67,0,0,1-4.27,3.34,7.32,7.32,0,0,1-7.57-2.51,7.48,7.48,0,0,1-1.26-2.4,6.51,6.51,0,0,1-.25-2.68,7.08,7.08,0,0,1,.87-2.69,7.05,7.05,0,0,1,9.65-2.75,7.22,7.22,0,0,1,2.16,1.82,7.07,7.07,0,0,1,1.23,2.43,7.37,7.37,0,0,1,.27,2.73A6.72,6.72,0,0,1,744.37,686.54Z"/><path class="cls-1" d="M712.91,699.84a2.3,2.3,0,0,1-.85.72,2.19,2.19,0,0,1-.85.28,1.46,1.46,0,0,1-1.05-.36,6.44,6.44,0,0,1-1-1,9.64,9.64,0,0,0-1.24-1.2,15.37,15.37,0,0,0-2.25-1.48,30,30,0,0,0-4-1.76L678.9,686.5l14.65,19.22a7.93,7.93,0,0,0,2.86,2.54,10.63,10.63,0,0,0,2.76.89,11,11,0,0,0,2.33.17,2.29,2.29,0,0,1,1.58.38,1.65,1.65,0,0,1,.55.81,1.59,1.59,0,0,1,.11.82,2.41,2.41,0,0,1-.57,1.19l-4.75,6.19a2.3,2.3,0,0,1-.85.72,2.19,2.19,0,0,1-.85.28,1.46,1.46,0,0,1-1.05-.36,2.07,2.07,0,0,1-.65-1.53c-.06-.74-.15-1.63-.29-2.69a23.7,23.7,0,0,0-.77-3.49,11.66,11.66,0,0,0-2-3.82l-14.57-19.06a15.2,15.2,0,0,1-1.65-2.59,1.88,1.88,0,0,1,.14-2.1l4.7-6.13q1.1-1.43,5,0l22.82,8.58a17.07,17.07,0,0,0,4.15,1.07,24.36,24.36,0,0,0,3.27.15l2.41-.06a2.41,2.41,0,0,1,1.56.4,1.7,1.7,0,0,1,.55.82,1.57,1.57,0,0,1,.11.82,2.45,2.45,0,0,1-.57,1.19Z"/><path class="cls-1" d="M681,709.78q6.18,6.83,6.22,13.78t-6.37,12.78a21.46,21.46,0,0,1-4.35,3,14.24,14.24,0,0,1-4.88,1.58,11.13,11.13,0,0,1-5-.52,11.25,11.25,0,0,1-4.7-3.27,8.75,8.75,0,0,1-2.31-4.17,7.71,7.71,0,0,1,.31-4,12.3,12.3,0,0,1,2.14-3.73,31.84,31.84,0,0,1,3.32-3.49l6.07-5.49a36.22,36.22,0,0,0-5.73-5.28,20.62,20.62,0,0,0-4.81-2.7,8.58,8.58,0,0,0-3.67-.62,3.89,3.89,0,0,0-2.3.82,4.4,4.4,0,0,0-1.29,2.07,8.58,8.58,0,0,0-.35,2.63,12.66,12.66,0,0,0,.38,2.92,18.38,18.38,0,0,0,.91,2.8,3.43,3.43,0,0,1,.24,2.31,3.35,3.35,0,0,1-1,1.63,3.28,3.28,0,0,1-2.55.84,2.63,2.63,0,0,1-2.26-1.74,9.6,9.6,0,0,1-.74-3,13.67,13.67,0,0,1,.22-3.93,17.29,17.29,0,0,1,1.51-4.32,14,14,0,0,1,3.19-4.09,17.76,17.76,0,0,1,7-4.1,16.79,16.79,0,0,1,7.34-.5,20.25,20.25,0,0,1,7.11,2.56A26.43,26.43,0,0,1,681,709.78Zm-7.88,8.51-3.7,3.35a3.71,3.71,0,0,0-1.25,2,4.4,4.4,0,0,0,.06,2.1,7.18,7.18,0,0,0,.94,2.09,14.58,14.58,0,0,0,1.46,1.89c.73.81,1.5,1.59,2.31,2.33a15.61,15.61,0,0,0,2.4,1.83,7,7,0,0,0,2.16.93,1.75,1.75,0,0,0,1.62-.36,2.94,2.94,0,0,0,.73-2,9.88,9.88,0,0,0-.57-3.59,25.76,25.76,0,0,0-2.13-4.8A36,36,0,0,0,673.15,718.29Z"/><path class="cls-1" d="M631.63,738.77l13.43,28a19,19,0,0,0,2.06,3.47,21.46,21.46,0,0,0,1.83,2.1c.55.55,1,1,1.46,1.34a3.22,3.22,0,0,1,.94,1.14c.52,1.08.12,1.94-1.19,2.57l-11.82,5.67a26.69,26.69,0,0,1-9.13,2.61,19.64,19.64,0,0,1-8.91-1.27,23.34,23.34,0,0,1-8.23-5.61,38.55,38.55,0,0,1-7-10.47,35.74,35.74,0,0,1-3.58-11.61,22.72,22.72,0,0,1,.87-9.72,20,20,0,0,1,4.62-7.67,26.92,26.92,0,0,1,7.75-5.49l11.81-5.67a2.52,2.52,0,0,1,1.09-.26,2,2,0,0,1,.9.17,1.47,1.47,0,0,1,.76.77,3.47,3.47,0,0,1,.31,1.45,19.57,19.57,0,0,0,.12,2,22.77,22.77,0,0,0,.5,2.75A18.94,18.94,0,0,0,631.63,738.77Zm-14.46-3.27-1.34.64a7.35,7.35,0,0,0-2.53,2.56,13.35,13.35,0,0,0-1.89,5.36,26.53,26.53,0,0,0,.22,8.2,41.33,41.33,0,0,0,3.76,11.09,42.91,42.91,0,0,0,6.54,10.27,27.5,27.5,0,0,0,6.43,5.48,13.71,13.71,0,0,0,5.39,1.95,7,7,0,0,0,3.48-.32l1.34-.65c.65-.31.64-1.24,0-2.79s-1.63-3.56-2.82-6l-13.43-28c-1.2-2.49-2.18-4.48-3-6S617.83,735.19,617.17,735.5Z"/><path class="cls-1" d="M598.49,763.28q2.31,8.91-.86,15.1t-11.56,8.37a21.1,21.1,0,0,1-5.27.69,14,14,0,0,1-5-.86,11,11,0,0,1-4.2-2.77,11.35,11.35,0,0,1-2.65-5.07,8.75,8.75,0,0,1-.11-4.77,7.65,7.65,0,0,1,2.1-3.37,12.5,12.5,0,0,1,3.63-2.32,32,32,0,0,1,4.55-1.55l7.93-2.06a36.93,36.93,0,0,0-2.64-7.34,20.65,20.65,0,0,0-3-4.61,8.51,8.51,0,0,0-3-2.25,4,4,0,0,0-2.43-.34,4.44,4.44,0,0,0-2.1,1.24,8.67,8.67,0,0,0-1.52,2.17,12.9,12.9,0,0,0-1,2.76,18.82,18.82,0,0,0-.49,2.91,3.41,3.41,0,0,1-.85,2.16,3.5,3.5,0,0,1-1.63,1,3.34,3.34,0,0,1-2.66-.44,2.61,2.61,0,0,1-1.19-2.59,9.59,9.59,0,0,1,.74-3,13.72,13.72,0,0,1,2-3.39,16.8,16.8,0,0,1,3.34-3.13,14.17,14.17,0,0,1,4.71-2.16,17.84,17.84,0,0,1,8.12-.38,16.73,16.73,0,0,1,6.74,3,20.11,20.11,0,0,1,5.12,5.56A26.63,26.63,0,0,1,598.49,763.28Zm-10.92,3.9-4.83,1.26a3.68,3.68,0,0,0-2,1.17,4.64,4.64,0,0,0-.92,1.89,7.51,7.51,0,0,0-.13,2.29,14.58,14.58,0,0,0,.42,2.35c.27,1.06.6,2.1,1,3.14a16,16,0,0,0,1.28,2.72,7,7,0,0,0,1.48,1.83,1.73,1.73,0,0,0,1.61.43A2.94,2.94,0,0,0,587,782.8a10.2,10.2,0,0,0,1.16-3.45,26.59,26.59,0,0,0,.32-5.24A36,36,0,0,0,587.57,767.18Z"/><path class="cls-1" d="M558.07,764.87a3.38,3.38,0,0,1-2.4-.62A6.78,6.78,0,0,1,554,762.4a21.42,21.42,0,0,1-1.39-2.5,21.42,21.42,0,0,0-1.39-2.5,7.36,7.36,0,0,0-1.68-1.86,3.29,3.29,0,0,0-2.36-.62,3.9,3.9,0,0,0-1.94.68,5,5,0,0,0-1.41,1.41,6,6,0,0,0-.82,1.87,6.51,6.51,0,0,0-.18,2,5.64,5.64,0,0,0,1.76,3.64,18.89,18.89,0,0,0,3.89,2.88q2.3,1.34,4.91,2.6a51.16,51.16,0,0,1,4.93,2.71,17.09,17.09,0,0,1,3.92,3.31,7.6,7.6,0,0,1,1.83,4.42,8.32,8.32,0,0,1-1.16,5.27,12.71,12.71,0,0,1-3.63,3.75,18.06,18.06,0,0,1-4.82,2.33,22.08,22.08,0,0,1-4.77,1,25,25,0,0,1-6.19-.18,16.13,16.13,0,0,1-4.83-1.54,9.5,9.5,0,0,1-3.24-2.66,6.67,6.67,0,0,1-1.36-3.53,4.22,4.22,0,0,1,1-2.94,4.53,4.53,0,0,1,3.38-1.66,3.45,3.45,0,0,1,2.41.62,7.1,7.1,0,0,1,1.72,1.85,24,24,0,0,1,1.39,2.5,21.6,21.6,0,0,0,1.38,2.51,7.35,7.35,0,0,0,1.69,1.85,3.29,3.29,0,0,0,2.36.62,3.92,3.92,0,0,0,1.94-.67,5.22,5.22,0,0,0,1.4-1.41,5.73,5.73,0,0,0,.82-1.87,6,6,0,0,0,.18-2.05,5.79,5.79,0,0,0-1.76-3.69,18.92,18.92,0,0,0-3.93-3c-1.57-.91-3.23-1.8-5-2.67a51.4,51.4,0,0,1-5-2.82,18.44,18.44,0,0,1-4-3.38,7.63,7.63,0,0,1-1.83-4.43,7.84,7.84,0,0,1,1.2-5.19,12.69,12.69,0,0,1,3.73-3.6,18.57,18.57,0,0,1,4.9-2.22,25.68,25.68,0,0,1,4.81-1,24.88,24.88,0,0,1,6.16.18,16,16,0,0,1,4.87,1.55,9.58,9.58,0,0,1,3.24,2.66,6.71,6.71,0,0,1,1.35,3.52,4.15,4.15,0,0,1-1,2.94A4.51,4.51,0,0,1,558.07,764.87Z"/><path class="cls-1" d="M520.94,812.16a6.66,6.66,0,0,1-4.91-2.3,7,7,0,0,1-1.83-5.14,7.16,7.16,0,0,1,.65-2.75,7.41,7.41,0,0,1,1.57-2.2,6.6,6.6,0,0,1,2.28-1.44,7,7,0,0,1,2.79-.43,7.06,7.06,0,0,1,6.82,7.36,7,7,0,0,1-.66,2.75,7.11,7.11,0,0,1-1.6,2.2,7.61,7.61,0,0,1-2.33,1.47A6.5,6.5,0,0,1,520.94,812.16Zm6.2-25-5.39,4.08a9,9,0,0,1-1.48,1,3.37,3.37,0,0,1-1.7.4,1.75,1.75,0,0,1-1.41-.83,5.07,5.07,0,0,1-.47-2.91l.91-23.54a19.62,19.62,0,0,0-.19-4,23.91,23.91,0,0,0-.64-2.71,18,18,0,0,0-.67-1.86,3.43,3.43,0,0,1-.29-1.46,1.7,1.7,0,0,1,.26-.85,2.1,2.1,0,0,1,.69-.63,2.39,2.39,0,0,1,1.3-.23l10.36.41a2.34,2.34,0,0,1,1.09.27,2.09,2.09,0,0,1,.72.58,1.48,1.48,0,0,1,.31,1,3.42,3.42,0,0,1-.41,1.43q-.37.74-.81,1.8a23.49,23.49,0,0,0-.85,2.66,19.45,19.45,0,0,0-.5,4l-.59,15.05a6.84,6.84,0,0,1,1.91,3.31C529.41,784.94,528.69,786,527.14,787.11Z"/><path class="cls-1" d="M514.51,746a3.79,3.79,0,0,1-2.14-1.07A7,7,0,0,1,511.1,743c-.34-.75-.66-1.53-1-2.36A13.44,13.44,0,0,0,509,738.2a7.31,7.31,0,0,0-1.92-2.06,8,8,0,0,0-3.29-1.28,13.8,13.8,0,0,0-5.38-.08,10.22,10.22,0,0,0-3.8,1.65,8.09,8.09,0,0,0-2.4,2.73,10.86,10.86,0,0,0-1.15,3.19,6.08,6.08,0,0,0,.47,3.94,8.59,8.59,0,0,0,2.77,3,21,21,0,0,0,4.67,2.41c1.85.71,3.91,1.41,6.16,2.09,2.56.73,4.17,1.85,4.82,3.34a4.44,4.44,0,0,1-.55,4.5c-.72,1-1.3,1.84-1.75,2.41s-.75,1-.9,1.23a13,13,0,0,1,3.59,5.26,14.4,14.4,0,0,1,.35,7.76A14.7,14.7,0,0,1,508,785a13.54,13.54,0,0,1-4.54,3.81,15.6,15.6,0,0,1-5.49,1.6,24.46,24.46,0,0,1-5.55,0c-.16.29-.5.95-1,2a12.78,12.78,0,0,1-2.31,3.1,11.92,11.92,0,0,1-3.84,2.55,9.54,9.54,0,0,1-5.55.41,15.59,15.59,0,0,1-3.3-1,12.69,12.69,0,0,1-3.2-2,8.94,8.94,0,0,1-2.26-2.79,5.26,5.26,0,0,1-.47-3.5,4.19,4.19,0,0,1,1.74-2.57,4.51,4.51,0,0,1,3.7-.71,3.7,3.7,0,0,1,2.11,1A4.55,4.55,0,0,1,479,788.6a10.31,10.31,0,0,1,.45,2.1,18.46,18.46,0,0,0,.33,2.08,5.33,5.33,0,0,0,.67,1.72,2.21,2.21,0,0,0,1.54.91,5,5,0,0,0,3.15-.33,7.36,7.36,0,0,0,2.33-1.67,11.56,11.56,0,0,0,1.53-2,11.7,11.7,0,0,0,.74-1.45,26.14,26.14,0,0,1-5.45-1.84,16.7,16.7,0,0,1-4.93-3.4,13.73,13.73,0,0,1-3.23-5.28,17.17,17.17,0,0,1,2.75-14.52,13,13,0,0,1,5.13-3.7,17.58,17.58,0,0,1,6.08-1.18,30.1,30.1,0,0,1,5.87.45,28.58,28.58,0,0,1,4.27,1.14,22.43,22.43,0,0,1,4.27,2c.29-.42.59-.9.89-1.42s.59-1,.84-1.52-.06-.69-.71-.92a21.55,21.55,0,0,0-3-.7l-2.84-.49c-1-.16-2.16-.35-3.39-.58a34.24,34.24,0,0,1-9.67-3,17.39,17.39,0,0,1-5.36-4.08,9.22,9.22,0,0,1-2.16-4.44,12.58,12.58,0,0,1,0-4.16,10.33,10.33,0,0,1,2.33-5.13,13.78,13.78,0,0,1,4.11-3.16,18.05,18.05,0,0,1,5.11-1.68,37.27,37.27,0,0,1,5.34-.56,38.55,38.55,0,0,1,4.77.12c1.46.14,2.59.28,3.41.43q8.28,1.53,12.36,4t3.34,6.37a4.19,4.19,0,0,1-1.74,2.57A4.5,4.5,0,0,1,514.51,746Zm-15.09,30.29a26.29,26.29,0,0,0,.54-6.4,11.82,11.82,0,0,0-.85-4,4.73,4.73,0,0,0-1.68-2.09,5,5,0,0,0-4-.73,4.6,4.6,0,0,0-2.31,1.35,11.48,11.48,0,0,0-2.21,3.4,26,26,0,0,0-1.78,6.18,27.12,27.12,0,0,0-.55,6.44,12.62,12.62,0,0,0,.84,4.08,4.8,4.8,0,0,0,1.65,2.21,5.15,5.15,0,0,0,1.91.83,5.32,5.32,0,0,0,2.08-.09A4.88,4.88,0,0,0,495.4,786a12.66,12.66,0,0,0,2.24-3.51A27.33,27.33,0,0,0,499.42,776.25Z"/><path class="cls-1" d="M463.7,777.66l-6.45,2a5.5,5.5,0,0,1-1.54.26,3.76,3.76,0,0,1-1.58-.26,2.1,2.1,0,0,1-1.21-1.25,3.9,3.9,0,0,1,.37-2.7l.62-1.52a20.54,20.54,0,0,1-5.71,2.15,10.07,10.07,0,0,1-5.93-.63,10.49,10.49,0,0,1-5.33-4.72,10.73,10.73,0,0,1-.94-7.66c.14-.61.4-1.55.79-2.79s.84-2.62,1.34-4.13,1-3.09,1.58-4.75,1.08-3.2,1.58-4.65.94-2.77,1.3-3.94.59-2,.69-2.54a3.42,3.42,0,0,0,0-1.56c-.12-.46-.23-.92-.34-1.35s-.18-.86-.24-1.28a2.63,2.63,0,0,1,.21-1.34,1.5,1.5,0,0,1,1.11-1,2.68,2.68,0,0,1,1.66.16l9.11,3.68a2.28,2.28,0,0,1,1.31,1.54,4.59,4.59,0,0,1-.52,3.16,80.34,80.34,0,0,1-3.86,7.27,104.47,104.47,0,0,0-5.08,10.06c-.72,1.67-1.38,3.19-2,4.55a16,16,0,0,0-1.13,3.63,5.18,5.18,0,0,0,.2,2.73,3.31,3.31,0,0,0,2,1.76,6.93,6.93,0,0,0,4.44-.05,19.58,19.58,0,0,0,5.46-2.59l6.61-16.34a20,20,0,0,0,1.18-3.86,22.7,22.7,0,0,0,.32-2.77c0-.78,0-1.43,0-2a3.48,3.48,0,0,1,.21-1.47,1.73,1.73,0,0,1,.54-.71,2,2,0,0,1,.86-.36,2.31,2.31,0,0,1,1.3.23l9.62,3.88c1.35.55,1.8,1.37,1.35,2.48a3.18,3.18,0,0,1-.87,1.21c-.4.37-.85.84-1.37,1.42a22.57,22.57,0,0,0-1.69,2.22,18.82,18.82,0,0,0-1.83,3.59l-5.76,14.25a4.67,4.67,0,0,0-.41,2.15c.06.61.1,1.16.1,1.64a2,2,0,0,1-.36,1.2A3.8,3.8,0,0,1,463.7,777.66Z"/><path class="cls-1" d="M368.39,701l3.77-3.4,12.9,14.31-3.77,3.4Z"/><path class="cls-1" d="M347.15,643.91l-29.6,9.34a19.21,19.21,0,0,0-3.73,1.54,21.31,21.31,0,0,0-2.34,1.52,16.66,16.66,0,0,0-1.53,1.26,3.31,3.31,0,0,1-1.27.76c-1.14.36-1.93-.15-2.37-1.54l-3.94-12.5a26.38,26.38,0,0,1-1.29-9.4,19.6,19.6,0,0,1,2.51-8.65,23.45,23.45,0,0,1,6.71-7.35,38.72,38.72,0,0,1,11.37-5.47,36.18,36.18,0,0,1,12-1.9,22.76,22.76,0,0,1,9.5,2.24,20,20,0,0,1,6.94,5.66,26.59,26.59,0,0,1,4.34,8.45l3.94,12.49a2.42,2.42,0,0,1,.11,1.11,2.05,2.05,0,0,1-.3.88,1.48,1.48,0,0,1-.86.64,3.29,3.29,0,0,1-1.48.09c-.54-.07-1.2-.12-2-.15a23.79,23.79,0,0,0-2.79.1A19.1,19.1,0,0,0,347.15,643.91Zm5.28-13.86-.44-1.41a7.24,7.24,0,0,0-2.18-2.87,13.22,13.22,0,0,0-5-2.62,26.3,26.3,0,0,0-8.15-.95,41.27,41.27,0,0,0-11.5,2.16,43,43,0,0,0-11.1,5,27.92,27.92,0,0,0-6.33,5.6A13.75,13.75,0,0,0,305,640a7,7,0,0,0-.16,3.49l.44,1.41c.22.7,1.14.82,2.77.36s3.76-1.11,6.38-1.94L344,634q3.95-1.25,6.34-2.08C352,631.38,352.65,630.75,352.43,630.05Z"/><path class="cls-1" d="M289.16,606.6a6.67,6.67,0,0,1,1.29-5.26,7.1,7.1,0,0,1,4.69-2.81,7,7,0,0,1,2.82.11,7.45,7.45,0,0,1,2.47,1.1,6.66,6.66,0,0,1,1.85,2,7.16,7.16,0,0,1,1,2.65,7.07,7.07,0,0,1-5.9,8.13,7.09,7.09,0,0,1-5.29-1.25,7.67,7.67,0,0,1-1.9-2A6.72,6.72,0,0,1,289.16,606.6Zm25.78,1.17-5.06-4.48a8.77,8.77,0,0,1-1.23-1.27,3.36,3.36,0,0,1-.73-1.58,1.77,1.77,0,0,1,.55-1.55,5.12,5.12,0,0,1,2.75-1l23.27-3.71a19.61,19.61,0,0,0,3.91-1,23.52,23.52,0,0,0,2.54-1.16,19.12,19.12,0,0,0,1.69-1,3.29,3.29,0,0,1,1.37-.57,1.64,1.64,0,0,1,.88.09,2,2,0,0,1,.76.55,2.43,2.43,0,0,1,.48,1.23l1.63,10.25a2.27,2.27,0,0,1-.06,1.11,2,2,0,0,1-.42.82,1.48,1.48,0,0,1-.95.51,3.47,3.47,0,0,1-1.48-.12c-.52-.16-1.16-.3-1.92-.45a22.53,22.53,0,0,0-2.78-.3,18.9,18.9,0,0,0-4,.28l-14.86,2.38a7,7,0,0,1-2.88,2.51C317.51,609.58,316.36,609.08,314.94,607.77Z"/><path class="cls-1" d="M352.85,587.32a3.73,3.73,0,0,1,.62-2.31,7.1,7.1,0,0,1,1.65-1.63c.67-.48,1.38-1,2.13-1.4a13.8,13.8,0,0,0,2.12-1.59A7.37,7.37,0,0,0,361,578.1a8,8,0,0,0,.6-3.48,13.49,13.49,0,0,0-1-5.29,10,10,0,0,0-2.36-3.4,8.12,8.12,0,0,0-3.15-1.82,11.12,11.12,0,0,0-3.36-.49,6,6,0,0,0-3.76,1.23,8.51,8.51,0,0,0-2.44,3.32,21.06,21.06,0,0,0-1.44,5.05c-.34,2-.61,4.11-.84,6.45q-.31,4-2.33,5.38a4.43,4.43,0,0,1-4.52.35c-1.15-.5-2.05-.92-2.71-1.24s-1.11-.54-1.37-.64a13.25,13.25,0,0,1-4.45,4.55,14.45,14.45,0,0,1-7.54,1.88,14.81,14.81,0,0,1-7-1.37,13.55,13.55,0,0,1-4.63-3.71,15.42,15.42,0,0,1-2.65-5.06,25,25,0,0,1-1.07-5.45l-2.15-.62a13.15,13.15,0,0,1-3.5-1.66,11.9,11.9,0,0,1-3.25-3.27,9.45,9.45,0,0,1-1.49-5.35A15.6,15.6,0,0,1,295,560a12.87,12.87,0,0,1,1.31-3.54,9.09,9.09,0,0,1,2.29-2.76,5.28,5.28,0,0,1,3.34-1.15,4.22,4.22,0,0,1,2.87,1.2,4.55,4.55,0,0,1,1.42,3.49,3.76,3.76,0,0,1-.59,2.27,4.66,4.66,0,0,1-1.54,1.39,9.93,9.93,0,0,1-2,.85,19.91,19.91,0,0,0-2,.74,5.06,5.06,0,0,0-1.54,1,2.18,2.18,0,0,0-.6,1.68,5.08,5.08,0,0,0,1,3,7.57,7.57,0,0,0,2.09,2,11.53,11.53,0,0,0,2.29,1.09,9.51,9.51,0,0,0,1.56.44,27.15,27.15,0,0,1,.73-5.7,16.54,16.54,0,0,1,2.37-5.5,13.62,13.62,0,0,1,4.53-4.21,14.78,14.78,0,0,1,7.31-1.76,14.56,14.56,0,0,1,7.47,1.6,13,13,0,0,1,4.64,4.29,17.35,17.35,0,0,1,2.35,5.74A29.9,29.9,0,0,1,335,572a29.57,29.57,0,0,1-.28,4.42,22.24,22.24,0,0,1-1.14,4.58c.48.2,1,.4,1.57.6s1.13.37,1.65.52.67-.2.77-.87a21.25,21.25,0,0,0,.1-3c0-.88,0-1.84-.08-2.88s-.08-2.19-.1-3.43a34.64,34.64,0,0,1,1.05-10.08,17.65,17.65,0,0,1,2.94-6.06,9.27,9.27,0,0,1,3.93-3,12.71,12.71,0,0,1,4.09-.8,10.39,10.39,0,0,1,5.48,1.27,13.6,13.6,0,0,1,3.91,3.41,18.19,18.19,0,0,1,2.65,4.68,36.74,36.74,0,0,1,1.61,5.12,40.31,40.31,0,0,1,.82,4.71c.15,1.45.23,2.59.25,3.42q.13,8.43-1.47,12.9T357.14,592a4.22,4.22,0,0,1-2.87-1.21A4.48,4.48,0,0,1,352.85,587.32Zm-32.68-8.83a26.88,26.88,0,0,0,6.39-.73,11.61,11.61,0,0,0,3.72-1.62,4.64,4.64,0,0,0,1.72-2.06,5.66,5.66,0,0,0,.4-2,5.5,5.5,0,0,0-.47-2,4.59,4.59,0,0,0-1.78-2,11.61,11.61,0,0,0-3.77-1.5,33.25,33.25,0,0,0-12.83.21,12.64,12.64,0,0,0-3.84,1.62,4.87,4.87,0,0,0-1.84,2.06,5.15,5.15,0,0,0-.43,2,5.2,5.2,0,0,0,.5,2,4.83,4.83,0,0,0,1.9,2,12.73,12.73,0,0,0,3.89,1.5A27,27,0,0,0,320.17,578.49Z"/><path class="cls-1" d="M288.08,536.67A6.66,6.66,0,0,1,290.8,532a7.05,7.05,0,0,1,5.28-1.37,7.19,7.19,0,0,1,2.68.89,7.46,7.46,0,0,1,2.06,1.76,6.67,6.67,0,0,1,1.23,2.4,7.11,7.11,0,0,1,.19,2.81,7.07,7.07,0,0,1-7.94,6.15,7,7,0,0,1-2.68-.9,6.9,6.9,0,0,1-2.05-1.79,7.75,7.75,0,0,1-1.26-2.44A6.5,6.5,0,0,1,288.08,536.67Zm24.41,8.38-3.6-5.73a8.8,8.8,0,0,1-.82-1.56,3.25,3.25,0,0,1-.25-1.72,1.74,1.74,0,0,1,.95-1.33,5.09,5.09,0,0,1,2.94-.22l23.37,3a18.61,18.61,0,0,0,4,.16,24.71,24.71,0,0,0,2.76-.39c.75-.17,1.39-.34,1.91-.51a3.35,3.35,0,0,1,1.48-.16,1.62,1.62,0,0,1,.82.34,1.93,1.93,0,0,1,.57.74,2.39,2.39,0,0,1,.11,1.31l-1.31,10.29a2.56,2.56,0,0,1-.37,1.06,2.1,2.1,0,0,1-.64.66,1.47,1.47,0,0,1-1.05.22,3.38,3.38,0,0,1-1.39-.53c-.46-.29-1-.62-1.72-1a23.11,23.11,0,0,0-2.58-1.07,19.22,19.22,0,0,0-3.94-.86l-14.93-1.9a6.85,6.85,0,0,1-3.47,1.6C314.44,547.5,313.48,546.7,312.49,545.05Z"/><path class="cls-1" d="M309.12,526l1.32-5.3-3.63-.91a6.87,6.87,0,0,1-3.64,1.19c-.92-.07-1.77-1-2.57-2.73l-2.9-6.11a5.67,5.67,0,0,1-.47-1.49,3.9,3.9,0,0,1,0-1.6,2.14,2.14,0,0,1,1.07-1.38,4,4,0,0,1,2.73,0l11.89,3,1.32-5.3a1.23,1.23,0,0,1,.62-.89,1.47,1.47,0,0,1,.95-.08,1.34,1.34,0,0,1,.79.52,1.24,1.24,0,0,1,.14,1.08l-1.33,5.29L334.59,516l3.49.83c1.52.35,3.05.63,4.57.85a24.65,24.65,0,0,0,4.07.29c1.19,0,1.85-.31,2-.87.25-1-.21-1.79-1.39-2.35A40.53,40.53,0,0,0,343,513a3.29,3.29,0,0,1-2-1.66,3.39,3.39,0,0,1,1.29-4.35,3.19,3.19,0,0,1,2.9-.2,7.66,7.66,0,0,1,2.46,1.42,10.15,10.15,0,0,1,2.24,2.65,10.77,10.77,0,0,1,1.33,3.83,12.41,12.41,0,0,1-.32,5,11.8,11.8,0,0,1-2,4.52,8.57,8.57,0,0,1-6.47,3.41,21.39,21.39,0,0,1-3.75-.13,24.13,24.13,0,0,1-3.56-.69l-3-.78-19.14-4.77-1.32,5.3a1.24,1.24,0,0,1-.63.89,1.32,1.32,0,0,1-.94.08,1.36,1.36,0,0,1-.8-.52A1.22,1.22,0,0,1,309.12,526Z"/><path class="cls-1" d="M336.38,483.22a24.36,24.36,0,0,0-.2-2.65c-.11-.9-.24-1.72-.37-2.46a20.19,20.19,0,0,0-6.31-1.24c-1.84,0-3,.6-3.58,1.84a3.3,3.3,0,0,0,.44,2.87c.63,1.16,1.33,2.39,2.09,3.69a25.32,25.32,0,0,1,1.92,4.08,5.3,5.3,0,0,1-.08,4,3.73,3.73,0,0,1-2.55,2.42,4.87,4.87,0,0,1-3-.25,5.74,5.74,0,0,1-2.75-2.49,9.18,9.18,0,0,1-1.07-4.05,19.07,19.07,0,0,1,.56-5.25,35.15,35.15,0,0,1,2.09-6.11q2.65-6.06,6-7.79a10.79,10.79,0,0,1,7.67-.68c.61.16,1.53.45,2.76.88s2.6.91,4.09,1.45l4.7,1.72,4.61,1.73c1.43.55,2.73,1,3.89,1.41a24.63,24.63,0,0,0,2.52.77,3.45,3.45,0,0,0,1.56,0l1.36-.29a12.5,12.5,0,0,1,1.28-.2,2.54,2.54,0,0,1,1.34.24,1.52,1.52,0,0,1,.95,1.14,2.72,2.72,0,0,1-.21,1.66l-4,9a2.06,2.06,0,0,1-1,1,3.06,3.06,0,0,1-1.84.22,14.62,14.62,0,0,1,.34,4.54,13.27,13.27,0,0,1-1.05,4.43,10.19,10.19,0,0,1-2.71,3.75,10.66,10.66,0,0,1-3.74,2.11,12,12,0,0,1-4.16.56,11.11,11.11,0,0,1-4.07-.94,11.54,11.54,0,0,1-5.06-3.88,13.66,13.66,0,0,1-2.18-5.22,27.14,27.14,0,0,1-.44-6Q336.36,486.2,336.38,483.22ZM356,488.7c-2-1.09-4.19-2.39-6.67-3.91s-5.49-3.13-9-4.85l-1.22-.53c.12.51.24,1.13.37,1.87s.29,1.54.47,2.42a20.08,20.08,0,0,0,.71,2.57,11.92,11.92,0,0,0,1.34,2.67,12.16,12.16,0,0,0,2.29,2.54,13.8,13.8,0,0,0,3.56,2.16,15.1,15.1,0,0,0,1.89.66,8.85,8.85,0,0,0,2.23.34,4.89,4.89,0,0,0,2.13-.38,3,3,0,0,0,1.53-1.63,5.34,5.34,0,0,0,.47-2A10.15,10.15,0,0,0,356,488.7Z"/><path class="cls-1" d="M323.73,447.93l-.94-6.7a5.34,5.34,0,0,1,0-1.55,3.75,3.75,0,0,1,.51-1.52,2.18,2.18,0,0,1,1.44-1,4,4,0,0,1,2.61.82l37,22.59a19.27,19.27,0,0,0,3.61,1.79,23.84,23.84,0,0,0,2.68.77c.76.16,1.41.26,2,.32a3.44,3.44,0,0,1,1.42.45,1.66,1.66,0,0,1,.61.65,2.07,2.07,0,0,1,.22.91,2.48,2.48,0,0,1-.44,1.24l-5.4,8.86a2.61,2.61,0,0,1-.77.81,2.12,2.12,0,0,1-.85.35,1.51,1.51,0,0,1-1.05-.23,3.5,3.5,0,0,1-1-1.05,18.78,18.78,0,0,0-1.18-1.59,23.59,23.59,0,0,0-1.91-2,19.45,19.45,0,0,0-3.25-2.39l-29.76-18.16a4.6,4.6,0,0,0-2.06-.75c-.61,0-1.15-.1-1.63-.17a2,2,0,0,1-1.12-.55A3.69,3.69,0,0,1,323.73,447.93Z"/><path class="cls-1" d="M384.25,448.16a1.68,1.68,0,0,1-.38-1.56,16.16,16.16,0,0,0,.31-2.2,8.7,8.7,0,0,0-.38-3,10.68,10.68,0,0,0-2.38-3.91l-22.14-23.94a10.55,10.55,0,0,0-3.72-2.71,9,9,0,0,0-2.93-.59,17.53,17.53,0,0,0-2.22.14,1.65,1.65,0,0,1-1.52-.5,1.1,1.1,0,0,1-.26-.62,1.35,1.35,0,0,1,.55-1.36l4.53-4.18a9.59,9.59,0,0,1,5.7-2.56,20.12,20.12,0,0,1,7,.6,39.42,39.42,0,0,1,7.78,3q4,2,8,4.48t7.52,5.1q3.6,2.63,6.46,4.86T401,423a23.83,23.83,0,0,0,2.55,1.84l-26.63-40.07a1.7,1.7,0,0,1-.4-.9,1.49,1.49,0,0,1,0-.83,2.32,2.32,0,0,1,.76-1.07l7.62-7.05c1.07-1,2-1,2.82-.16a3.28,3.28,0,0,1,.72,1.3c.16.52.4,1.14.7,1.85a23,23,0,0,0,1.28,2.48,19.22,19.22,0,0,0,2.47,3.18L414,406.33a19.21,19.21,0,0,0,3,2.71,21,21,0,0,0,2.37,1.48c.68.35,1.28.63,1.79.84a3.32,3.32,0,0,1,1.23.82,1.55,1.55,0,0,1,.41.79,2,2,0,0,1,0,.94A2.51,2.51,0,0,1,422,415l-7.62,7c-1.07,1-2,1-2.82.17a3.35,3.35,0,0,1-.72-1.3c-.17-.52-.4-1.14-.7-1.85a22.38,22.38,0,0,0-1.29-2.48,19.54,19.54,0,0,0-2.46-3.19l-21.08-22.8c-.6-.64-1.17-1.21-1.72-1.69s-1.06-.9-1.53-1.25l25.48,38.48a1.77,1.77,0,0,1,.27,1.45,2.68,2.68,0,0,1-.82,1.29l-6.41,5.93a1.71,1.71,0,0,1-1.81.34A10.6,10.6,0,0,1,396,433.5c-.89-.66-2.27-1.75-4.12-3.26s-3.93-3.17-6.21-5-4.69-3.65-7.21-5.5-4.91-3.44-7.18-4.78a35.48,35.48,0,0,0-6-2.94c-1.74-.62-3-.58-3.76.13l21.82,23.6a11.3,11.3,0,0,0,3.76,2.63A8.53,8.53,0,0,0,390,439c.85,0,1.58,0,2.19-.1a1.64,1.64,0,0,1,1.49.52,1.32,1.32,0,0,1,.31.57,1.41,1.41,0,0,1-.05.63,1.76,1.76,0,0,1-.55.78L386.25,448C385.48,448.72,384.82,448.77,384.25,448.16Z"/><path class="cls-1" d="M413.84,397.12q-4.59-8-3.15-14.79t8.94-11.13a21.6,21.6,0,0,1,4.9-2.05,14.2,14.2,0,0,1,5.1-.5,10.75,10.75,0,0,1,8.67,5.76,8.68,8.68,0,0,1,1.37,4.57,7.71,7.71,0,0,1-1.14,3.81,12.48,12.48,0,0,1-2.89,3.19,31.46,31.46,0,0,1-4,2.69l-7.1,4.09a36.81,36.81,0,0,0,4.47,6.37,20.92,20.92,0,0,0,4.13,3.66,8.69,8.69,0,0,0,3.45,1.39,3.88,3.88,0,0,0,2.43-.32,4.38,4.38,0,0,0,1.7-1.74,8.83,8.83,0,0,0,.9-2.5,13.17,13.17,0,0,0,.25-2.93,19.26,19.26,0,0,0-.29-2.93,3.41,3.41,0,0,1,.25-2.31,3.52,3.52,0,0,1,1.31-1.39,3.36,3.36,0,0,1,2.68-.27,2.63,2.63,0,0,1,1.84,2.18,9.47,9.47,0,0,1,.07,3.1,13.66,13.66,0,0,1-1.05,3.8,16.94,16.94,0,0,1-2.39,3.9,14,14,0,0,1-4,3.32,17.93,17.93,0,0,1-7.73,2.52,16.88,16.88,0,0,1-7.28-1.08,20.4,20.4,0,0,1-6.4-4A26.48,26.48,0,0,1,413.84,397.12Zm9.5-6.63,4.33-2.49a3.77,3.77,0,0,0,1.65-1.67,4.4,4.4,0,0,0,.38-2.07,7.1,7.1,0,0,0-.48-2.24,14.22,14.22,0,0,0-1-2.16q-.82-1.42-1.77-2.76a16.53,16.53,0,0,0-1.95-2.3,7.18,7.18,0,0,0-1.92-1.37,1.69,1.69,0,0,0-1.65,0,2.94,2.94,0,0,0-1.16,1.83,10,10,0,0,0-.2,3.63,27.22,27.22,0,0,0,1.06,5.14A36.75,36.75,0,0,0,423.34,390.49Z"/><path class="cls-1" d="M453.49,355.6a11.38,11.38,0,0,1,4.74-.62,15.29,15.29,0,0,1,4.72,1.21l-3.47-9.95a6.85,6.85,0,0,1-3-2.39c-.44-.8-.15-2,.88-3.65l3.52-5.77a5.85,5.85,0,0,1,1-1.21,3.84,3.84,0,0,1,1.36-.84,2.12,2.12,0,0,1,1.74.13,4,4,0,0,1,1.5,2.29l14.27,40.95a20,20,0,0,0,1.66,3.68,22.88,22.88,0,0,0,1.58,2.3,18.23,18.23,0,0,0,1.31,1.48,3.36,3.36,0,0,1,.8,1.25c.4,1.13-.09,1.94-1.47,2.41l-7.51,2.62c-1,.36-1.75.36-2.15,0a4.92,4.92,0,0,1-1.11-2,14.14,14.14,0,0,1-2.92,3.95,11.64,11.64,0,0,1-10.32,2.85,17.13,17.13,0,0,1-6.12-2.61,22.47,22.47,0,0,1-5.26-5,25.08,25.08,0,0,1-5.06-14.51,22.44,22.44,0,0,1,1-7.2,16.59,16.59,0,0,1,3.18-5.82A11.79,11.79,0,0,1,453.49,355.6Zm2.9,20.39a48.47,48.47,0,0,0,2.07,5,23.86,23.86,0,0,0,2.78,4.53,11.41,11.41,0,0,0,3.33,2.93,4.5,4.5,0,0,0,3.78.29,5.54,5.54,0,0,0,2.54-1.84,9.6,9.6,0,0,0,1.66-3.18l-8.29-23.79a10.4,10.4,0,0,0-3.25-1.38,5.61,5.61,0,0,0-3.13.14,4.45,4.45,0,0,0-2.78,2.58,11.2,11.2,0,0,0-.8,4.32,22.74,22.74,0,0,0,.61,5.2A47.47,47.47,0,0,0,456.39,376Z"/><path class="cls-1" d="M483.4,328a6.68,6.68,0,0,1,5.3,1.1,7.3,7.3,0,0,1,3,7.41,7.38,7.38,0,0,1-1,2.51,6.64,6.64,0,0,1-1.89,1.92,7,7,0,0,1-2.61,1.06,7.06,7.06,0,0,1-8.33-5.6,7,7,0,0,1,0-2.82,7.26,7.26,0,0,1,1.06-2.51,7.64,7.64,0,0,1,1.92-2A6.76,6.76,0,0,1,483.4,328Zm-.27,25.8,4.3-5.21a9.67,9.67,0,0,1,1.22-1.28,3.39,3.39,0,0,1,1.56-.78,1.75,1.75,0,0,1,1.56.49,5,5,0,0,1,1.13,2.72l4.53,23.12a19.43,19.43,0,0,0,1.12,3.87,22.25,22.25,0,0,0,1.25,2.5,17,17,0,0,0,1.08,1.65,3.48,3.48,0,0,1,.62,1.35,1.58,1.58,0,0,1-.07.89,2,2,0,0,1-.52.78,2.49,2.49,0,0,1-1.21.51l-10.18,2a2.47,2.47,0,0,1-1.12,0,2,2,0,0,1-.83-.39A1.46,1.46,0,0,1,487,385a3.27,3.27,0,0,1,.07-1.48c.13-.53.26-1.18.37-2a20.67,20.67,0,0,0,.21-2.78,18.84,18.84,0,0,0-.43-4L484.36,360a6.82,6.82,0,0,1-2.61-2.79C481.42,356.38,481.88,355.22,483.13,353.75Z"/><path class="cls-1" d="M517.17,356.49a26,26,0,0,0,2.26-1.39c.75-.52,1.43-1,2-1.45a20.17,20.17,0,0,0-1.77-6.18c-.83-1.65-1.92-2.43-3.27-2.35a3.28,3.28,0,0,0-2.36,1.71c-.74,1.09-1.52,2.26-2.33,3.54a24.31,24.31,0,0,1-2.75,3.56,5.23,5.23,0,0,1-3.64,1.78,3.72,3.72,0,0,1-3.32-1.16,4.86,4.86,0,0,1-1.14-2.79,5.72,5.72,0,0,1,.95-3.57,9.13,9.13,0,0,1,3.12-2.81,19.28,19.28,0,0,1,4.92-1.89,35.26,35.26,0,0,1,6.39-.94q6.63-.39,9.68,1.8a10.79,10.79,0,0,1,4.11,6.52c.14.61.3,1.57.48,2.86s.38,2.72.57,4.3.41,3.23.62,5,.39,3.37.56,4.89.35,2.9.53,4.11a26.12,26.12,0,0,0,.46,2.59,3.56,3.56,0,0,0,.67,1.41c.31.37.61.73.89,1.08s.54.7.77,1.05a2.59,2.59,0,0,1,.39,1.3,1.53,1.53,0,0,1-.58,1.36,2.74,2.74,0,0,1-1.57.57l-9.81.59a2.09,2.09,0,0,1-1.36-.43,3.07,3.07,0,0,1-1-1.54,14.26,14.26,0,0,1-3.88,2.38,13.31,13.31,0,0,1-4.43,1.09,10.26,10.26,0,0,1-4.57-.7,10.64,10.64,0,0,1-3.58-2.36,12.15,12.15,0,0,1-2.4-3.45,11,11,0,0,1-1-4,11.66,11.66,0,0,1,1.14-6.29,13.8,13.8,0,0,1,3.65-4.32,27.59,27.59,0,0,1,5.13-3.12C513.57,358.27,515.4,357.37,517.17,356.49Zm4.1,20c.07-2.25.21-4.82.43-7.73s.28-6.3.21-10.21l-.08-1.32c-.4.34-.9.73-1.5,1.18l-1.94,1.53a19.82,19.82,0,0,0-2,1.8,12,12,0,0,0-1.77,2.41,12.18,12.18,0,0,0-1.21,3.2,14.37,14.37,0,0,0-.3,4.16,15.47,15.47,0,0,0,.28,2,9,9,0,0,0,.71,2.15,5.1,5.1,0,0,0,1.32,1.71,2.9,2.9,0,0,0,2.14.62,5.59,5.59,0,0,0,2-.47A10.21,10.21,0,0,0,521.27,376.48Z"/></g></g></svg>