<svg xmlns="http://www.w3.org/2000/svg" viewBox="0 0 1047.76 1098.26"><defs><style>.cls-1{fill:#fff;}</style></defs><title>out 1</title><g id="Layer_2" data-name="Layer 2"><g id="Layer_1-2" data-name="Layer 1"><path class="cls-1" d="M704.38,109a2.54,2.54,0,0,1,1,.67,2.41,2.41,0,0,1,.52.8,1.5,1.5,0,0,1-.08,1.18,6.36,6.36,0,0,1-.71,1.28,9.79,9.79,0,0,0-.89,1.61,17.82,17.82,0,0,0-.91,2.72,32.27,32.27,0,0,0-.72,4.56l-4.43,43,26.21-34a8.44,8.44,0,0,0,1.82-3.64,11.36,11.36,0,0,0,.16-3.08,12,12,0,0,0-.47-2.45,2.44,2.44,0,0,1-.05-1.72,1.86,1.86,0,0,1,.69-.8,1.64,1.64,0,0,1,.81-.33,2.63,2.63,0,0,1,1.38.25l7.67,3.18a2.6,2.6,0,0,1,1,.68,2.33,2.33,0,0,1,.53.8,1.56,1.56,0,0,1-.09,1.18,2.14,2.14,0,0,1-1.39,1.08c-.74.26-1.63.61-2.68,1.05a24.86,24.86,0,0,0-3.38,1.74,12.45,12.45,0,0,0-3.36,3.14l-26.07,33.85a16.76,16.76,0,0,1-2.22,2.41,2,2,0,0,1-2.2.43l-7.59-3.14q-1.75-.74-1.4-5.08l4.44-43a18,18,0,0,0,0-4.56,24.77,24.77,0,0,0-.74-3.4c-.29-1-.54-1.78-.73-2.46a2.59,2.59,0,0,1,0-1.72,1.71,1.71,0,0,1,.69-.79,1.69,1.69,0,0,1,.81-.34,2.63,2.63,0,0,1,1.37.26Z"/><path class="cls-1" d="M735.36,147.6l7-1.53a9.59,9.59,0,0,1,1.86-.26,3.57,3.57,0,0,1,1.82.37,1.85,1.85,0,0,1,1,1.43,5.49,5.49,0,0,1-.85,3L734.81,173a21.08,21.08,0,0,0-1.62,4,25.28,25.28,0,0,0-.6,2.91,20.84,20.84,0,0,0-.18,2.09,3.53,3.53,0,0,1-.37,1.54,1.67,1.67,0,0,1-.64.7,2.23,2.23,0,0,1-.94.31,2.65,2.65,0,0,1-1.36-.37l-9.83-5a2.57,2.57,0,0,1-.92-.75,2.13,2.13,0,0,1-.43-.88,1.53,1.53,0,0,1,.15-1.13,3.58,3.58,0,0,1,1-1.19c.47-.36,1-.82,1.59-1.38a25.85,25.85,0,0,0,2-2.19,20.33,20.33,0,0,0,2.28-3.64l7.29-14.26a7.36,7.36,0,0,1-.36-4C732.2,148.68,733.35,148,735.36,147.6Zm17.19-21.41a7.1,7.1,0,0,1,3.71,4.41,7.5,7.5,0,0,1-.53,5.79,7.61,7.61,0,0,1-1.86,2.36,7.89,7.89,0,0,1-2.5,1.42,7,7,0,0,1-2.84.37,7.46,7.46,0,0,1-2.89-.83,7.5,7.5,0,0,1-3.29-10.16,7.61,7.61,0,0,1,1.86-2.36,7.53,7.53,0,0,1,2.54-1.4,8,8,0,0,1,2.89-.39A7,7,0,0,1,752.55,126.19Z"/><path class="cls-1" d="M743.93,176.73a3.63,3.63,0,0,1,1.71,2,7.61,7.61,0,0,1,.36,2.67,23.07,23.07,0,0,1-.34,3,25,25,0,0,0-.33,3,7.94,7.94,0,0,0,.32,2.65,3.53,3.53,0,0,0,1.67,2,4.23,4.23,0,0,0,2.1.6,5.26,5.26,0,0,0,2.09-.36,6.2,6.2,0,0,0,1.86-1.12,6.6,6.6,0,0,0,1.42-1.67,6,6,0,0,0,.71-4.25,20.67,20.67,0,0,0-1.61-4.89q-1.18-2.57-2.67-5.27a55.43,55.43,0,0,1-2.62-5.39,18.57,18.57,0,0,1-1.37-5.28,8.09,8.09,0,0,1,1.13-5,8.8,8.8,0,0,1,4.25-3.86,13.85,13.85,0,0,1,5.46-1,19.18,19.18,0,0,1,5.61.94,23.36,23.36,0,0,1,4.75,2.07,26.34,26.34,0,0,1,5.28,4,17,17,0,0,1,3.24,4.31,10.06,10.06,0,0,1,1.18,4.31,7.13,7.13,0,0,1-1,3.89,4.4,4.4,0,0,1-2.68,1.94,4.75,4.75,0,0,1-4-.64,3.63,3.63,0,0,1-1.71-2,7.36,7.36,0,0,1-.36-2.66,23,23,0,0,1,.34-3,25,25,0,0,0,.33-3,7.94,7.94,0,0,0-.32-2.65,3.53,3.53,0,0,0-1.67-2,4.23,4.23,0,0,0-2.1-.6,5.64,5.64,0,0,0-2.09.36,6.41,6.41,0,0,0-1.86,1.12,6.6,6.6,0,0,0-1.42,1.67,6.19,6.19,0,0,0-.73,4.29,20.17,20.17,0,0,0,1.6,5q1.2,2.63,2.7,5.39a52.31,52.31,0,0,1,2.63,5.53,19.6,19.6,0,0,1,1.36,5.38,8.06,8.06,0,0,1-1.13,5,8.31,8.31,0,0,1-4.24,3.77,13.5,13.5,0,0,1-5.45.84,20.33,20.33,0,0,1-5.62-1.08,26.34,26.34,0,0,1-10-6.07,16.9,16.9,0,0,1-3.28-4.33,10.06,10.06,0,0,1-1.18-4.31,7,7,0,0,1,1-3.89,4.44,4.44,0,0,1,2.67-1.94A4.77,4.77,0,0,1,743.93,176.73Z"/><path class="cls-1" d="M784.15,175l7.17-.52a5,5,0,0,1,1.73,0,3.69,3.69,0,0,1,1.6.61,2.23,2.23,0,0,1,.93,1.63,4.51,4.51,0,0,1-1.12,2.81L778.63,202c-.47.68-.93,1.34-1.35,2a8.55,8.55,0,0,0-.95,1.92,3.34,3.34,0,0,0-.13,1.78,2.36,2.36,0,0,0,1,1.46,7.37,7.37,0,0,0,4.61,1,20.4,20.4,0,0,0,6.29-1.35l10.67-15.13a7.21,7.21,0,0,1,.22-4.06c.42-.89,1.65-1.39,3.7-1.5l7.17-.53a12.13,12.13,0,0,1,1.77.08,3.38,3.38,0,0,1,1.62.58,2.12,2.12,0,0,1,.87,1.58,4.55,4.55,0,0,1-1.12,2.82l-14.54,20.62a20.77,20.77,0,0,0-2.15,3.71,24.1,24.1,0,0,0-1,2.79c-.22.8-.38,1.48-.48,2a3.57,3.57,0,0,1-.58,1.47c-.73,1-1.73,1.11-3,.22l-6.92-4.88c-1-.73-1.48-1.4-1.33-2a8.7,8.7,0,0,1,1.33-2.46l1-1.36a21.69,21.69,0,0,1-6.43.85,10.73,10.73,0,0,1-6-2.09,23.78,23.78,0,0,1-4-3.4,8.57,8.57,0,0,1-2-3.55,7.51,7.51,0,0,1,.08-4,15.73,15.73,0,0,1,2.4-4.7l10.81-15.33a7.3,7.3,0,0,1,.22-4.06C780.87,175.63,782.1,175.13,784.15,175Z"/><path class="cls-1" d="M825.21,215.91a25.88,25.88,0,0,0,2.76.59c1,.16,1.83.28,2.62.37a21.56,21.56,0,0,0,3.17-6.07q.86-2.82-.8-4.21a3.47,3.47,0,0,0-3.07-.41c-1.37.29-2.83.63-4.39,1a26.23,26.23,0,0,1-4.74.72,5.6,5.6,0,0,1-4.11-1.29,3.94,3.94,0,0,1-1.7-3.34,5.15,5.15,0,0,1,1.16-3,6,6,0,0,1,3.36-2.05,9.69,9.69,0,0,1,4.46.12,20.4,20.4,0,0,1,5.19,2.15,37.58,37.58,0,0,1,5.61,4q5.38,4.55,6.14,8.49a11.49,11.49,0,0,1-1.62,8c-.34.58-.92,1.43-1.72,2.56s-1.72,2.38-2.72,3.74-2.06,2.78-3.17,4.27-2.16,2.89-3.15,4.19-1.86,2.48-2.61,3.55a24.8,24.8,0,0,0-1.54,2.34,3.69,3.69,0,0,0-.52,1.57c0,.51-.07,1-.11,1.48s-.1.93-.17,1.37a2.93,2.93,0,0,1-.66,1.3,1.64,1.64,0,0,1-1.45.62,2.88,2.88,0,0,1-1.62-.72l-8-6.74a2.21,2.21,0,0,1-.73-1.32,3.33,3.33,0,0,1,.34-1.94,15.41,15.41,0,0,1-4.74-1,14,14,0,0,1-4.21-2.41,11,11,0,0,1-3-3.89,11.24,11.24,0,0,1-1-4.45,12.81,12.81,0,0,1,.69-4.42,11.77,11.77,0,0,1,2.17-3.86,12.32,12.32,0,0,1,5.49-4,14.49,14.49,0,0,1,6-.66,29.13,29.13,0,0,1,6.24,1.35Q822.19,215,825.21,215.91ZM813.7,234.32q2.55-2.5,6-5.63t7.65-7.72l.91-1.08c-.55,0-1.23-.09-2-.18s-1.66-.17-2.61-.25a20.16,20.16,0,0,0-2.83-.05,12.75,12.75,0,0,0-3.14.56,13,13,0,0,0-3.28,1.57,15.21,15.21,0,0,0-3.28,3,17.18,17.18,0,0,0-1.24,1.73,9.77,9.77,0,0,0-1,2.17,5.47,5.47,0,0,0-.25,2.29,3.16,3.16,0,0,0,1.21,2.05,5.71,5.71,0,0,0,1.86,1.08A10.12,10.12,0,0,0,813.7,234.32Z"/><path class="cls-1" d="M863.3,211l7.18.54a6,6,0,0,1,1.62.34,4,4,0,0,1,1.46.88,2.23,2.23,0,0,1,.71,1.71,4.16,4.16,0,0,1-1.43,2.53L841,250.32a20,20,0,0,0-2.68,3.35,22.88,22.88,0,0,0-1.41,2.62c-.34.75-.59,1.4-.78,1.95a3.41,3.41,0,0,1-.79,1.37,1.79,1.79,0,0,1-.81.49,2.1,2.1,0,0,1-1,0,2.58,2.58,0,0,1-1.19-.73l-8-7.63a2.57,2.57,0,0,1-.67-1,2.22,2.22,0,0,1-.17-1,1.52,1.52,0,0,1,.48-1,3.6,3.6,0,0,1,1.33-.86,20,20,0,0,0,1.92-.86,24,24,0,0,0,2.54-1.53A20.44,20.44,0,0,0,833,242.7l25.62-26.83a4.93,4.93,0,0,0,1.25-2,16.72,16.72,0,0,1,.55-1.65,2,2,0,0,1,.83-1.05A4,4,0,0,1,863.3,211Z"/><path class="cls-1" d="M860.43,270.09l25.37-21.16a20.12,20.12,0,0,0,3-3,23.71,23.71,0,0,0,1.7-2.44c.41-.7.74-1.32,1-1.85a3.54,3.54,0,0,1,.94-1.27c1-.82,2-.63,2.95.56l8.93,10.71a28.26,28.26,0,0,1,5.08,8.74,21,21,0,0,1,1,9.52,25.07,25.07,0,0,1-3.64,9.95,41,41,0,0,1-9,10,38.5,38.5,0,0,1-11,6.72,24.33,24.33,0,0,1-10.25,1.63,21.32,21.32,0,0,1-9.12-2.77,28.45,28.45,0,0,1-7.69-6.56l-8.93-10.71a2.67,2.67,0,0,1-.55-1.05,2.23,2.23,0,0,1-.06-1,1.56,1.56,0,0,1,.59-1,3.63,3.63,0,0,1,1.42-.69c.56-.15,1.23-.36,2-.65a24.13,24.13,0,0,0,2.71-1.22A21.31,21.31,0,0,0,860.43,270.09Zm.4,15.77,1,1.21a7.72,7.72,0,0,0,3.3,1.95,14.34,14.34,0,0,0,6,.54,28.17,28.17,0,0,0,8.4-2.36A43.66,43.66,0,0,0,890,280.43a46.3,46.3,0,0,0,8.9-9.42,29.82,29.82,0,0,0,4-8.07,14.77,14.77,0,0,0,.61-6.07,7.48,7.48,0,0,0-1.25-3.51l-1-1.21c-.5-.59-1.45-.33-2.87.77s-3.25,2.61-5.5,4.49L867.5,278.56q-3.37,2.82-5.4,4.61C860.75,284.37,860.33,285.26,860.83,285.86Z"/><path class="cls-1" d="M894.14,297q8-5.58,15.4-4.67t12.6,8.49a22.64,22.64,0,0,1,2.61,5,15.22,15.22,0,0,1,1,5.37,11.48,11.48,0,0,1-5.34,9.71,9.17,9.17,0,0,1-4.72,1.86,8.06,8.06,0,0,1-4.13-.87,13.17,13.17,0,0,1-3.65-2.77,34.85,34.85,0,0,1-3.21-4l-5-7.16a39.18,39.18,0,0,0-6.36,5.32,22.4,22.4,0,0,0-3.51,4.7,9.23,9.23,0,0,0-1.16,3.79,4.16,4.16,0,0,0,.56,2.54,4.72,4.72,0,0,0,2,1.65,9.77,9.77,0,0,0,2.74.73,13.64,13.64,0,0,0,3.13,0,19.12,19.12,0,0,0,3.08-.58,3.67,3.67,0,0,1,2.47.06,3.75,3.75,0,0,1,1.59,1.27,3.56,3.56,0,0,1,.53,2.81,2.8,2.8,0,0,1-2.15,2.15,10,10,0,0,1-3.28.36,14.54,14.54,0,0,1-4.13-.78,18.2,18.2,0,0,1-4.34-2.18,14.82,14.82,0,0,1-3.88-3.93,19,19,0,0,1-3.36-8,17.86,17.86,0,0,1,.49-7.81,21.52,21.52,0,0,1,3.67-7.15A28.19,28.19,0,0,1,894.14,297Zm7.89,9.48,3,4.37a4,4,0,0,0,1.91,1.6,4.91,4.91,0,0,0,2.23.22,7.51,7.51,0,0,0,2.33-.71,16.2,16.2,0,0,0,2.2-1.27,33.4,33.4,0,0,0,2.77-2.13,16.65,16.65,0,0,0,2.26-2.27,7.5,7.5,0,0,0,1.29-2.15,1.86,1.86,0,0,0-.16-1.76,3.18,3.18,0,0,0-2-1.06,10.67,10.67,0,0,0-3.86.11,28,28,0,0,0-5.36,1.59A39.58,39.58,0,0,0,902,306.44Z"/><path class="cls-1" d="M911.08,336.46a3.64,3.64,0,0,1,.5,2.59,7.51,7.51,0,0,1-1,2.5,24.8,24.8,0,0,1-1.78,2.48A24.72,24.72,0,0,0,907,346.5a7.86,7.86,0,0,0-1,2.46,3.51,3.51,0,0,0,.48,2.56,4.24,4.24,0,0,0,1.53,1.56,5.84,5.84,0,0,0,2,.71,6.78,6.78,0,0,0,4.22-.83,6,6,0,0,0,2.71-3.35,21.11,21.11,0,0,0,1-5.05q.22-2.82.25-5.91a55,55,0,0,1,.37-6A17.84,17.84,0,0,1,920,327.4a8,8,0,0,1,3.42-3.77,8.77,8.77,0,0,1,5.59-1.29,13.73,13.73,0,0,1,5.27,1.78,19,19,0,0,1,4.43,3.57,23.83,23.83,0,0,1,3.12,4.13,26.08,26.08,0,0,1,2.66,6.05,17.1,17.1,0,0,1,.71,5.34,10.17,10.17,0,0,1-1.08,4.33,7.07,7.07,0,0,1-2.77,2.91,4.46,4.46,0,0,1-3.29.38,4.81,4.81,0,0,1-3.13-2.5,3.64,3.64,0,0,1-.5-2.59,7.6,7.6,0,0,1,1-2.5,24.72,24.72,0,0,1,1.78-2.47,23.13,23.13,0,0,0,1.77-2.48,7.66,7.66,0,0,0,1-2.46,3.52,3.52,0,0,0-.48-2.56,4.14,4.14,0,0,0-1.53-1.55,5.46,5.46,0,0,0-2-.71,6.12,6.12,0,0,0-2.17.06,6.63,6.63,0,0,0-2,.76,6.23,6.23,0,0,0-2.75,3.38,20.77,20.77,0,0,0-1.05,5.12q-.24,2.88-.28,6a52.77,52.77,0,0,1-.43,6.11,19.62,19.62,0,0,1-1.44,5.35,8.07,8.07,0,0,1-3.43,3.77,8.28,8.28,0,0,1-5.54,1.21,13.52,13.52,0,0,1-5.16-1.94,20.19,20.19,0,0,1-4.36-3.7,26.31,26.31,0,0,1-3.12-4.19,27,27,0,0,1-2.63-6,16.93,16.93,0,0,1-.73-5.38,10.21,10.21,0,0,1,1.08-4.33,7.13,7.13,0,0,1,2.77-2.91A4.5,4.5,0,0,1,908,334,4.81,4.81,0,0,1,911.08,336.46Z"/><path class="cls-1" d="M946.41,354.56l6.59,2.9a9.15,9.15,0,0,1,1.65.88,3.65,3.65,0,0,1,1.26,1.37,1.88,1.88,0,0,1,0,1.74,5.43,5.43,0,0,1-2.46,1.95L931,374.72a20.48,20.48,0,0,0-3.65,2.27,23,23,0,0,0-2.19,2,20.43,20.43,0,0,0-1.39,1.58,3.52,3.52,0,0,1-1.2,1,1.75,1.75,0,0,1-.93.19,2.13,2.13,0,0,1-.94-.31,2.54,2.54,0,0,1-.88-1.09l-5-9.85a2.56,2.56,0,0,1-.3-1.15,2,2,0,0,1,.16-1,1.57,1.57,0,0,1,.79-.82,3.75,3.75,0,0,1,1.54-.36,18.58,18.58,0,0,0,2.1-.18,22,22,0,0,0,2.91-.59,20.71,20.71,0,0,0,4-1.59l14.29-7.24a7.26,7.26,0,0,1,2.1-3.48C943.23,353.57,944.55,353.71,946.41,354.56Zm26.51-7.19a7.09,7.09,0,0,1,.4,5.75,7.79,7.79,0,0,1-6.73,5.18,7.8,7.8,0,0,1-2.86-.32,7,7,0,0,1-2.51-1.38,7.44,7.44,0,0,1-1.85-2.36,7.52,7.52,0,0,1,3.32-10.16,7.61,7.61,0,0,1,2.89-.81,7.37,7.37,0,0,1,2.88.36A8.13,8.13,0,0,1,971,345,7.16,7.16,0,0,1,972.92,347.37Z"/><path class="cls-1" d="M915.09,389.21a4,4,0,0,1,.3,2.53,7.59,7.59,0,0,1-1,2.27c-.47.74-1,1.48-1.54,2.23a14.23,14.23,0,0,0-1.45,2.42,7.51,7.51,0,0,0-.7,2.91,8.4,8.4,0,0,0,.79,3.67,14.59,14.59,0,0,0,3.09,4.83,10.79,10.79,0,0,0,3.68,2.4,8.66,8.66,0,0,0,3.83.54,11.88,11.88,0,0,0,3.52-.86,6.42,6.42,0,0,0,3.21-2.72,9.24,9.24,0,0,0,1.09-4.25,22.56,22.56,0,0,0-.61-5.56q-.68-3.09-1.76-6.69-1.27-4.06.15-6.24a4.72,4.72,0,0,1,4.32-2.15c1.33,0,2.39.08,3.17.14s1.31.09,1.61.08a13.84,13.84,0,0,1,2.57-6.27,15.27,15.27,0,0,1,6.68-4.87,15.83,15.83,0,0,1,7.49-1.47,14.46,14.46,0,0,1,6,1.81,16.84,16.84,0,0,1,4.65,3.93,26.13,26.13,0,0,1,3.22,4.95l2.38-.25a14,14,0,0,1,4.11.24,12.46,12.46,0,0,1,4.51,1.92,10.06,10.06,0,0,1,3.62,4.69,16.44,16.44,0,0,1,1,3.53,13.86,13.86,0,0,1,.12,4,9.77,9.77,0,0,1-1.16,3.65,5.63,5.63,0,0,1-2.83,2.46,4.46,4.46,0,0,1-3.31,0,4.77,4.77,0,0,1-2.79-2.87,4,4,0,0,1-.33-2.47,5,5,0,0,1,1-2,10.77,10.77,0,0,1,1.61-1.63,20.28,20.28,0,0,0,1.65-1.51,5.55,5.55,0,0,0,1.12-1.6,2.34,2.34,0,0,0-.08-1.91,5.39,5.39,0,0,0-2.15-2.6,7.88,7.88,0,0,0-2.85-1.09,12,12,0,0,0-2.68-.17,11.44,11.44,0,0,0-1.73.19,28.34,28.34,0,0,1,1.57,5.92,17.71,17.71,0,0,1-.14,6.37,14.55,14.55,0,0,1-2.78,6,15.75,15.75,0,0,1-6.5,4.66,15.54,15.54,0,0,1-8,1.41,13.71,13.71,0,0,1-6.29-2.38,18.64,18.64,0,0,1-4.62-4.71,32.11,32.11,0,0,1-3-5.47,31.5,31.5,0,0,1-1.49-4.46,23.27,23.27,0,0,1-.71-5c-.55,0-1.14,0-1.79,0s-1.26.09-1.83.15-.59.46-.41,1.16a23.58,23.58,0,0,0,1.11,3.05c.37.86.78,1.8,1.24,2.81s.95,2.12,1.47,3.34a36.51,36.51,0,0,1,3,10.36,18.67,18.67,0,0,1-.48,7.15,9.92,9.92,0,0,1-2.68,4.52,13.3,13.3,0,0,1-3.71,2.43,10.93,10.93,0,0,1-5.91.93,14.51,14.51,0,0,1-5.23-1.79,19.78,19.78,0,0,1-4.48-3.55,40.35,40.35,0,0,1-3.63-4.41,40.8,40.8,0,0,1-2.69-4.32c-.73-1.37-1.27-2.46-1.62-3.28q-3.5-8.25-3.71-13.3c-.14-3.37,1.09-5.6,3.69-6.71a4.51,4.51,0,0,1,3.31,0A4.84,4.84,0,0,1,915.09,389.21Zm35.75-4.36a29,29,0,0,0-6,3.27,12.34,12.34,0,0,0-3,3.09,5,5,0,0,0-.87,2.72,5.85,5.85,0,0,0,.42,2.16,6.07,6.07,0,0,0,1.26,1.81,5,5,0,0,0,2.57,1.25,12.16,12.16,0,0,0,4.31,0,28.77,28.77,0,0,0,6.53-2.05,29.08,29.08,0,0,0,6-3.29,13.35,13.35,0,0,0,3.13-3.14,5.11,5.11,0,0,0,1-2.76,5.38,5.38,0,0,0-.38-2.18,5.61,5.61,0,0,0-1.3-1.79,5.14,5.14,0,0,0-2.68-1.21,13.33,13.33,0,0,0-4.43.08A28.44,28.44,0,0,0,950.84,384.85Z"/><path class="cls-1" d="M972.79,413.26l6,3.92a5.85,5.85,0,0,1,1.26,1.08,4.09,4.09,0,0,1,.86,1.47,2.28,2.28,0,0,1-.2,1.85,4.23,4.23,0,0,1-2.48,1.52l-1.66.53a21.26,21.26,0,0,1,5.64,3.22,10.69,10.69,0,0,1,3.51,5.28,11.14,11.14,0,0,1-.25,7.57,11.4,11.4,0,0,1-5.64,6c-.6.31-1.54.72-2.83,1.25l-4.29,1.71c-1.57.62-3.23,1.26-5,1.92s-3.37,1.29-4.9,1.86-2.9,1.11-4.1,1.61a25.68,25.68,0,0,0-2.55,1.16,3.68,3.68,0,0,0-1.28,1.06l-.88,1.19c-.29.38-.58.74-.88,1.07a2.89,2.89,0,0,1-1.25.74,1.61,1.61,0,0,1-1.55-.25,2.84,2.84,0,0,1-1-1.47l-3.17-10a2.45,2.45,0,0,1,.37-2.12,4.92,4.92,0,0,1,2.94-1.71,85.06,85.06,0,0,1,8.58-1.77,107.53,107.53,0,0,0,11.7-2.67q2.79-.79,5.06-1.47a17.79,17.79,0,0,0,3.73-1.54,5.42,5.42,0,0,0,2.11-2,3.52,3.52,0,0,0,.1-2.82,7.38,7.38,0,0,0-3.06-3.6,20.75,20.75,0,0,0-5.82-2.72l-17.88,5.68a20.2,20.2,0,0,0-4,1.65,22.61,22.61,0,0,0-2.49,1.62A17.5,17.5,0,0,0,946,435.4a3.67,3.67,0,0,1-1.36.82,1.77,1.77,0,0,1-.94,0,2.3,2.3,0,0,1-.89-.46,2.7,2.7,0,0,1-.69-1.22l-3.34-10.52c-.47-1.48-.1-2.41,1.12-2.79a3.53,3.53,0,0,1,1.57-.11c.58.08,1.28.13,2.1.16a23.19,23.19,0,0,0,3-.12,19.93,19.93,0,0,0,4.19-.93l15.58-4.95a4.92,4.92,0,0,0,2-1.13c.46-.46.89-.86,1.28-1.19a2,2,0,0,1,1.22-.52A4,4,0,0,1,972.79,413.26Z"/><path class="cls-1" d="M983.64,497.54l-5.3,1-3.8-20.14,5.3-1Z"/><path class="cls-1" d="M975.07,526.23l33-2.14a20.41,20.41,0,0,0,4.24-.65,24.91,24.91,0,0,0,2.81-1c.76-.33,1.39-.63,1.9-.91a3.56,3.56,0,0,1,1.5-.48c1.27-.08,2,.65,2.06,2.2l.9,13.91a28.25,28.25,0,0,1-1.05,10,20.83,20.83,0,0,1-4.78,8.3,25.08,25.08,0,0,1-8.81,5.89,41,41,0,0,1-13.13,2.77,38.26,38.26,0,0,1-12.88-1.08,24.45,24.45,0,0,1-9.25-4.72,21.31,21.31,0,0,1-5.73-7.61,28.48,28.48,0,0,1-2.35-9.83l-.9-13.92a2.58,2.58,0,0,1,.17-1.17,2.24,2.24,0,0,1,.53-.83,1.59,1.59,0,0,1,1.06-.44,3.66,3.66,0,0,1,1.55.27,18.75,18.75,0,0,0,2,.66,22.24,22.24,0,0,0,2.91.6A20.13,20.13,0,0,0,975.07,526.23Zm-9,13,.1,1.57a7.6,7.6,0,0,0,1.52,3.52,14.1,14.1,0,0,0,4.54,4,28.35,28.35,0,0,0,8.18,3,43.6,43.6,0,0,0,12.44.69,45.82,45.82,0,0,0,12.74-2.36,29.61,29.61,0,0,0,8-4.18,14.56,14.56,0,0,0,4.07-4.55,7.43,7.43,0,0,0,1.06-3.56l-.1-1.57c-.05-.78-1-1.13-2.77-1.07s-4.17.19-7.09.38l-33,2.14q-4.38.29-7.07.54C966.92,538,966.05,538.43,966.1,539.21Z"/><path class="cls-1" d="M1000.13,570.32l4.48,5.64a9.13,9.13,0,0,1,1,1.55,3.58,3.58,0,0,1,.47,1.79,1.85,1.85,0,0,1-.86,1.52,5.39,5.39,0,0,1-3.08.58L977.13,581a20.37,20.37,0,0,0-4.28.3A22.67,22.67,0,0,0,970,582a20.63,20.63,0,0,0-2,.75,3.54,3.54,0,0,1-1.54.35,1.72,1.72,0,0,1-.91-.26,2.17,2.17,0,0,1-.69-.72,2.58,2.58,0,0,1-.27-1.37l.18-11a2.64,2.64,0,0,1,.27-1.16,2.18,2.18,0,0,1,.59-.78,1.55,1.55,0,0,1,1.08-.35,3.54,3.54,0,0,1,1.53.39c.52.26,1.17.53,1.94.82a24.17,24.17,0,0,0,2.85.84,20.39,20.39,0,0,0,4.27.44l16,.26a7.24,7.24,0,0,1,3.48-2.1C997.78,568,998.88,568.7,1000.13,570.32Zm26.8,6a7,7,0,0,1-2.33,5.27,7.43,7.43,0,0,1-5.43,2.07,7.32,7.32,0,0,1-2.93-.62,8.09,8.09,0,0,1-2.38-1.62,6.93,6.93,0,0,1-1.58-2.39,7.49,7.49,0,0,1-.54-3,7.51,7.51,0,0,1,7.68-7.43,7.47,7.47,0,0,1,5.31,2.29,8.1,8.1,0,0,1,1.63,2.43A7.17,7.17,0,0,1,1026.93,576.32Z"/><path class="cls-1" d="M956.41,586.71a4,4,0,0,1-.87,2.39,7.62,7.62,0,0,1-1.9,1.58q-1.12.68-2.37,1.29a13.65,13.65,0,0,0-2.39,1.5,7.67,7.67,0,0,0-2,2.28,8.65,8.65,0,0,0-1,3.64,14.58,14.58,0,0,0,.57,5.69,10.55,10.55,0,0,0,2.19,3.81,8.58,8.58,0,0,0,3.18,2.22,11.74,11.74,0,0,0,3.52.82,6.36,6.36,0,0,0,4.1-1,9,9,0,0,0,2.89-3.29,23.06,23.06,0,0,0,2-5.23c.53-2.05,1-4.3,1.46-6.77.47-2.79,1.46-4.63,3-5.49a4.71,4.71,0,0,1,4.82,0q1.77.94,2.76,1.56c.67.41,1.14.67,1.4.8a14.08,14.08,0,0,1,5.13-4.43,15.35,15.35,0,0,1,8.16-1.31,15.9,15.9,0,0,1,7.35,2.08,14.67,14.67,0,0,1,4.57,4.35,16.58,16.58,0,0,1,2.36,5.61,27,27,0,0,1,.64,5.87l2.22.86a14,14,0,0,1,3.57,2.07,12.77,12.77,0,0,1,3.15,3.75,10.14,10.14,0,0,1,1.1,5.82,16.39,16.39,0,0,1-.71,3.61,13.4,13.4,0,0,1-1.7,3.63,10,10,0,0,1-2.68,2.73,5.67,5.67,0,0,1-3.65.91,4.47,4.47,0,0,1-2.93-1.53,4.81,4.81,0,0,1-1.19-3.82,4,4,0,0,1,.83-2.36,5,5,0,0,1,1.75-1.34,11.28,11.28,0,0,1,2.17-.72,22.1,22.1,0,0,0,2.17-.6,5.52,5.52,0,0,0,1.72-.92,2.38,2.38,0,0,0,.79-1.74,5.45,5.45,0,0,0-.73-3.29,8,8,0,0,0-2-2.26,11.9,11.9,0,0,0-2.32-1.37,12.08,12.08,0,0,0-1.62-.61,28.3,28.3,0,0,1-1.29,6,17.81,17.81,0,0,1-3,5.62,14.54,14.54,0,0,1-5.19,4.06,18.28,18.28,0,0,1-15.69-1.16,13.88,13.88,0,0,1-4.52-5,18.57,18.57,0,0,1-2-6.29,32.11,32.11,0,0,1-.24-6.26,30.77,30.77,0,0,1,.69-4.65,23.68,23.68,0,0,1,1.62-4.76c-.48-.25-1-.51-1.61-.77s-1.16-.5-1.7-.7-.73.14-.89.85a23.18,23.18,0,0,0-.39,3.22c-.06.94-.12,2-.17,3.07s-.12,2.32-.21,3.64a36.46,36.46,0,0,1-2,10.6,18.74,18.74,0,0,1-3.67,6.15,9.74,9.74,0,0,1-4.43,2.82,13.23,13.23,0,0,1-4.41.48,11,11,0,0,1-5.69-1.84,14.55,14.55,0,0,1-3.85-4,19.68,19.68,0,0,1-2.39-5.19,41,41,0,0,1-1.24-5.58,41.76,41.76,0,0,1-.44-5.06c0-1.56,0-2.78,0-3.66q.62-8.94,2.72-13.54c1.4-3.07,3.51-4.5,6.33-4.31a4.45,4.45,0,0,1,2.93,1.53A4.83,4.83,0,0,1,956.41,586.71ZM990.26,599a28.05,28.05,0,0,0-6.84.2,12.11,12.11,0,0,0-4.08,1.38,4.87,4.87,0,0,0-2,2,6,6,0,0,0-.61,2.12,6,6,0,0,0,.31,2.18,4.87,4.87,0,0,0,1.72,2.28,12.12,12.12,0,0,0,3.86,1.93,28,28,0,0,0,6.74,1.13,29,29,0,0,0,6.88-.19,13.73,13.73,0,0,0,4.21-1.38,5.19,5.19,0,0,0,2.14-2,5.62,5.62,0,0,0,.64-2.12,5.36,5.36,0,0,0-.35-2.18,5.14,5.14,0,0,0-1.84-2.29,13.53,13.53,0,0,0-4-1.94A28.6,28.6,0,0,0,990.26,599Z"/><path class="cls-1" d="M996.43,633.6l3.77,6.12a9,9,0,0,1,.86,1.67,3.49,3.49,0,0,1,.26,1.84,1.88,1.88,0,0,1-1,1.41,5.51,5.51,0,0,1-3.13.2l-24.84-3.38a20,20,0,0,0-4.28-.2,23.43,23.43,0,0,0-2.95.39c-.8.17-1.48.35-2,.52a3.66,3.66,0,0,1-1.58.17,1.83,1.83,0,0,1-.87-.37,2.22,2.22,0,0,1-.6-.8,2.51,2.51,0,0,1-.1-1.39l1.48-10.94a2.59,2.59,0,0,1,.41-1.12,2,2,0,0,1,.68-.7,1.55,1.55,0,0,1,1.12-.23,3.62,3.62,0,0,1,1.47.58,20.21,20.21,0,0,0,1.82,1,24.7,24.7,0,0,0,2.74,1.17,20.89,20.89,0,0,0,4.18.95l15.87,2.15a7.32,7.32,0,0,1,3.71-1.67C994.37,631,995.38,631.84,996.43,633.6Zm25.9,9.13a7.1,7.1,0,0,1-2.94,5,7.76,7.76,0,0,1-8.48.44,7.86,7.86,0,0,1-2.17-1.88,7,7,0,0,1-1.29-2.57,7.55,7.55,0,0,1,8.33-9.46,7.37,7.37,0,0,1,2.84,1,7.71,7.71,0,0,1,2.17,1.93,8.24,8.24,0,0,1,1.32,2.61A7.18,7.18,0,0,1,1022.33,642.73Z"/><path class="cls-1" d="M1000.14,652.21l-1.1,5.7,3.92.75a7.28,7.28,0,0,1,3.79-1.47c1,0,1.94.94,2.89,2.76l3.43,6.32a5.56,5.56,0,0,1,.59,1.55,4.09,4.09,0,0,1,.06,1.7,2.28,2.28,0,0,1-1.06,1.53,4.16,4.16,0,0,1-2.9.16L997,668.75l-1.09,5.71a1.31,1.31,0,0,1-.62,1,1.49,1.49,0,0,1-1,.14,1.43,1.43,0,0,1-.87-.5,1.29,1.29,0,0,1-.2-1.14l1.09-5.7-20.62-4c-.87-.17-2.12-.4-3.76-.68s-3.27-.5-4.9-.65a26.78,26.78,0,0,0-4.34-.07c-1.26.09-1.95.44-2.06,1-.21,1.09.33,1.89,1.61,2.42a41,41,0,0,0,4.72,1.58,3.48,3.48,0,0,1,2.22,1.66,3.59,3.59,0,0,1-1.11,4.68,3.4,3.4,0,0,1-3.08.39,8.07,8.07,0,0,1-2.69-1.37,10.68,10.68,0,0,1-2.53-2.68,11.28,11.28,0,0,1-1.64-4,13.28,13.28,0,0,1,0-5.36,12.72,12.72,0,0,1,1.88-4.92,9.09,9.09,0,0,1,6.68-4,23.09,23.09,0,0,1,4-.08,25.62,25.62,0,0,1,3.83.53c1.22.26,2.29.48,3.21.65l20.62,4,1.1-5.7a1.29,1.29,0,0,1,.61-1,1.45,1.45,0,0,1,1-.15,1.5,1.5,0,0,1,.87.51A1.32,1.32,0,0,1,1000.14,652.21Z"/><path class="cls-1" d="M975.54,698.47a26.49,26.49,0,0,0,.62,2.76c.26.93.51,1.77.76,2.53a21.86,21.86,0,0,0,6.84.34q2.91-.4,3.48-2.49a3.49,3.49,0,0,0-.9-3c-.84-1.12-1.77-2.31-2.77-3.56a25.85,25.85,0,0,1-2.64-4,5.64,5.64,0,0,1-.55-4.28,4,4,0,0,1,2.32-2.94,5.14,5.14,0,0,1,3.2-.19,6.07,6.07,0,0,1,3.27,2.19,9.65,9.65,0,0,1,1.75,4.1,20.33,20.33,0,0,1,.22,5.61,37.66,37.66,0,0,1-1.26,6.76q-1.87,6.79-5.14,9.13a11.47,11.47,0,0,1-8,1.89c-.67-.07-1.68-.23-3-.49s-2.87-.56-4.53-.91L964,710.87l-5.11-1.1c-1.6-.36-3-.65-4.32-.89s-2.21-.38-2.77-.42a3.65,3.65,0,0,0-1.65.19l-1.39.52a11.73,11.73,0,0,1-1.32.41,2.78,2.78,0,0,1-1.45-.05,1.63,1.63,0,0,1-1.17-1.06,3,3,0,0,1,0-1.77l2.78-10.08a2.18,2.18,0,0,1,.9-1.22,3.27,3.27,0,0,1,1.9-.51,15.54,15.54,0,0,1-1.07-4.72,14.45,14.45,0,0,1,.43-4.84A11,11,0,0,1,952,681a11.25,11.25,0,0,1,3.61-2.8,13.09,13.09,0,0,1,4.3-1.22,11.73,11.73,0,0,1,4.42.36,12.3,12.3,0,0,1,5.93,3.31,14.33,14.33,0,0,1,3.1,5.16,28.78,28.78,0,0,1,1.38,6.23Q975.11,695.34,975.54,698.47ZM954,695.73q3.35,1.26,7.62,3.09t10.22,3.71l1.36.38c-.21-.52-.43-1.15-.68-1.91s-.54-1.58-.87-2.48a20.14,20.14,0,0,0-1.14-2.59,12.3,12.3,0,0,0-1.82-2.61,12.91,12.91,0,0,0-2.8-2.32,15,15,0,0,0-4.09-1.73,13.75,13.75,0,0,0-2.08-.4,9.26,9.26,0,0,0-2.41,0,5.37,5.37,0,0,0-2.18.73,3.11,3.11,0,0,0-1.36,1.95,5.91,5.91,0,0,0-.2,2.14A10.22,10.22,0,0,0,954,695.73Z"/><path class="cls-1" d="M996,731l2.51,6.75a5.52,5.52,0,0,1,.36,1.61,3.92,3.92,0,0,1-.18,1.69,2.27,2.27,0,0,1-1.26,1.37,4.2,4.2,0,0,1-2.9-.25l-43.64-15a20.63,20.63,0,0,0-4.16-1,22.81,22.81,0,0,0-3-.19c-.82,0-1.52,0-2.1.11a3.37,3.37,0,0,1-1.57-.15,1.58,1.58,0,0,1-.78-.53,2.11,2.11,0,0,1-.44-.9,2.47,2.47,0,0,1,.17-1.38l3.59-10.44a2.69,2.69,0,0,1,.61-1,2.24,2.24,0,0,1,.81-.56,1.6,1.6,0,0,1,1.14,0,3.58,3.58,0,0,1,1.33.85q.63.62,1.59,1.38a22.16,22.16,0,0,0,2.45,1.68,20.18,20.18,0,0,0,3.92,1.75l35.08,12.07a5,5,0,0,0,2.31.31c.65-.1,1.23-.17,1.74-.2a2,2,0,0,1,1.29.32A4,4,0,0,1,996,731Z"/><path class="cls-1" d="M932.68,746.39a2.35,2.35,0,0,1,1.05,1.44c.25.74.58,1.62,1,2.64a34.43,34.43,0,0,0,1.56,3.44,14.75,14.75,0,0,0,2.76,3.71l27.51,28.58,1.12.17a4.62,4.62,0,0,0,1.69,0l1.46-.25a8.07,8.07,0,0,1,1.36-.12,3.07,3.07,0,0,1,1.39.35,1.63,1.63,0,0,1,1,1.26,2.88,2.88,0,0,1-.3,1.74l-3.31,6.79a1.58,1.58,0,0,1-1.72.87c-.83-.07-1.92-.18-3.25-.34l-43.08-6a26.09,26.09,0,0,0-4.4-.35c-1.28,0-2.38.07-3.31.14l-2.33.16a3.29,3.29,0,0,1-1.62-.29,1.65,1.65,0,0,1-.71-.62,2.11,2.11,0,0,1-.33-.94,2.65,2.65,0,0,1,.34-1.36l4.85-9.92c.68-1.39,1.59-1.81,2.73-1.25a5.43,5.43,0,0,1,1.31.91,12.6,12.6,0,0,0,1.61,1.25,13.64,13.64,0,0,0,2.55,1.29,19.82,19.82,0,0,0,4.15,1.06l7.73,1.19a3.73,3.73,0,0,0,1.67,0,2.14,2.14,0,0,0,1.29-1.31l5.87-12a1.51,1.51,0,0,0,0-1.43,5.06,5.06,0,0,0-.92-1.24l-5.62-5.7a8.19,8.19,0,0,0-3.44-2.14,9.75,9.75,0,0,0-3-.38,14.42,14.42,0,0,0-2.46.32A2.68,2.68,0,0,1,927,758a1.83,1.83,0,0,1-.72-.63,2.23,2.23,0,0,1-.32-.94,2.57,2.57,0,0,1,.34-1.36l3.64-7.46C930.62,746.25,931.53,745.83,932.68,746.39Zm13.7,24.15-5.28,10.81c-.27.55-.22.93.14,1.13a2.47,2.47,0,0,0,1,.35l19.88,2.78-14.36-15.05a1.42,1.42,0,0,0-.76-.42A.58.58,0,0,0,946.38,770.54Z"/><path class="cls-1" d="M936.9,825.2a12.23,12.23,0,0,1-3.5,3.69,16.17,16.17,0,0,1-4.7,2.17l9.53,5.88a7.36,7.36,0,0,1,4.07,0c.91.36,1.48,1.56,1.72,3.6l1,7.13a6.57,6.57,0,0,1,0,1.66,4.12,4.12,0,0,1-.56,1.61A2.28,2.28,0,0,1,942.9,852a4.15,4.15,0,0,1-2.77-.88l-39.27-24.24a20.44,20.44,0,0,0-3.83-1.93,24.78,24.78,0,0,0-2.85-.83c-.81-.18-1.5-.29-2.08-.36a3.41,3.41,0,0,1-1.5-.49c-1.08-.66-1.22-1.66-.4-3l4.44-7.2q.92-1.48,1.77-1.44a5.14,5.14,0,0,1,2.27.91,14.94,14.94,0,0,1-.24-5.22,12.36,12.36,0,0,1,6.61-9.29,18.28,18.28,0,0,1,6.81-1.94,23.81,23.81,0,0,1,7.71.62,25.89,25.89,0,0,1,7.67,3.22,25.62,25.62,0,0,1,6.24,5.37,23.51,23.51,0,0,1,4,6.62,17.59,17.59,0,0,1,1.28,6.93A12.55,12.55,0,0,1,936.9,825.2Zm-16.07-14.9a54.62,54.62,0,0,0-5.08-2.75,25.21,25.21,0,0,0-5.33-1.87,11.92,11.92,0,0,0-4.72-.18,4.75,4.75,0,0,0-3.32,2.29,5.93,5.93,0,0,0-.86,3.22,10.32,10.32,0,0,0,.76,3.74l22.81,14.08a11,11,0,0,0,3.62-1,6,6,0,0,0,2.49-2.22,4.75,4.75,0,0,0,.56-4,12,12,0,0,0-2.24-4.12,24.2,24.2,0,0,0-4-3.88A53.79,53.79,0,0,0,920.83,810.3Z"/><path class="cls-1" d="M912.8,859.74a2.54,2.54,0,0,1-.9.78,2.39,2.39,0,0,1-.9.3,1.52,1.52,0,0,1-1.12-.38,6.3,6.3,0,0,1-1.06-1,9.21,9.21,0,0,0-1.33-1.27,16.92,16.92,0,0,0-2.41-1.56,31,31,0,0,0-4.23-1.85l-24.35-8.94,15.74,20.33a8.63,8.63,0,0,0,3.07,2.69,12.12,12.12,0,0,0,3,.92,11.63,11.63,0,0,0,2.48.16,2.51,2.51,0,0,1,1.68.39,1.82,1.82,0,0,1,.59.86,1.78,1.78,0,0,1,.13.88,2.58,2.58,0,0,1-.6,1.26l-5,6.62a2.51,2.51,0,0,1-.9.78,2.33,2.33,0,0,1-.91.3,1.51,1.51,0,0,1-1.12-.37,2.19,2.19,0,0,1-.7-1.63c-.07-.78-.18-1.73-.34-2.85a23.5,23.5,0,0,0-.84-3.71,12.45,12.45,0,0,0-2.19-4.05l-15.66-20.16a16.86,16.86,0,0,1-1.77-2.75,2,2,0,0,1,.13-2.24l5-6.55q1.15-1.53,5.26-.08l24.35,8.94a18.19,18.19,0,0,0,4.42,1.11,27.55,27.55,0,0,0,3.49.14c1,0,1.86-.08,2.56-.09a2.56,2.56,0,0,1,1.66.42,1.77,1.77,0,0,1,.6.86,1.66,1.66,0,0,1,.12.88,2.58,2.58,0,0,1-.6,1.26Z"/><path class="cls-1" d="M879.66,870.11q7.29,6.54,8.1,13.9t-5.34,14.22a22.58,22.58,0,0,1-4.27,3.7,15.07,15.07,0,0,1-5,2.21,11.79,11.79,0,0,1-5.35,0,12,12,0,0,1-5.33-2.94,9.23,9.23,0,0,1-2.9-4.17,8.17,8.17,0,0,1-.12-4.22,13.45,13.45,0,0,1,1.86-4.19,34.92,34.92,0,0,1,3.13-4l5.82-6.49a39.52,39.52,0,0,0-6.64-5,21.93,21.93,0,0,0-5.39-2.33,9.19,9.19,0,0,0-4-.25,4.18,4.18,0,0,0-2.35,1.12A4.78,4.78,0,0,0,850.8,874a9.77,9.77,0,0,0-.08,2.82,13.5,13.5,0,0,0,.73,3,18.84,18.84,0,0,0,1.27,2.87,3.59,3.59,0,0,1,.51,2.41,3.76,3.76,0,0,1-.87,1.84,3.53,3.53,0,0,1-2.61,1.17,2.77,2.77,0,0,1-2.58-1.59,9.93,9.93,0,0,1-1.11-3.12,14,14,0,0,1-.2-4.19,18.08,18.08,0,0,1,1.12-4.73,15,15,0,0,1,2.92-4.69,19.13,19.13,0,0,1,7-5.11,18,18,0,0,1,7.72-1.33,21.81,21.81,0,0,1,7.8,1.93A28.4,28.4,0,0,1,879.66,870.11Zm-7.4,9.87-3.55,3.95a4,4,0,0,0-1.11,2.23,4.84,4.84,0,0,0,.29,2.22,7.78,7.78,0,0,0,1.24,2.11,14.52,14.52,0,0,0,1.74,1.84c.87.78,1.77,1.51,2.71,2.21a17.16,17.16,0,0,0,2.73,1.67,7.47,7.47,0,0,0,2.39.75,1.83,1.83,0,0,0,1.68-.56,3.08,3.08,0,0,0,.55-2.23,10.74,10.74,0,0,0-1-3.74,28.79,28.79,0,0,0-2.79-4.84A39.23,39.23,0,0,0,872.26,880Z"/><path class="cls-1" d="M862.46,910l-.91,7.13a5.45,5.45,0,0,1-.43,1.61,3.9,3.9,0,0,1-1,1.41,2.26,2.26,0,0,1-1.75.62,4.21,4.21,0,0,1-2.45-1.56l-.28-.3a19.32,19.32,0,0,1-1,5.75,11.94,11.94,0,0,1-3.22,4.87,15.81,15.81,0,0,1-3.35,2.37,14.83,14.83,0,0,1-4.07,1.5,10,10,0,0,1-4.08,0,6.33,6.33,0,0,1-3.41-1.92,4.45,4.45,0,0,1-1.11-3.11,4.82,4.82,0,0,1,1.71-3.62,4.35,4.35,0,0,1,3.45-1.37,13.81,13.81,0,0,1,3.56.81l3.19,1.14a2.26,2.26,0,0,0,2.48-.46,7.8,7.8,0,0,0,2-3.73,22.29,22.29,0,0,0,.72-5.64l-14-14.78a20.16,20.16,0,0,0-3.21-2.85,21.83,21.83,0,0,0-2.54-1.54,19.55,19.55,0,0,0-1.91-.88,3.69,3.69,0,0,1-1.33-.86,1.81,1.81,0,0,1-.44-.83,2.13,2.13,0,0,1,0-1,2.47,2.47,0,0,1,.79-1.15l8-7.58q1.68-1.61,3-.21a3.59,3.59,0,0,1,.78,1.37c.18.55.44,1.21.77,2a23.12,23.12,0,0,0,1.39,2.62,20.87,20.87,0,0,0,2.66,3.37l11.23,11.88a5.09,5.09,0,0,0,1.9,1.35c.62.21,1.17.42,1.63.63a2,2,0,0,1,1,.88A3.89,3.89,0,0,1,862.46,910Z"/><path class="cls-1" d="M837.34,941.21l-4.52,3.64,2.5,3.11a7.3,7.3,0,0,1,3.85,1.32c.73.65.88,2,.43,4l-1.46,7a6.22,6.22,0,0,1-.55,1.56,4,4,0,0,1-1.06,1.33,2.27,2.27,0,0,1-1.8.49,4.23,4.23,0,0,1-2.32-1.75l-8.18-10.14-4.52,3.65a1.3,1.3,0,0,1-1.1.35,1.47,1.47,0,0,1-.86-.54,1.44,1.44,0,0,1-.34-1,1.32,1.32,0,0,1,.58-1l4.52-3.64-13.19-16.35q-.83-1-2.43-2.94t-3.32-3.66a27.1,27.1,0,0,0-3.27-2.86c-1-.74-1.77-.92-2.24-.54-.87.7-1,1.66-.34,2.89a41.79,41.79,0,0,0,2.58,4.26,3.46,3.46,0,0,1,.63,2.69,3.54,3.54,0,0,1-1.26,2.08,3.67,3.67,0,0,1-2.62.79,3.4,3.4,0,0,1-2.59-1.7,8,8,0,0,1-1.18-2.78,10.85,10.85,0,0,1-.2-3.68,11.8,11.8,0,0,1,1.33-4.11,13.09,13.09,0,0,1,3.5-4,12.78,12.78,0,0,1,4.61-2.55,9.11,9.11,0,0,1,7.69,1.27,22.45,22.45,0,0,1,3.09,2.51,26.33,26.33,0,0,1,2.59,2.87c.76,1,1.43,1.85,2,2.58l13.19,16.34,4.52-3.65a1.3,1.3,0,0,1,1.1-.35,1.52,1.52,0,0,1,1.2,1.49A1.32,1.32,0,0,1,837.34,941.21Z"/><path class="cls-1" d="M805.89,958.13l-1.85,7a9.87,9.87,0,0,1-.62,1.77,3.56,3.56,0,0,1-1.16,1.45,1.86,1.86,0,0,1-1.73.22,5.44,5.44,0,0,1-2.3-2.13L783.61,946a20.4,20.4,0,0,0-2.8-3.25,22.92,22.92,0,0,0-2.31-1.87,20.83,20.83,0,0,0-1.78-1.12,3.6,3.6,0,0,1-1.2-1,1.83,1.83,0,0,1-.33-.89,2.27,2.27,0,0,1,.16-1,2.62,2.62,0,0,1,.95-1l9-6.44a2.53,2.53,0,0,1,1.09-.47,2,2,0,0,1,1,0,1.56,1.56,0,0,1,.93.66,3.63,3.63,0,0,1,.6,1.46c.1.57.27,1.25.49,2a24.58,24.58,0,0,0,1,2.78,20.26,20.26,0,0,0,2.19,3.69l9.35,13a7.34,7.34,0,0,1,3.76,1.54Q806.73,955.18,805.89,958.13Zm11.17,25.08a7,7,0,0,1-5.62,1.28,7.81,7.81,0,0,1-6.15-5.85,8,8,0,0,1-.12-2.88,7.06,7.06,0,0,1,1-2.69A7.59,7.59,0,0,1,820,975.34a7.45,7.45,0,0,1,.09,2.9,8.19,8.19,0,0,1-1,2.75A6.92,6.92,0,0,1,817.06,983.21Z"/><path class="cls-1" d="M776.07,952.42a3.69,3.69,0,0,1-2.57.6,7.66,7.66,0,0,1-2.54-.9,24.82,24.82,0,0,1-2.54-1.69,25.22,25.22,0,0,0-2.54-1.68,7.82,7.82,0,0,0-2.5-.92,3.5,3.5,0,0,0-2.53.57,4.22,4.22,0,0,0-1.5,1.59,5.53,5.53,0,0,0-.64,2,6.65,6.65,0,0,0,.15,2.16,6.41,6.41,0,0,0,.84,2,6,6,0,0,0,3.45,2.58,20.8,20.8,0,0,0,5.08.8q2.84.13,5.92,0a56,56,0,0,1,6,.14,18.31,18.31,0,0,1,5.33,1.19,8.05,8.05,0,0,1,3.89,3.28,8.78,8.78,0,0,1,1.5,5.54,13.65,13.65,0,0,1-1.59,5.33,19.09,19.09,0,0,1-3.4,4.56,23.63,23.63,0,0,1-4,3.28,26.83,26.83,0,0,1-5.94,2.88,17.18,17.18,0,0,1-5.32.91,10.05,10.05,0,0,1-4.36-.92,7.15,7.15,0,0,1-3-2.66,4.53,4.53,0,0,1-.5-3.27,4.83,4.83,0,0,1,2.38-3.22,3.59,3.59,0,0,1,2.57-.6,7.17,7.17,0,0,1,2.54.9,23.11,23.11,0,0,1,2.54,1.68,22.2,22.2,0,0,0,2.54,1.68,7.67,7.67,0,0,0,2.5.92,3.44,3.44,0,0,0,2.53-.57,4.08,4.08,0,0,0,1.5-1.59,5.48,5.48,0,0,0,.64-2,6.71,6.71,0,0,0-.15-2.17,6.35,6.35,0,0,0-.84-2,6.14,6.14,0,0,0-3.47-2.61,19.86,19.86,0,0,0-5.16-.86q-2.9-.13-6-.06a53.74,53.74,0,0,1-6.13-.2,19.42,19.42,0,0,1-5.4-1.25,8,8,0,0,1-3.9-3.28,8.33,8.33,0,0,1-1.41-5.49,13.34,13.34,0,0,1,1.75-5.23,20.32,20.32,0,0,1,3.53-4.5,26,26,0,0,1,10-6.12,17.25,17.25,0,0,1,5.35-.94,10.2,10.2,0,0,1,4.36.92,7.17,7.17,0,0,1,3,2.67,4.46,4.46,0,0,1,.5,3.27A4.82,4.82,0,0,1,776.07,952.42Z"/><path class="cls-1" d="M759.29,988.41l-2.65,6.69a9.66,9.66,0,0,1-.82,1.69,3.65,3.65,0,0,1-1.32,1.3,1.84,1.84,0,0,1-1.74,0,5.4,5.4,0,0,1-2-2.38L738.57,973.8a20.18,20.18,0,0,0-2.4-3.56,23.55,23.55,0,0,0-2.08-2.12c-.62-.54-1.16-1-1.63-1.32a3.61,3.61,0,0,1-1.08-1.17,1.74,1.74,0,0,1-.22-.92,2.1,2.1,0,0,1,.27-1,2.61,2.61,0,0,1,1.06-.92l9.66-5.36a2.49,2.49,0,0,1,1.13-.34,2.11,2.11,0,0,1,1,.12,1.55,1.55,0,0,1,.85.77,3.6,3.6,0,0,1,.42,1.52,20.73,20.73,0,0,0,.26,2.09,22.33,22.33,0,0,0,.7,2.89,20.38,20.38,0,0,0,1.74,3.92l7.77,14a7.28,7.28,0,0,1,3.56,2C760.16,985.19,760.08,986.52,759.29,988.41Zm8.18,26.21a7.1,7.1,0,0,1-5.74.62,7.5,7.5,0,0,1-4.5-3.67,7.61,7.61,0,0,1-.92-2.86,8.08,8.08,0,0,1,.21-2.87,7.11,7.11,0,0,1,1.29-2.56,7.33,7.33,0,0,1,2.29-1.94,7.52,7.52,0,0,1,10.27,2.94,7.38,7.38,0,0,1,.92,2.86A7.59,7.59,0,0,1,771,1010a8.13,8.13,0,0,1-1.3,2.62A7,7,0,0,1,767.47,1014.62Z"/><path class="cls-1" d="M742.34,998.32l-3.09,6.49a5.56,5.56,0,0,1-.9,1.39,4.05,4.05,0,0,1-1.34,1,2.23,2.23,0,0,1-1.86,0,4.17,4.17,0,0,1-1.84-2.25l-.74-1.58a21.8,21.8,0,0,1-2.45,6,10.76,10.76,0,0,1-4.78,4.17,11.12,11.12,0,0,1-7.54.75,11.43,11.43,0,0,1-6.66-4.81c-.38-.55-.91-1.43-1.6-2.63s-1.44-2.55-2.26-4-1.67-3-2.56-4.67-1.72-3.16-2.49-4.6-1.48-2.73-2.14-3.86a27.82,27.82,0,0,0-1.48-2.38,3.66,3.66,0,0,0-1.22-1.12l-1.3-.72c-.41-.23-.8-.48-1.17-.73a2.93,2.93,0,0,1-.9-1.14,1.61,1.61,0,0,1,0-1.58,2.84,2.84,0,0,1,1.33-1.17l9.46-4.45a2.41,2.41,0,0,1,2.15.09,4.88,4.88,0,0,1,2.09,2.68,84.35,84.35,0,0,1,2.88,8.28,107.17,107.17,0,0,0,4.19,11.24q1.15,2.66,2.13,4.82a16.61,16.61,0,0,0,2,3.5,5.45,5.45,0,0,0,2.28,1.82,3.47,3.47,0,0,0,2.81-.27,7.33,7.33,0,0,0,3.16-3.5,20.4,20.4,0,0,0,1.93-6.14l-8-17a20,20,0,0,0-2.16-3.71,23.79,23.79,0,0,0-1.93-2.26c-.58-.58-1.09-1.06-1.54-1.43a3.54,3.54,0,0,1-1-1.23,1.78,1.78,0,0,1-.17-.93,2.33,2.33,0,0,1,.34-.94,2.62,2.62,0,0,1,1.12-.84l10-4.7c1.4-.66,2.37-.42,2.91.74a3.46,3.46,0,0,1,.32,1.55c0,.58,0,1.28.11,2.1a25.88,25.88,0,0,0,.51,2.92,20.59,20.59,0,0,0,1.48,4l7,14.8a5,5,0,0,0,1.38,1.87,14.35,14.35,0,0,1,1.35,1.11,2,2,0,0,1,.68,1.15A4.07,4.07,0,0,1,742.34,998.32Z"/><path class="cls-1" d="M687.72,975a4.11,4.11,0,0,1-2.54.17,7.74,7.74,0,0,1-2.21-1.1c-.71-.51-1.42-1.06-2.14-1.65a13.75,13.75,0,0,0-2.34-1.59,7.7,7.7,0,0,0-2.87-.85,8.3,8.3,0,0,0-3.71.59,14.24,14.24,0,0,0-5,2.82,10.69,10.69,0,0,0-2.6,3.54,8.57,8.57,0,0,0-.75,3.8,11.66,11.66,0,0,0,.67,3.56,6.4,6.4,0,0,0,2.54,3.36A9.13,9.13,0,0,0,671,989a22.94,22.94,0,0,0,5.59-.3q3.12-.51,6.78-1.4c2.74-.7,4.82-.54,6.22.49a4.72,4.72,0,0,1,1.91,4.43c-.11,1.33-.21,2.38-.31,3.15s-.16,1.31-.17,1.61a13.9,13.9,0,0,1,6.12,2.9,15.35,15.35,0,0,1,4.5,6.94,15.86,15.86,0,0,1,1.06,7.56,14.47,14.47,0,0,1-2.13,5.93,16.62,16.62,0,0,1-4.18,4.43,26.4,26.4,0,0,1-5.11,3c0,.35,0,1.15.11,2.39a13.51,13.51,0,0,1-.46,4.09,12.42,12.42,0,0,1-2.16,4.4,10.07,10.07,0,0,1-4.87,3.36,16.54,16.54,0,0,1-3.59.81,13.45,13.45,0,0,1-4-.09,9.69,9.69,0,0,1-3.58-1.36,5.67,5.67,0,0,1-2.31-3,4.52,4.52,0,0,1,.22-3.3,4.78,4.78,0,0,1,3-2.63,4,4,0,0,1,2.49-.2,5,5,0,0,1,1.93,1.07,10.82,10.82,0,0,1,1.54,1.69,21.36,21.36,0,0,0,1.42,1.74,5.65,5.65,0,0,0,1.54,1.21,2.34,2.34,0,0,0,1.91,0,5.43,5.43,0,0,0,2.72-2,8,8,0,0,0,1.24-2.79,12.52,12.52,0,0,0,.31-2.67,10.87,10.87,0,0,0-.1-1.73,28,28,0,0,1-6,1.24,17.84,17.84,0,0,1-6.35-.48,14.49,14.49,0,0,1-5.81-3.1,18.26,18.26,0,0,1-5.27-14.82,13.78,13.78,0,0,1,2.71-6.15,18.66,18.66,0,0,1,5-4.35A29.33,29.33,0,0,1,683,997a23.65,23.65,0,0,1,5-.44c0-.55.06-1.14.06-1.79s0-1.26-.05-1.84-.43-.61-1.14-.47a23.2,23.2,0,0,0-3.1,1c-.89.32-1.84.68-2.87,1.08s-2.18.83-3.42,1.28A36.58,36.58,0,0,1,667,998.25a18.46,18.46,0,0,1-7.11-.87,9.74,9.74,0,0,1-4.37-2.92,13.34,13.34,0,0,1-2.22-3.83,11,11,0,0,1-.62-6,14.75,14.75,0,0,1,2.08-5.12,19.59,19.59,0,0,1,3.79-4.28,40.18,40.18,0,0,1,4.6-3.39,43.14,43.14,0,0,1,4.45-2.45c1.41-.65,2.53-1.14,3.37-1.44q8.41-3,13.48-3c3.37,0,5.54,1.39,6.5,4a4.51,4.51,0,0,1-.22,3.3A4.82,4.82,0,0,1,687.72,975Zm2.42,35.93a28.14,28.14,0,0,0-2.94-6.17,12.12,12.12,0,0,0-2.92-3.18,5,5,0,0,0-2.67-1,5.87,5.87,0,0,0-2.18.31,5.79,5.79,0,0,0-1.87,1.16,5,5,0,0,0-1.4,2.49,12.41,12.41,0,0,0-.2,4.32,28.26,28.26,0,0,0,1.69,6.62,28.73,28.73,0,0,0,3,6.21,13.48,13.48,0,0,0,2.95,3.3,5.22,5.22,0,0,0,2.71,1.14,5,5,0,0,0,4.06-1.47,5.09,5.09,0,0,0,1.35-2.61,13.25,13.25,0,0,0,.16-4.43A28.24,28.24,0,0,0,690.14,1010.93Z"/><path class="cls-1" d="M618.64,1030.81l-1.21-5.26,20-4.59,1.21,5.25Z"/><path class="cls-1" d="M571.79,1071.86q-7.75.81-12.51-.79t-5.22-6a4.49,4.49,0,0,1,1-3.15,4.84,4.84,0,0,1,3.57-1.83,3.73,3.73,0,0,1,2.52.53,7.41,7.41,0,0,1,1.8,1.74,20.53,20.53,0,0,1,1.5,2.34,14,14,0,0,0,1.61,2.34,7.3,7.3,0,0,0,2.18,1.69,5.74,5.74,0,0,0,3.26.46,7.3,7.3,0,0,0,4.16-2.18,16.11,16.11,0,0,0,3.59-5.59,35.75,35.75,0,0,0,2.21-8.87,50.71,50.71,0,0,0,0-12.09,49,49,0,0,0-2.64-12.29,28.66,28.66,0,0,0-4.28-7.86,14.55,14.55,0,0,0-4.85-4.09,8.24,8.24,0,0,0-4.35-1,7.22,7.22,0,0,0-3,.89,7.5,7.5,0,0,0-2,1.71l1.4,13.54a7.2,7.2,0,0,1,2.5,3.2c.27,1-.33,2.13-1.8,3.57l-5.06,5.11a5.75,5.75,0,0,1-1.31,1,3.89,3.89,0,0,1-1.62.54,2.27,2.27,0,0,1-1.77-.56,4.24,4.24,0,0,1-1-2.74l-2.35-22.7a9.39,9.39,0,0,1,0-2.88c.15-.66.86-1,2.13-1.18a10.2,10.2,0,0,1,2.89.07,10,10,0,0,1,2.37.72,18.65,18.65,0,0,1,3.59-1.92,16.81,16.81,0,0,1,4.69-1.11,28.28,28.28,0,0,1,10.42.76,21.26,21.26,0,0,1,8.66,4.65,25.85,25.85,0,0,1,6.23,8.62,39.43,39.43,0,0,1,3.23,12.64,42.77,42.77,0,0,1-.41,12.6,27.2,27.2,0,0,1-3.93,10,22.06,22.06,0,0,1-7.21,6.88A24.74,24.74,0,0,1,571.79,1071.86Z"/><path class="cls-1" d="M545.8,1050.58l-5.49,4.66a5.73,5.73,0,0,1-1.39.89,4,4,0,0,1-1.66.4,2.26,2.26,0,0,1-1.71-.72,4.17,4.17,0,0,1-.75-2.81v-.41a19.23,19.23,0,0,1-4.63,3.56,12,12,0,0,1-5.66,1.42,15.48,15.48,0,0,1-4.08-.52,15.21,15.21,0,0,1-4-1.63,10,10,0,0,1-3-2.73,6.47,6.47,0,0,1-1.23-3.72,4.49,4.49,0,0,1,1.28-3,4.8,4.8,0,0,1,3.71-1.51,4.32,4.32,0,0,1,3.47,1.31,14,14,0,0,1,2.08,3c.57,1.09,1.1,2.1,1.59,3a2.27,2.27,0,0,0,2.14,1.34,7.89,7.89,0,0,0,4-1.44,22.48,22.48,0,0,0,4.34-3.68l-.33-20.33a20.31,20.31,0,0,0-.45-4.27,22.55,22.55,0,0,0-.83-2.85c-.29-.77-.56-1.42-.82-1.94a3.56,3.56,0,0,1-.4-1.53,1.68,1.68,0,0,1,.24-.91,2.15,2.15,0,0,1,.69-.72,2.58,2.58,0,0,1,1.36-.31l11-.18c1.55,0,2.34.6,2.36,1.87a3.69,3.69,0,0,1-.35,1.54c-.24.53-.49,1.18-.76,2a24.68,24.68,0,0,0-.74,2.88,20.93,20.93,0,0,0-.31,4.28l.27,16.35a5,5,0,0,0,.49,2.27c.32.58.57,1.1.78,1.57a2,2,0,0,1,.14,1.32A3.92,3.92,0,0,1,545.8,1050.58Z"/><path class="cls-1" d="M491.07,1041.53a24.28,24.28,0,0,0-2.58,1.15c-.86.44-1.64.85-2.34,1.25a21.57,21.57,0,0,0,1,6.77c.64,1.84,1.68,2.82,3.12,2.92a3.5,3.5,0,0,0,2.72-1.47c.94-1.05,1.92-2.18,3-3.41a25.85,25.85,0,0,1,3.4-3.38,5.6,5.6,0,0,1,4.09-1.38,3.94,3.94,0,0,1,3.33,1.69,5.13,5.13,0,0,1,.82,3.1,6.07,6.07,0,0,1-1.5,3.64,9.73,9.73,0,0,1-3.67,2.52,20.43,20.43,0,0,1-5.46,1.32,36.16,36.16,0,0,1-6.87.1q-7-.49-10-3.24a11.5,11.5,0,0,1-3.43-7.43c-.06-.67-.1-1.7-.11-3.09s0-2.93,0-4.62,0-3.47,0-5.32.05-3.61.08-5.24,0-3.1,0-4.41-.07-2.23-.14-2.79a3.64,3.64,0,0,0-.51-1.58l-.79-1.26c-.24-.41-.47-.81-.66-1.21a2.84,2.84,0,0,1-.23-1.43,1.62,1.62,0,0,1,.8-1.36,2.83,2.83,0,0,1,1.73-.38l10.44.74a2.19,2.19,0,0,1,1.37.63,3.35,3.35,0,0,1,.87,1.77,15.65,15.65,0,0,1,4.42-2,14.31,14.31,0,0,1,4.83-.53,11,11,0,0,1,4.73,1.37,11.48,11.48,0,0,1,3.45,3,13.14,13.14,0,0,1,2,4,12,12,0,0,1,.52,4.41,12.39,12.39,0,0,1-2.08,6.47,14.49,14.49,0,0,1-4.45,4.05,29,29,0,0,1-5.84,2.59Q494.06,1040.49,491.07,1041.53Zm-1.56-21.66c-.38,2.36-.89,5.05-1.52,8.09s-1.18,6.61-1.63,10.74l-.1,1.41c.46-.3,1-.65,1.73-1s1.45-.84,2.26-1.33a20.23,20.23,0,0,0,2.32-1.63,12.38,12.38,0,0,0,2.2-2.3,13,13,0,0,0,1.73-3.21,16.05,16.05,0,0,0,.87-6.47,10.06,10.06,0,0,0-.46-2.36,5.34,5.34,0,0,0-1.15-2,3.1,3.1,0,0,0-2.18-.95,5.76,5.76,0,0,0-2.14.23A10.35,10.35,0,0,0,489.51,1019.87Z"/><path class="cls-1" d="M465.35,1047.55l-6.21,3.63a8.45,8.45,0,0,1-1.66.66,3.89,3.89,0,0,1-1.74.14,2.17,2.17,0,0,1-1.45-.9,3.55,3.55,0,0,1-.27-2.57,15.07,15.07,0,0,1-4.72,2.23,12.08,12.08,0,0,1-5.09.24,12.25,12.25,0,0,1-6-2.76,18.19,18.19,0,0,1-4.41-5.54,23.94,23.94,0,0,1-2.4-7.36,26.1,26.1,0,0,1,0-8.32,25.71,25.71,0,0,1,2.55-7.83,23.82,23.82,0,0,1,4.56-6.24,17.47,17.47,0,0,1,5.91-3.85,12.41,12.41,0,0,1,6.59-.72,12,12,0,0,1,4.75,1.81,16.18,16.18,0,0,1,3.81,3.51l1.78-11.15a20.18,20.18,0,0,0,.3-4.28,22.93,22.93,0,0,0-.32-3c-.15-.81-.31-1.49-.47-2a3.47,3.47,0,0,1-.13-1.58c.2-1.25,1.06-1.76,2.59-1.52l10.91,1.74a2.52,2.52,0,0,1,1.1.43,2.29,2.29,0,0,1,.7.66,1.53,1.53,0,0,1,.19,1.16,3.6,3.6,0,0,1-.61,1.46c-.33.48-.69,1.08-1.09,1.8a26.1,26.1,0,0,0-1.23,2.71,20.74,20.74,0,0,0-1,4.16l-5.82,36.55a7.37,7.37,0,0,1,1.58,3.75C468,1045.55,467.14,1046.54,465.35,1047.55Zm-11.79-34.08a4.79,4.79,0,0,0-3.91,1,12.22,12.22,0,0,0-2.93,3.65,24.65,24.65,0,0,0-2.05,5.18,53.07,53.07,0,0,0-1.23,5.6,55.34,55.34,0,0,0-.58,5.75,25.59,25.59,0,0,0,.32,5.64,12.31,12.31,0,0,0,1.65,4.43,4.77,4.77,0,0,0,3.39,2.18,6.08,6.08,0,0,0,3.31-.44,10.5,10.5,0,0,0,3.16-2.15l4.22-26.47a11,11,0,0,0-2.35-2.94A6,6,0,0,0,453.56,1013.47Z"/><path class="cls-1" d="M417.21,1060.47l-6.52,3a5.63,5.63,0,0,1-1.58.49,3.87,3.87,0,0,1-1.7,0,2.25,2.25,0,0,1-1.47-1.14,4.22,4.22,0,0,1,0-2.91l5.58-21.79a21.78,21.78,0,0,1-5.71,3.08,10.77,10.77,0,0,1-6.35.17,11.13,11.13,0,0,1-6.28-4.22,11.41,11.41,0,0,1-2.08-8c.06-.67.2-1.69.44-3s.51-2.89.82-4.55.65-3.4,1-5.23.69-3.53,1-5.13.6-3.05.81-4.34a26.91,26.91,0,0,0,.37-2.77,3.64,3.64,0,0,0-.22-1.65l-.55-1.38c-.17-.44-.31-.88-.43-1.31a2.76,2.76,0,0,1,0-1.45,1.62,1.62,0,0,1,1-1.19,2.94,2.94,0,0,1,1.77-.06l10.13,2.6a2.41,2.41,0,0,1,1.61,1.43,5,5,0,0,1-.1,3.41,85.83,85.83,0,0,1-3,8.21,106.16,106.16,0,0,0-3.93,11.33c-.53,1.86-1,3.56-1.43,5.08a17.44,17.44,0,0,0-.68,4,5.47,5.47,0,0,0,.6,2.85,3.46,3.46,0,0,0,2.34,1.58,7.39,7.39,0,0,0,4.67-.68,20.94,20.94,0,0,0,5.4-3.5l4.65-18.18a20.08,20.08,0,0,0,.7-4.23,25.26,25.26,0,0,0-.05-3c-.08-.82-.17-1.51-.28-2.08a3.49,3.49,0,0,1,0-1.58,1.7,1.7,0,0,1,.46-.83,2.37,2.37,0,0,1,.86-.51,2.63,2.63,0,0,1,1.4.06l10.69,2.74c1.51.39,2.1,1.19,1.78,2.43a3.49,3.49,0,0,1-.74,1.39c-.37.45-.79,1-1.25,1.7a23.86,23.86,0,0,0-1.47,2.57,20.32,20.32,0,0,0-1.43,4l-9.2,35.94a4.88,4.88,0,0,0-.13,2.33c.15.64.27,1.21.34,1.71a2.07,2.07,0,0,1-.21,1.32A4,4,0,0,1,417.21,1060.47Z"/><path class="cls-1" d="M366.58,1052.34a7.08,7.08,0,0,1-4.34-3.79,7.49,7.49,0,0,1-.37-5.8,7.57,7.57,0,0,1,1.47-2.62,8.19,8.19,0,0,1,2.25-1.79,7.05,7.05,0,0,1,2.76-.8,7.51,7.51,0,0,1,3,.37,7.51,7.51,0,0,1,4.81,9.53,7.45,7.45,0,0,1-3.76,4.4,8.17,8.17,0,0,1-2.81.83A7,7,0,0,1,366.58,1052.34Zm13.68-23.81-6.7,2.6a9.05,9.05,0,0,1-1.8.54,3.49,3.49,0,0,1-1.85-.08,1.85,1.85,0,0,1-1.2-1.27,5.4,5.4,0,0,1,.37-3.11l7.83-23.81a20.91,20.91,0,0,0,1-4.18,21.74,21.74,0,0,0,.14-3c0-.82-.06-1.52-.13-2.09a3.42,3.42,0,0,1,.12-1.58,1.71,1.71,0,0,1,.52-.79,2.21,2.21,0,0,1,.89-.45,2.56,2.56,0,0,1,1.39.15l10.49,3.45a2.67,2.67,0,0,1,1,.6,2.12,2.12,0,0,1,.56.8,1.54,1.54,0,0,1,0,1.14,3.51,3.51,0,0,1-.83,1.34,20.42,20.42,0,0,0-1.36,1.61,22.94,22.94,0,0,0-1.64,2.47,19.59,19.59,0,0,0-1.69,4l-5,15.21a7.23,7.23,0,0,1,1,4C383.22,1027,382.19,1027.82,380.26,1028.53Z"/><path class="cls-1" d="M343.1,1022.56a19.58,19.58,0,0,1-4.15-2.27,16.87,16.87,0,0,1-3.39-3.17,10,10,0,0,1-1.9-3.75,6.2,6.2,0,0,1,.25-3.92,4.47,4.47,0,0,1,2.35-2.32,4.79,4.79,0,0,1,4,0,3.71,3.71,0,0,1,2,1.64,6.55,6.55,0,0,1,.74,2.39,13.85,13.85,0,0,1,0,2.74c-.08,1-.14,1.83-.16,2.66a8.48,8.48,0,0,0,.16,2.16,1.7,1.7,0,0,0,1.06,1.27,3.75,3.75,0,0,0,2.54-.2,11.12,11.12,0,0,0,3.56-2.34,26.59,26.59,0,0,0,4-4.76,44.43,44.43,0,0,0,6.11-15.3,27.45,27.45,0,0,0,.42-6.13,11.77,11.77,0,0,0-.95-4.26,3.69,3.69,0,0,0-1.78-2,4.15,4.15,0,0,0-2.36-.23,7.34,7.34,0,0,0-2.38.94,14.71,14.71,0,0,0-4.21,3.86,3.54,3.54,0,0,1-2,1.47,3.62,3.62,0,0,1-4.12-2.13,2.71,2.71,0,0,1,.35-2.89,9.11,9.11,0,0,1,2.13-2,13.41,13.41,0,0,1,3.63-1.83,15.6,15.6,0,0,1,4.68-.78,13.85,13.85,0,0,1,5.34,1,20.22,20.22,0,0,1,7.26,4.66,17.53,17.53,0,0,1,4,6.51,19.91,19.91,0,0,1,1,7.72,26.91,26.91,0,0,1-1.93,8.34,28.73,28.73,0,0,1-4.46,7.78,19,19,0,0,1-6,4.94,17.08,17.08,0,0,1-7.33,1.83A21.23,21.23,0,0,1,343.1,1022.56Z"/><path class="cls-1" d="M318.59,979.1l-16.15,28.82a20.15,20.15,0,0,0-1.77,3.91,25.86,25.86,0,0,0-.71,2.88c-.13.81-.22,1.51-.26,2.09a3.65,3.65,0,0,1-.43,1.52c-.62,1.11-1.61,1.29-3,.53L284.15,1012a28.43,28.43,0,0,1-7.86-6.35,20.79,20.79,0,0,1-4.35-8.53,24.9,24.9,0,0,1-.15-10.6A41.09,41.09,0,0,1,276.61,974a38.38,38.38,0,0,1,7.92-10.21,24.29,24.29,0,0,1,9-5.19A21.28,21.28,0,0,1,303,958a28.33,28.33,0,0,1,9.52,3.39l12.17,6.82a2.52,2.52,0,0,1,.89.78,2.09,2.09,0,0,1,.4.89,1.56,1.56,0,0,1-.2,1.13,3.45,3.45,0,0,1-1.08,1.15c-.47.34-1,.78-1.64,1.32a24.63,24.63,0,0,0-2.09,2.11A20.59,20.59,0,0,0,318.59,979.1Zm-6-14.59-1.38-.77a7.7,7.7,0,0,0-3.78-.65,14.36,14.36,0,0,0-5.81,1.64,28.24,28.24,0,0,0-7,5.21A43.45,43.45,0,0,0,287.26,980a45.47,45.47,0,0,0-4.95,12,29.15,29.15,0,0,0-.83,8.95,14.64,14.64,0,0,0,1.59,5.89,7.33,7.33,0,0,0,2.42,2.83l1.37.77c.68.38,1.48-.2,2.41-1.74s2.1-3.59,3.54-6.15L309,973.7c1.43-2.56,2.57-4.63,3.4-6.23S313.27,964.89,312.59,964.51Z"/><path class="cls-1" d="M277.51,966q-5.52,8.09-12.72,9.85T250,972.44a22.67,22.67,0,0,1-4.22-3.74,15.17,15.17,0,0,1-2.85-4.67,11.79,11.79,0,0,1-.69-5.3,11.92,11.92,0,0,1,2.21-5.67,9.3,9.3,0,0,1,3.75-3.42,8.25,8.25,0,0,1,4.18-.67,13.21,13.21,0,0,1,4.39,1.3,33.93,33.93,0,0,1,4.42,2.57l7.2,4.92a39.17,39.17,0,0,0,4-7.24,21.84,21.84,0,0,0,1.6-5.64,9.27,9.27,0,0,0-.26-4,4.12,4.12,0,0,0-1.43-2.18,4.73,4.73,0,0,0-2.45-.83,9.47,9.47,0,0,0-2.81.29,13.74,13.74,0,0,0-2.93,1.12,19.9,19.9,0,0,0-2.68,1.64,3.66,3.66,0,0,1-2.32.82,3.78,3.78,0,0,1-1.94-.62,3.54,3.54,0,0,1-1.5-2.44,2.78,2.78,0,0,1,1.24-2.77,10.31,10.31,0,0,1,2.94-1.5,14.58,14.58,0,0,1,4.13-.75,18,18,0,0,1,4.84.49,14.88,14.88,0,0,1,5,2.29,19,19,0,0,1,6,6.25,17.92,17.92,0,0,1,2.33,7.47,21.6,21.6,0,0,1-.89,8A28.07,28.07,0,0,1,277.51,966Zm-10.75-6-4.38-3a4,4,0,0,0-2.36-.81,4.78,4.78,0,0,0-2.16.58,7.69,7.69,0,0,0-1.93,1.5,16.23,16.23,0,0,0-1.6,2,34.81,34.81,0,0,0-1.83,3,16.29,16.29,0,0,0-1.3,2.93,7.6,7.6,0,0,0-.43,2.47,1.82,1.82,0,0,0,.77,1.59,3.17,3.17,0,0,0,2.29.26A11,11,0,0,0,257.4,969a28.67,28.67,0,0,0,4.44-3.4A39.25,39.25,0,0,0,266.76,960Z"/><path class="cls-1" d="M247.61,935.17a3.64,3.64,0,0,1-1.39-2.25,7.61,7.61,0,0,1,0-2.69,24.88,24.88,0,0,1,.78-2.94,24.51,24.51,0,0,0,.78-2.95,8,8,0,0,0,.07-2.66,3.54,3.54,0,0,0-1.36-2.22,4.35,4.35,0,0,0-2-.91,5.59,5.59,0,0,0-2.12.05,6.56,6.56,0,0,0-2,.84,6.39,6.39,0,0,0-1.65,1.44,6,6,0,0,0-1.33,4.1,20.43,20.43,0,0,0,.87,5.07q.8,2.73,1.87,5.62a55.79,55.79,0,0,1,1.79,5.71,18,18,0,0,1,.58,5.42,8.09,8.09,0,0,1-1.85,4.75,8.78,8.78,0,0,1-4.77,3.19,13.64,13.64,0,0,1-5.55.22A19,19,0,0,1,225,953.2a23.77,23.77,0,0,1-4.4-2.74,26.52,26.52,0,0,1-4.63-4.7,16.86,16.86,0,0,1-2.58-4.74,10.09,10.09,0,0,1-.53-4.43,7.07,7.07,0,0,1,1.55-3.71,4.46,4.46,0,0,1,2.94-1.52,4.76,4.76,0,0,1,3.81,1.21,3.68,3.68,0,0,1,1.4,2.24,7.39,7.39,0,0,1,0,2.69,22.78,22.78,0,0,1-.78,3,23,23,0,0,0-.77,2.94,7.78,7.78,0,0,0-.07,2.67,3.45,3.45,0,0,0,1.36,2.21,4.17,4.17,0,0,0,2,.91,5.39,5.39,0,0,0,2.12,0,6.44,6.44,0,0,0,2-.83,6.75,6.75,0,0,0,1.64-1.45,6.11,6.11,0,0,0,1.36-4.13,19.82,19.82,0,0,0-.85-5.16q-.79-2.77-1.88-5.73a54.28,54.28,0,0,1-1.78-5.86,19.55,19.55,0,0,1-.56-5.52,8.09,8.09,0,0,1,1.85-4.74,8.34,8.34,0,0,1,4.75-3.11,13.45,13.45,0,0,1,5.51,0,20.44,20.44,0,0,1,5.4,1.9,26.41,26.41,0,0,1,9,7.48,17.11,17.11,0,0,1,2.6,4.77,10.07,10.07,0,0,1,.53,4.43,7,7,0,0,1-1.55,3.7,4.45,4.45,0,0,1-2.93,1.53A4.82,4.82,0,0,1,247.61,935.17Z"/><path class="cls-1" d="M185.94,947a7.09,7.09,0,0,1-2.43-5.23,7.8,7.8,0,0,1,4.44-7.24,7.68,7.68,0,0,1,2.78-.72,6.92,6.92,0,0,1,2.84.39,7.68,7.68,0,0,1,5.06,6.77,7.28,7.28,0,0,1-2,5.45,7.58,7.58,0,0,1-2.41,1.79,7.26,7.26,0,0,1-2.81.69,8.19,8.19,0,0,1-2.9-.38A7.15,7.15,0,0,1,185.94,947Zm22.19-16.18-7.19-.36a9.64,9.64,0,0,1-1.86-.23,3.58,3.58,0,0,1-1.66-.83,1.88,1.88,0,0,1-.58-1.65,5.48,5.48,0,0,1,1.6-2.69l16.85-18.57a20.89,20.89,0,0,0,2.59-3.41,22.79,22.79,0,0,0,1.34-2.65,20.61,20.61,0,0,0,.73-2,3.64,3.64,0,0,1,.75-1.39,1.89,1.89,0,0,1,.8-.51,2.22,2.22,0,0,1,1,0,2.57,2.57,0,0,1,1.21.7l8.17,7.42a2.68,2.68,0,0,1,.7,1,2.19,2.19,0,0,1,.19,1,1.51,1.51,0,0,1-.45,1,3.49,3.49,0,0,1-1.31.89c-.53.22-1.16.53-1.89.92a21.55,21.55,0,0,0-2.51,1.59,20,20,0,0,0-3.15,2.91L212.7,925.81a7.31,7.31,0,0,1-.72,4C211.46,930.63,210.17,931,208.13,930.85Z"/><path class="cls-1" d="M225,887.29a4,4,0,0,1-1.19-2.25,7.35,7.35,0,0,1,.1-2.46c.17-.86.38-1.74.63-2.63a14.19,14.19,0,0,0,.49-2.78,7.56,7.56,0,0,0-.38-3,8.42,8.42,0,0,0-2.06-3.15,14.48,14.48,0,0,0-4.61-3.4,10.8,10.8,0,0,0-4.29-.93,8.82,8.82,0,0,0-3.78.87,12.16,12.16,0,0,0-3,2.06,6.46,6.46,0,0,0-2,3.69,9.15,9.15,0,0,0,.51,4.36,22.82,22.82,0,0,0,2.55,5c1.16,1.76,2.51,3.64,4,5.62,1.76,2.23,2.46,4.18,2.09,5.88a4.71,4.71,0,0,1-3.26,3.55c-1.26.45-2.26.78-3,1s-1.26.38-1.54.5a13.89,13.89,0,0,1-.15,6.77,15.27,15.27,0,0,1-4.49,6.94,16,16,0,0,1-6.47,4,14.47,14.47,0,0,1-6.29.47,16.51,16.51,0,0,1-5.75-2,26.27,26.27,0,0,1-4.78-3.46q-.48.22-2.13,1.08a14,14,0,0,1-3.93,1.25,12.42,12.42,0,0,1-4.9-.18,10.15,10.15,0,0,1-5-3.08,17.07,17.07,0,0,1-2.21-2.94,13.75,13.75,0,0,1-1.54-3.7,9.74,9.74,0,0,1-.23-3.82,5.66,5.66,0,0,1,1.76-3.31,4.4,4.4,0,0,1,3.1-1.15,4.76,4.76,0,0,1,3.64,1.68,4,4,0,0,1,1.2,2.19,5,5,0,0,1-.19,2.2,10.46,10.46,0,0,1-.92,2.09,20.84,20.84,0,0,0-1,2,5.6,5.6,0,0,0-.48,1.9,2.34,2.34,0,0,0,.77,1.75,5.38,5.38,0,0,0,2.93,1.66,7.82,7.82,0,0,0,3.05,0,12.13,12.13,0,0,0,2.57-.81,11.79,11.79,0,0,0,1.54-.79,28.38,28.38,0,0,1-3.58-5,17.64,17.64,0,0,1-2.15-6,14.54,14.54,0,0,1,.47-6.57,18.21,18.21,0,0,1,11.37-10.86,13.94,13.94,0,0,1,6.73,0,18.61,18.61,0,0,1,6,2.75,31.85,31.85,0,0,1,4.8,4,31.43,31.43,0,0,1,3,3.63,23.69,23.69,0,0,1,2.45,4.39c.51-.18,1.06-.41,1.65-.67s1.15-.53,1.66-.79.38-.64,0-1.24a23.08,23.08,0,0,0-2.13-2.44c-.65-.68-1.37-1.41-2.16-2.18s-1.64-1.65-2.56-2.6a36.17,36.17,0,0,1-6.51-8.6,18.57,18.57,0,0,1-2.11-6.85,9.78,9.78,0,0,1,.89-5.18,13.49,13.49,0,0,1,2.58-3.59,11.1,11.1,0,0,1,5.19-3,14.45,14.45,0,0,1,5.52-.19,19,19,0,0,1,5.46,1.71,38.25,38.25,0,0,1,5,2.82,39.55,39.55,0,0,1,4,3.06c1.18,1,2.08,1.85,2.69,2.49q6.22,6.45,8.22,11.09t-1,7.58a4.44,4.44,0,0,1-3.1,1.15A4.77,4.77,0,0,1,225,887.29Zm-31.83,16.87a27.59,27.59,0,0,0,4.44-5.21,12.38,12.38,0,0,0,1.72-4,5,5,0,0,0-.16-2.85,6,6,0,0,0-1.17-1.87,5.75,5.75,0,0,0-1.83-1.23,4.88,4.88,0,0,0-2.84-.26,12.52,12.52,0,0,0-4,1.57,35.35,35.35,0,0,0-9.82,9.48,13.53,13.53,0,0,0-1.81,4,5.22,5.22,0,0,0,.07,2.94,5.5,5.5,0,0,0,1.14,1.89,5.36,5.36,0,0,0,1.86,1.21,5.08,5.08,0,0,0,2.93.17,13.21,13.21,0,0,0,4.11-1.66A28.54,28.54,0,0,0,193.19,904.16Z"/><path class="cls-1" d="M162.53,885.49l-7-1.49a5.56,5.56,0,0,1-1.56-.56,4,4,0,0,1-1.33-1.06,2.3,2.3,0,0,1-.48-1.8,4.21,4.21,0,0,1,1.76-2.31l1.37-1.09a21.52,21.52,0,0,1-6.42-1,10.7,10.7,0,0,1-5.17-3.67,11.08,11.08,0,0,1-2.48-7.16,11.34,11.34,0,0,1,3.12-7.6c.45-.5,1.18-1.22,2.19-2.17s2.14-2,3.39-3.14l3.94-3.58,3.9-3.49c1.23-1.08,2.31-2.07,3.26-3s1.6-1.57,2-2a3.56,3.56,0,0,0,.81-1.44l.4-1.44a12.39,12.39,0,0,1,.44-1.3,2.7,2.7,0,0,1,.89-1.14,1.61,1.61,0,0,1,1.55-.33,2.88,2.88,0,0,1,1.45,1L175,844a2.41,2.41,0,0,1,.41,2.11,4.9,4.9,0,0,1-2.12,2.66,85.53,85.53,0,0,1-7.38,4.73,105.93,105.93,0,0,0-10,6.69c-1.54,1.16-2.94,2.23-4.19,3.19a17.37,17.37,0,0,0-2.94,2.77,5.47,5.47,0,0,0-1.24,2.64,3.53,3.53,0,0,0,.92,2.67,7.33,7.33,0,0,0,4.14,2.26,20.21,20.21,0,0,0,6.42.45l14.65-11.71a20.52,20.52,0,0,0,3.11-3,24.32,24.32,0,0,0,1.74-2.41c.43-.7.78-1.31,1-1.83a3.64,3.64,0,0,1,1-1.25,1.8,1.8,0,0,1,.86-.38,2.32,2.32,0,0,1,1,.11,2.67,2.67,0,0,1,1.08.89l6.89,8.62c1,1.21,1,2.22,0,3a3.65,3.65,0,0,1-1.43.67,19.76,19.76,0,0,0-2,.6,25.51,25.51,0,0,0-2.72,1.17,21,21,0,0,0-3.58,2.38l-12.77,10.21a4.92,4.92,0,0,0-1.49,1.78c-.27.61-.52,1.13-.77,1.57a2,2,0,0,1-1,.93A4,4,0,0,1,162.53,885.49Z"/><path class="cls-1" d="M122.12,810.76l4.59-2.84,10.79,17.43-4.58,2.84Z"/><path class="cls-1" d="M130.7,778.73a1.77,1.77,0,0,1-1.7-.15,17.84,17.84,0,0,0-2.11-1.07,9.13,9.13,0,0,0-3.14-.65,11.3,11.3,0,0,0-4.75,1.06L87.27,792a11.26,11.26,0,0,0-4,2.83,9.3,9.3,0,0,0-1.6,2.75,17.82,17.82,0,0,0-.63,2.27,1.74,1.74,0,0,1-1,1.36,1.06,1.06,0,0,1-.71,0q-.74,0-1.17-1l-2.66-6a10.27,10.27,0,0,1-.62-6.63,21.48,21.48,0,0,1,3-6.88,41.76,41.76,0,0,1,5.65-6.81,96.3,96.3,0,0,1,7.25-6.48q3.85-3.1,7.73-5.82c2.58-1.82,5-3.43,7.12-4.84l5.46-3.55a23.78,23.78,0,0,0,2.73-1.93l-49.52,13a1.71,1.71,0,0,1-1,.1,1.64,1.64,0,0,1-.82-.32,2.45,2.45,0,0,1-.82-1.13l-4.47-10.1c-.63-1.41-.36-2.38.8-2.89a3.56,3.56,0,0,1,1.56-.28c.58,0,1.28,0,2.1-.07a24.23,24.23,0,0,0,2.94-.44,20,20,0,0,0,4.06-1.39l30.21-13.37a21.16,21.16,0,0,0,3.75-2.07,24.17,24.17,0,0,0,2.3-1.88c.6-.57,1.09-1.07,1.47-1.51a3.54,3.54,0,0,1,1.25-1,1.76,1.76,0,0,1,.93-.14,2.14,2.14,0,0,1,.94.36,2.62,2.62,0,0,1,.82,1.14l4.46,10.09c.63,1.42.36,2.38-.8,2.9a3.68,3.68,0,0,1-1.56.28,20.31,20.31,0,0,0-2.1.07,24,24,0,0,0-2.94.43,21.52,21.52,0,0,0-4.06,1.39l-30.2,13.38a23.43,23.43,0,0,0-2.3,1.15c-.68.39-1.27.76-1.78,1.11l47.51-12.42a1.86,1.86,0,0,1,1.55.23,2.91,2.91,0,0,1,1,1.27l3.76,8.5a1.83,1.83,0,0,1-.27,1.94,11.71,11.71,0,0,1-2.6,2.24c-1,.67-2.54,1.68-4.69,3s-4.55,2.86-7.17,4.53-5.28,3.46-8,5.36-5.16,3.77-7.29,5.59a38.26,38.26,0,0,0-5,5q-1.83,2.31-1.16,3.83l31.27-13.84a12.3,12.3,0,0,0,3.94-2.88,9.25,9.25,0,0,0,1.63-2.77,21.09,21.09,0,0,0,.65-2.24,1.75,1.75,0,0,1,1-1.32,1.46,1.46,0,0,1,.67-.12,1.51,1.51,0,0,1,.62.27,1.89,1.89,0,0,1,.59.83l4.2,9.48C131.69,777.69,131.51,778.37,130.7,778.73Z"/><path class="cls-1" d="M89,732.62q-9.31,3-16.09,0t-9.59-11.78a23,23,0,0,1-1-5.55,15.24,15.24,0,0,1,.6-5.43,11.47,11.47,0,0,1,7.93-7.74,9.3,9.3,0,0,1,5.06-.41,8.22,8.22,0,0,1,3.71,2,13.35,13.35,0,0,1,2.68,3.71,34.35,34.35,0,0,1,1.91,4.75l2.67,8.29a39.29,39.29,0,0,0,7.64-3.24,22.46,22.46,0,0,0,4.72-3.48,9.24,9.24,0,0,0,2.21-3.28,4.18,4.18,0,0,0,.21-2.6,4.72,4.72,0,0,0-1.43-2.15,9.38,9.38,0,0,0-2.4-1.5,13.65,13.65,0,0,0-3-.91,20.55,20.55,0,0,0-3.12-.35,3.59,3.59,0,0,1-2.34-.77,3.74,3.74,0,0,1-1.15-1.68,3.52,3.52,0,0,1,.31-2.84,2.76,2.76,0,0,1,2.67-1.43,9.92,9.92,0,0,1,3.25.61,14.44,14.44,0,0,1,3.72,1.94,17.57,17.57,0,0,1,3.52,3.36,14.74,14.74,0,0,1,2.58,4.88,19.07,19.07,0,0,1,.89,8.61A17.85,17.85,0,0,1,102.4,723a21.54,21.54,0,0,1-5.59,5.77A28.35,28.35,0,0,1,89,732.62Zm-4.79-11.37-1.63-5a3.94,3.94,0,0,0-1.37-2.09,4.79,4.79,0,0,0-2.06-.86,7.68,7.68,0,0,0-2.44,0,15.08,15.08,0,0,0-2.47.58A34.71,34.71,0,0,0,71,715.05a17.42,17.42,0,0,0-2.83,1.52,7.54,7.54,0,0,0-1.85,1.69A1.82,1.82,0,0,0,66,720a3.15,3.15,0,0,0,1.65,1.6,10.92,10.92,0,0,0,3.73,1,28.58,28.58,0,0,0,5.59,0A39,39,0,0,0,84.23,721.25Z"/><path class="cls-1" d="M63.21,697.6l-5.7-4.39A5.88,5.88,0,0,1,56.34,692a3.92,3.92,0,0,1-.74-1.54,2.24,2.24,0,0,1,.34-1.82,4.25,4.25,0,0,1,2.59-1.33l.41-.09a19.58,19.58,0,0,1-4.46-3.78,12,12,0,0,1-2.57-5.24,16,16,0,0,1,.4-8.36,9.9,9.9,0,0,1,2-3.54,6.33,6.33,0,0,1,3.37-2A4.41,4.41,0,0,1,61,665a4.76,4.76,0,0,1,2.26,3.31,4.31,4.31,0,0,1-.56,3.66,13.67,13.67,0,0,1-2.49,2.67c-1,.79-1.82,1.51-2.6,2.18a2.25,2.25,0,0,0-.86,2.37A7.92,7.92,0,0,0,59,682.74a22.34,22.34,0,0,0,4.52,3.47l19.81-4.59a20.55,20.55,0,0,0,4.08-1.33A25.66,25.66,0,0,0,90,678.88c.69-.45,1.26-.85,1.72-1.21A3.55,3.55,0,0,1,93.1,677a1.7,1.7,0,0,1,1,0,2.17,2.17,0,0,1,.84.53,2.51,2.51,0,0,1,.59,1.27L98,689.54c.35,1.51-.1,2.41-1.34,2.7a3.67,3.67,0,0,1-1.58,0c-.57-.12-1.26-.23-2.08-.33a25.46,25.46,0,0,0-3-.12,21.39,21.39,0,0,0-4.25.6l-15.93,3.7a4.86,4.86,0,0,0-2.12,1c-.5.42-1,.78-1.37,1.08a2.09,2.09,0,0,1-1.26.42A3.9,3.9,0,0,1,63.21,697.6Z"/><path class="cls-1" d="M45.45,642.17a19.54,19.54,0,0,1-.1-4.72,16.41,16.41,0,0,1,1-4.52,10,10,0,0,1,2.29-3.52,6.21,6.21,0,0,1,3.52-1.74,4.49,4.49,0,0,1,3.19.87,4.8,4.8,0,0,1,2,3.49,3.65,3.65,0,0,1-.42,2.53,6.35,6.35,0,0,1-1.7,1.85,13.48,13.48,0,0,1-2.35,1.39c-.87.41-1.66.81-2.39,1.19a9,9,0,0,0-1.79,1.23,1.71,1.71,0,0,0-.57,1.55,3.73,3.73,0,0,0,1.45,2.1,10.91,10.91,0,0,0,3.8,1.91,26.57,26.57,0,0,0,6.11,1.08,40,40,0,0,0,8.45-.45,38.52,38.52,0,0,0,7.86-1.91,26.79,26.79,0,0,0,5.52-2.7,11.81,11.81,0,0,0,3.21-2.95,3.67,3.67,0,0,0,.88-2.56,4.12,4.12,0,0,0-1-2.16,7.62,7.62,0,0,0-2-1.6A14.79,14.79,0,0,0,77,630.82a3.55,3.55,0,0,1-2.3-1.05,3.62,3.62,0,0,1-.22-4.62A2.73,2.73,0,0,1,77.18,624a9.32,9.32,0,0,1,2.81.84,14,14,0,0,1,3.39,2.23,15.64,15.64,0,0,1,3,3.67,13.59,13.59,0,0,1,1.76,5.15,20.25,20.25,0,0,1-.41,8.62,17.46,17.46,0,0,1-3.62,6.74A19.94,19.94,0,0,1,77.94,656a27,27,0,0,1-8.19,2.5,28.7,28.7,0,0,1-9,0,18.91,18.91,0,0,1-7.29-2.75,16.92,16.92,0,0,1-5.24-5.43A21.18,21.18,0,0,1,45.45,642.17Z"/><path class="cls-1" d="M28.63,622.54l-4.9-5.28a5.87,5.87,0,0,1-.95-1.35,4.05,4.05,0,0,1-.48-1.64,2.28,2.28,0,0,1,.64-1.74,4.24,4.24,0,0,1,2.78-.88l22.45-1.36a21.83,21.83,0,0,1-4.68-4.5,10.69,10.69,0,0,1-2.11-6,11.15,11.15,0,0,1,2.09-7.28,11.4,11.4,0,0,1,6.93-4.41c.65-.15,1.67-.33,3-.52s2.9-.4,4.58-.61l5.28-.66,5.2-.6c1.63-.19,3.09-.37,4.38-.56s2.21-.36,2.75-.5a3.75,3.75,0,0,0,1.5-.72l1.15-.94a13,13,0,0,1,1.11-.81,2.72,2.72,0,0,1,1.39-.42,1.61,1.61,0,0,1,1.45.62,2.86,2.86,0,0,1,.6,1.67l.64,10.43a2.45,2.45,0,0,1-.88,2,5,5,0,0,1-3.27.95,84.61,84.61,0,0,1-8.76-.39,108.74,108.74,0,0,0-12-.26c-1.93.06-3.69.12-5.26.19a17.08,17.08,0,0,0-4,.58A5.28,5.28,0,0,0,46.78,599a3.51,3.51,0,0,0-.8,2.71,7.44,7.44,0,0,0,2.09,4.24,20.78,20.78,0,0,0,5,4.06l18.72-1.14a20.1,20.1,0,0,0,4.25-.63,25.82,25.82,0,0,0,2.81-1c.75-.32,1.39-.63,1.9-.91a3.55,3.55,0,0,1,1.51-.46,1.7,1.7,0,0,1,.92.19,2.13,2.13,0,0,1,.75.66,2.62,2.62,0,0,1,.37,1.35l.67,11c.1,1.55-.49,2.36-1.76,2.43a3.53,3.53,0,0,1-1.56-.27,20.77,20.77,0,0,0-2-.67,23.66,23.66,0,0,0-2.91-.62,20.72,20.72,0,0,0-4.29-.11l-37,2.25a4.93,4.93,0,0,0-2.25.6q-.84.51-1.53.84a2,2,0,0,1-1.32.2A3.93,3.93,0,0,1,28.63,622.54Z"/><path class="cls-1" d="M55.75,562.23a24.67,24.67,0,0,0-1.26-2.52c-.48-.84-.92-1.6-1.35-2.28a21.39,21.39,0,0,0-6.72,1.32q-2.73,1.08-2.78,3.24a3.45,3.45,0,0,0,1.59,2.66q1.62,1.33,3.53,2.79a26.52,26.52,0,0,1,3.53,3.25,5.65,5.65,0,0,1,1.55,4,3.94,3.94,0,0,1-1.54,3.4,5.12,5.12,0,0,1-3.06,1,6.1,6.1,0,0,1-3.7-1.34,9.76,9.76,0,0,1-2.69-3.56,20.54,20.54,0,0,1-1.55-5.4,36.35,36.35,0,0,1-.4-6.86q.18-7,2.8-10.1A11.45,11.45,0,0,1,51,548.07c.67-.09,1.69-.17,3.08-.25l4.61-.21,5.32-.19,5.24-.15c1.63,0,3.1-.09,4.4-.17a27.78,27.78,0,0,0,2.79-.26,3.63,3.63,0,0,0,1.55-.58l1.23-.84c.39-.27.79-.5,1.18-.72a2.87,2.87,0,0,1,1.42-.29,1.63,1.63,0,0,1,1.39.74,2.86,2.86,0,0,1,.45,1.72l-.28,10.45a2.18,2.18,0,0,1-.57,1.4,3.3,3.3,0,0,1-1.73.95A15.41,15.41,0,0,1,83.23,564a14.18,14.18,0,0,1,.74,4.8,10.84,10.84,0,0,1-1.16,4.78A11.4,11.4,0,0,1,80,577.16a12.79,12.79,0,0,1-3.88,2.22,11.69,11.69,0,0,1-4.37.71,12.41,12.41,0,0,1-6.56-1.79A14.59,14.59,0,0,1,60.92,574a28.87,28.87,0,0,1-2.84-5.73Q56.93,565.18,55.75,562.23Zm21.57-2.5c-2.37-.28-5.09-.67-8.14-1.17s-6.66-.88-10.81-1.16l-1.41,0c.32.45.69,1,1.12,1.69s.9,1.4,1.43,2.19a20.29,20.29,0,0,0,1.73,2.25,12.58,12.58,0,0,0,5.67,3.68,15.34,15.34,0,0,0,4.38.7,16.62,16.62,0,0,0,2.12-.11,9.75,9.75,0,0,0,2.34-.56,5.47,5.47,0,0,0,2-1.24,3.1,3.1,0,0,0,.84-2.22,5.59,5.59,0,0,0-.31-2.12A11,11,0,0,0,77.32,559.73Z"/><path class="cls-1" d="M48.52,536.81l-3.9-6a6,6,0,0,1-.71-1.51,4.11,4.11,0,0,1-.18-1.69,2.26,2.26,0,0,1,.94-1.6,4.17,4.17,0,0,1,2.88-.38l1.73.2a21.45,21.45,0,0,1-3.82-5.25,10.64,10.64,0,0,1-1-6.25,11.09,11.09,0,0,1,3.33-6.81,11.35,11.35,0,0,1,7.58-3.13c.68,0,1.71,0,3.09,0s2.93.11,4.62.2l5.31.27,5.23.31c1.63.11,3.1.18,4.4.22s2.24,0,2.8,0a3.61,3.61,0,0,0,1.6-.45l1.3-.73a11.72,11.72,0,0,1,1.24-.6,2.69,2.69,0,0,1,1.44-.17,1.62,1.62,0,0,1,1.32.86A3,3,0,0,1,88,506l-1.2,10.39a2.43,2.43,0,0,1-1.21,1.78,5,5,0,0,1-3.38.36,85,85,0,0,1-8.55-1.9,108.34,108.34,0,0,0-11.76-2.36c-1.92-.28-3.66-.52-5.23-.73a17.65,17.65,0,0,0-4-.13,5.46,5.46,0,0,0-2.75,1,3.53,3.53,0,0,0-1.25,2.53A7.38,7.38,0,0,0,50,521.48a20.62,20.62,0,0,0,4.2,4.87l18.63,2.15a20.62,20.62,0,0,0,4.29.11,23.69,23.69,0,0,0,2.94-.45c.8-.19,1.47-.38,2-.56a3.47,3.47,0,0,1,1.56-.2,1.8,1.8,0,0,1,.88.35,2.19,2.19,0,0,1,.62.78,2.59,2.59,0,0,1,.13,1.4l-1.26,11q-.27,2.31-2.16,2.1a3.53,3.53,0,0,1-1.48-.55c-.5-.31-1.11-.64-1.85-1a25.31,25.31,0,0,0-2.76-1.11,20.23,20.23,0,0,0-4.2-.86l-16.24-1.87a5,5,0,0,0-2.32.19q-.91.36-1.65.57a2,2,0,0,1-1.34,0A4,4,0,0,1,48.52,536.81Z"/><path class="cls-1" d="M50.42,477.66a12.24,12.24,0,0,1,2-4.66,16.15,16.15,0,0,1,3.69-3.64l-11-2.3a7.29,7.29,0,0,1-3.81,1.4c-1,0-1.93-1-2.85-2.8l-3.32-6.38a5.74,5.74,0,0,1-.56-1.56,4.07,4.07,0,0,1,0-1.7,2.26,2.26,0,0,1,1.08-1.51,4.15,4.15,0,0,1,2.91-.11l45.16,9.48a20.71,20.71,0,0,0,4.26.52,26.31,26.31,0,0,0,3-.19,20.41,20.41,0,0,0,2.07-.37,3.7,3.7,0,0,1,1.58,0c1.24.26,1.71,1.15,1.39,2.67l-1.74,8.28c-.24,1.14-.63,1.79-1.18,2a5.16,5.16,0,0,1-2.44-.09,15,15,0,0,1,2,4.83,12.13,12.13,0,0,1,0,5.09,12.35,12.35,0,0,1-3.06,5.89,18.12,18.12,0,0,1-5.75,4.13,23.41,23.41,0,0,1-7.46,2,26.6,26.6,0,0,1-16-3.36,23.93,23.93,0,0,1-6-4.87,17.68,17.68,0,0,1-3.56-6.09A12.61,12.61,0,0,1,50.42,477.66Zm20.17,8.56a54.93,54.93,0,0,0,5.71.86A25.26,25.26,0,0,0,82,487a12.1,12.1,0,0,0,4.5-1.43,4.71,4.71,0,0,0,2.34-3.29,6,6,0,0,0-.27-3.32,10.34,10.34,0,0,0-2-3.26l-26.24-5.51a11,11,0,0,0-3,2.2,6.06,6.06,0,0,0-1.59,2.93,4.76,4.76,0,0,0,.83,3.95,11.87,11.87,0,0,0,3.5,3.11,24.16,24.16,0,0,0,5.07,2.3A54.83,54.83,0,0,0,70.59,486.22Z"/><path class="cls-1" d="M39.43,438.38a7.1,7.1,0,0,1,3.6-4.51,7.48,7.48,0,0,1,5.77-.62,7.37,7.37,0,0,1,2.68,1.35,7.65,7.65,0,0,1,1.89,2.17,7.1,7.1,0,0,1,.93,2.71,7.68,7.68,0,0,1-.24,3,7.59,7.59,0,0,1-12,3.88,7.5,7.5,0,0,1-1.88-2.21,8,8,0,0,1-.95-2.76A7.16,7.16,0,0,1,39.43,438.38ZM63.83,451l-2.9-6.59a9.42,9.42,0,0,1-.62-1.77,3.62,3.62,0,0,1,0-1.85,1.84,1.84,0,0,1,1.21-1.25,5.43,5.43,0,0,1,3.13.22l24.14,6.77a20.74,20.74,0,0,0,4.21.79,22.67,22.67,0,0,0,3,0,19,19,0,0,0,2.09-.23,3.61,3.61,0,0,1,1.58.05,1.77,1.77,0,0,1,.81.49,2,2,0,0,1,.49.87,2.49,2.49,0,0,1-.09,1.4l-3,10.63a2.64,2.64,0,0,1-.56,1.05,2,2,0,0,1-.77.6,1.52,1.52,0,0,1-1.14.07,3.54,3.54,0,0,1-1.38-.77,20.89,20.89,0,0,0-1.66-1.29,23.39,23.39,0,0,0-2.55-1.53,19.85,19.85,0,0,0-4-1.51l-15.43-4.33a7.21,7.21,0,0,1-3.9,1.15C65.51,453.87,64.62,452.88,63.83,451Z"/><path class="cls-1" d="M90.69,436.81a3.65,3.65,0,0,1,1.63-2.07,7.44,7.44,0,0,1,2.54-.88,23.06,23.06,0,0,1,3-.27,23.06,23.06,0,0,0,3-.27,7.94,7.94,0,0,0,2.53-.84,3.45,3.45,0,0,0,1.62-2,4.08,4.08,0,0,0,.18-2.18,5.66,5.66,0,0,0-.76-2,6.69,6.69,0,0,0-3.39-2.65,6.06,6.06,0,0,0-4.31.13,21.14,21.14,0,0,0-4.47,2.54c-1.53,1.12-3.07,2.34-4.64,3.67a57.29,57.29,0,0,1-4.77,3.63A18.48,18.48,0,0,1,78,436a8.07,8.07,0,0,1-5.09-.13,8.84,8.84,0,0,1-4.63-3.4,13.7,13.7,0,0,1-2.09-5.15,19.31,19.31,0,0,1-.19-5.68,24.19,24.19,0,0,1,1.09-5.07,26.42,26.42,0,0,1,2.85-6,17,17,0,0,1,3.58-4,10.17,10.17,0,0,1,4-2,7.2,7.2,0,0,1,4,.2A4.5,4.5,0,0,1,84,407a4.79,4.79,0,0,1,.16,4,3.67,3.67,0,0,1-1.64,2.07A7.44,7.44,0,0,1,80,414a23.06,23.06,0,0,1-3,.27,23.06,23.06,0,0,0-3,.27,7.94,7.94,0,0,0-2.53.84,3.45,3.45,0,0,0-1.62,2,4.29,4.29,0,0,0-.18,2.18,5.37,5.37,0,0,0,.77,2,6.53,6.53,0,0,0,1.46,1.61,6.46,6.46,0,0,0,1.92,1.05,6.17,6.17,0,0,0,4.35-.12,20.27,20.27,0,0,0,4.56-2.55c1.56-1.13,3.15-2.37,4.75-3.72a54.45,54.45,0,0,1,4.91-3.67,19.68,19.68,0,0,1,5-2.4,8.07,8.07,0,0,1,5.09.13,8.32,8.32,0,0,1,4.53,3.41,13.37,13.37,0,0,1,1.9,5.18,19.92,19.92,0,0,1,0,5.72,26.16,26.16,0,0,1-4,11,17.07,17.07,0,0,1-3.6,4.07,10.13,10.13,0,0,1-4,2,7.23,7.23,0,0,1-4-.2,4.46,4.46,0,0,1-2.43-2.25A4.79,4.79,0,0,1,90.69,436.81Z"/><path class="cls-1" d="M58.59,382.84a7.08,7.08,0,0,1,4.09-4.06,7.51,7.51,0,0,1,5.81.06A7.34,7.34,0,0,1,71,380.5a8,8,0,0,1,1.63,2.38,7,7,0,0,1,.59,2.8,7.57,7.57,0,0,1-14.55,3A7.93,7.93,0,0,1,58,385.8,6.83,6.83,0,0,1,58.59,382.84Zm22.74,15.38-2.1-6.88a8.79,8.79,0,0,1-.41-1.83,3.45,3.45,0,0,1,.22-1.84,1.85,1.85,0,0,1,1.35-1.1,5.39,5.39,0,0,1,3.07.59l23.18,9.55a20.47,20.47,0,0,0,4.1,1.28,20.79,20.79,0,0,0,2.94.36,19,19,0,0,0,2.11,0,3.56,3.56,0,0,1,1.56.24,1.66,1.66,0,0,1,.75.58,2.11,2.11,0,0,1,.38.92,2.51,2.51,0,0,1-.25,1.37L114,411.69a2.44,2.44,0,0,1-.67,1,2.1,2.1,0,0,1-.84.51,1.57,1.57,0,0,1-1.14-.07,3.55,3.55,0,0,1-1.27-.93,19.74,19.74,0,0,0-1.51-1.47,23.88,23.88,0,0,0-2.34-1.82,20.75,20.75,0,0,0-3.81-2l-14.82-6.1a7.34,7.34,0,0,1-4,.68C82.66,401.28,81.9,400.19,81.33,398.22Z"/><path class="cls-1" d="M88.39,379.91l-1.64-7a5.73,5.73,0,0,1-.15-1.65A4,4,0,0,1,87,369.6a2.26,2.26,0,0,1,1.43-1.2,4.19,4.19,0,0,1,2.84.61l1.56.77A21.84,21.84,0,0,1,91,363.56a10.72,10.72,0,0,1,1.14-6.24A11.07,11.07,0,0,1,97.54,352a11.4,11.4,0,0,1,8.2-.4c.65.19,1.61.55,2.9,1.06s2.72,1.09,4.28,1.73l4.92,2.05,4.81,2c1.51.65,2.86,1.21,4.08,1.69s2.1.78,2.64.93a3.66,3.66,0,0,0,1.65.12l1.47-.25a13.74,13.74,0,0,1,1.37-.16,2.78,2.78,0,0,1,1.41.32,1.63,1.63,0,0,1,1,1.26,2.85,2.85,0,0,1-.31,1.75l-4.62,9.38a2.46,2.46,0,0,1-1.73,1.27,4.9,4.9,0,0,1-3.31-.8,83.07,83.07,0,0,1-7.42-4.66,105.86,105.86,0,0,0-10.28-6.18c-1.71-.9-3.27-1.72-4.67-2.44a17.77,17.77,0,0,0-3.76-1.48,5.54,5.54,0,0,0-2.92,0,3.54,3.54,0,0,0-2,2A7.39,7.39,0,0,0,94.9,366a20.59,20.59,0,0,0,2.32,6L114,380.23a20.71,20.71,0,0,0,4,1.56,24.47,24.47,0,0,0,2.92.55,20.53,20.53,0,0,0,2.1.16,3.56,3.56,0,0,1,1.54.34,1.74,1.74,0,0,1,.71.63,2.1,2.1,0,0,1,.32.94,2.57,2.57,0,0,1-.34,1.36l-4.88,9.9c-.68,1.39-1.6,1.81-2.74,1.25a3.59,3.59,0,0,1-1.21-1c-.36-.45-.83-1-1.4-1.57a22.72,22.72,0,0,0-2.22-2,20.87,20.87,0,0,0-3.67-2.22L94.5,382.91a5.09,5.09,0,0,0-2.25-.6c-.66,0-1.24,0-1.75,0a2,2,0,0,1-1.24-.48A3.93,3.93,0,0,1,88.39,379.91Z"/><path class="cls-1" d="M145.64,364a4,4,0,0,1,1.88-1.72,7.5,7.5,0,0,1,2.41-.52c.88-.05,1.78-.06,2.71-.05a14.07,14.07,0,0,0,2.81-.22,7.64,7.64,0,0,0,2.78-1.12,8.45,8.45,0,0,0,2.53-2.78,14.52,14.52,0,0,0,2.14-5.31,10.84,10.84,0,0,0-.19-4.4,8.48,8.48,0,0,0-1.79-3.43,11.86,11.86,0,0,0-2.74-2.36,6.42,6.42,0,0,0-4.08-1,9.15,9.15,0,0,0-4.09,1.59,22.34,22.34,0,0,0-4.17,3.72q-2.11,2.36-4.43,5.32-2.57,3.39-5.16,3.5A4.74,4.74,0,0,1,132,353c-.75-1.11-1.32-2-1.72-2.67s-.7-1.12-.87-1.36a13.91,13.91,0,0,1-6.6,1.56,15.38,15.38,0,0,1-7.84-2.61,15.86,15.86,0,0,1-5.55-5.25,14.46,14.46,0,0,1-2-6,16.56,16.56,0,0,1,.5-6.06,26.8,26.8,0,0,1,2.15-5.5c-.22-.27-.75-.86-1.58-1.79a14.1,14.1,0,0,1-2.19-3.49,12.58,12.58,0,0,1-1.06-4.79,10.07,10.07,0,0,1,1.72-5.66,16.56,16.56,0,0,1,2.29-2.88,13.57,13.57,0,0,1,3.19-2.42,9.67,9.67,0,0,1,3.64-1.18,5.65,5.65,0,0,1,3.65.87,4.45,4.45,0,0,1,1.89,2.72,4.77,4.77,0,0,1-.71,3.94,4,4,0,0,1-1.82,1.71,4.92,4.92,0,0,1-2.18.37,11.19,11.19,0,0,1-2.26-.36,21,21,0,0,0-2.19-.47,5.35,5.35,0,0,0-2,0,2.34,2.34,0,0,0-1.5,1.17,5.45,5.45,0,0,0-.87,3.26,7.79,7.79,0,0,0,.77,2.95,11.64,11.64,0,0,0,1.42,2.29,11,11,0,0,0,1.16,1.29,28.31,28.31,0,0,1,3.9-4.71,17.66,17.66,0,0,1,5.27-3.59,14.54,14.54,0,0,1,6.47-1.2,18.24,18.24,0,0,1,13.37,8.29,13.7,13.7,0,0,1,1.71,6.5,18.4,18.4,0,0,1-1.15,6.49,29.26,29.26,0,0,1-5.45,9.46,24.41,24.41,0,0,1-3.63,3.47c.3.45.66.93,1.06,1.43s.8,1,1.19,1.41.71.21,1.18-.35a22.15,22.15,0,0,0,1.83-2.67c.49-.8,1-1.68,1.57-2.64s1.18-2,1.87-3.14a37.12,37.12,0,0,1,6.69-8.46,18.63,18.63,0,0,1,6.1-3.75,9.78,9.78,0,0,1,5.24-.45,13.47,13.47,0,0,1,4.12,1.6,11,11,0,0,1,4.2,4.28,14.66,14.66,0,0,1,1.58,5.29,19.79,19.79,0,0,1-.29,5.72,39.26,39.26,0,0,1-1.48,5.51,42.23,42.23,0,0,1-1.95,4.7c-.69,1.39-1.27,2.46-1.73,3.22q-4.68,7.65-8.68,10.75t-7.6.89a4.53,4.53,0,0,1-1.89-2.72A4.84,4.84,0,0,1,145.64,364Zm-24.31-26.57a27.92,27.92,0,0,0,6.15,3,12.37,12.37,0,0,0,4.26.67,5,5,0,0,0,2.72-.87,5.32,5.32,0,0,0,2.26-3.68,5,5,0,0,0-.47-2.82,12.27,12.27,0,0,0-2.53-3.49,27.63,27.63,0,0,0-5.46-4.12,28.28,28.28,0,0,0-6.18-3,13.44,13.44,0,0,0-4.37-.73,5.11,5.11,0,0,0-2.83.8,5.5,5.5,0,0,0-1.55,1.58,5.36,5.36,0,0,0-.7,2.1,5.12,5.12,0,0,0,.57,2.88,13.28,13.28,0,0,0,2.64,3.56A28.16,28.16,0,0,0,121.33,337.47Z"/><path class="cls-1" d="M164.73,277.31l4.23,3.35-12.72,16.07L152,293.38Z"/><path class="cls-1" d="M197.91,274.17a3.5,3.5,0,0,1-.82-1.35,20,20,0,0,0-.82-1.94,22.36,22.36,0,0,0-1.46-2.59,19.83,19.83,0,0,0-2.74-3.29l-23.29-23.43a20.18,20.18,0,0,0-3.28-2.77,23.46,23.46,0,0,0-2.58-1.47c-.74-.36-1.39-.63-1.93-.83a3.51,3.51,0,0,1-1.35-.83c-.9-.9-.8-1.9.3-3l7.83-7.78a2.42,2.42,0,0,1,.77-.53,8,8,0,0,1,.82-.29,1.18,1.18,0,0,1,.88.12,12.72,12.72,0,0,1,3.54-6.44,13,13,0,0,1,5.7-3.33,17.51,17.51,0,0,1,6.87-.51,21.73,21.73,0,0,1,7.15,2.19,25.84,25.84,0,0,1,11.36,11.42A21.79,21.79,0,0,1,207,234.7a17.44,17.44,0,0,1-.54,6.86,13.05,13.05,0,0,1-3.37,5.69,13.66,13.66,0,0,1-9.16,4l6,6a20.17,20.17,0,0,0,3.27,2.77,25.52,25.52,0,0,0,2.58,1.48c.74.35,1.39.63,1.94.83a3.53,3.53,0,0,1,1.34.82c.9.9.8,1.9-.3,3l-7.83,7.79a2.62,2.62,0,0,1-1,.64,2.09,2.09,0,0,1-1,.14A1.55,1.55,0,0,1,197.91,274.17Zm-21.3-40.38,14.33,14.42a10.15,10.15,0,0,0,3.64-.28,6.35,6.35,0,0,0,2.88-1.64,4.94,4.94,0,0,0,1.57-3.66,11,11,0,0,0-1-4.35,21.91,21.91,0,0,0-2.81-4.53,49.15,49.15,0,0,0-3.71-4.2,48.64,48.64,0,0,0-4.22-3.77,21.71,21.71,0,0,0-4.54-2.86,10.77,10.77,0,0,0-4.34-1.07,5,5,0,0,0-3.67,1.54,6.05,6.05,0,0,0-1.77,2.81,5,5,0,0,0,.14,2.68,8.09,8.09,0,0,0,1.4,2.52A29.17,29.17,0,0,0,176.61,233.79Z"/><path class="cls-1" d="M193.69,202.16l1.38-7.06a5.82,5.82,0,0,1,.53-1.57,4.06,4.06,0,0,1,1-1.35,2.3,2.3,0,0,1,1.79-.51,4.2,4.2,0,0,1,2.34,1.73l14.33,17.34a21.7,21.7,0,0,1,.88-6.44,10.75,10.75,0,0,1,3.59-5.23,11.13,11.13,0,0,1,7.12-2.59,11.4,11.4,0,0,1,7.64,3c.51.44,1.25,1.16,2.21,2.16s2,2.11,3.19,3.34,2.38,2.52,3.64,3.88,2.46,2.64,3.56,3.85,2.11,2.27,3,3.2,1.59,1.58,2,1.93a3.76,3.76,0,0,0,1.46.79l1.44.37a12.74,12.74,0,0,1,1.32.42,2.82,2.82,0,0,1,1.15.88,1.62,1.62,0,0,1,.36,1.53,2.93,2.93,0,0,1-1,1.47L248.65,230a2.45,2.45,0,0,1-2.1.44,4.87,4.87,0,0,1-2.7-2.08A84.79,84.79,0,0,1,239,221a110.33,110.33,0,0,0-6.85-9.84q-1.78-2.3-3.26-4.15a18.13,18.13,0,0,0-2.82-2.89,5.45,5.45,0,0,0-2.66-1.19,3.52,3.52,0,0,0-2.66,1,7.42,7.42,0,0,0-2.19,4.19,20.63,20.63,0,0,0-.35,6.42L230.17,229a20.24,20.24,0,0,0,3,3.05,22.46,22.46,0,0,0,2.43,1.71c.7.42,1.32.75,1.85,1a3.44,3.44,0,0,1,1.26,1,1.58,1.58,0,0,1,.39.86,2.12,2.12,0,0,1-.09,1,2.55,2.55,0,0,1-.87,1.1l-8.51,7c-1.19,1-2.2,1-3,0a3.77,3.77,0,0,1-.69-1.42q-.21-.84-.63-2a25,25,0,0,0-1.22-2.71,20.49,20.49,0,0,0-2.43-3.53L198,207.4a4.87,4.87,0,0,0-1.81-1.46c-.6-.26-1.13-.5-1.58-.74a2.05,2.05,0,0,1-.94-.95A4,4,0,0,1,193.69,202.16Z"/><path class="cls-1" d="M251.94,175a21.75,21.75,0,0,1,7.86-3.51,16.57,16.57,0,0,1,7.55.18,19.46,19.46,0,0,1,6.95,3.49,30.8,30.8,0,0,1,9.94,14.57,19.28,19.28,0,0,1,.74,7.79,16.4,16.4,0,0,1-2.59,7.09,21.79,21.79,0,0,1-6.13,6,21.55,21.55,0,0,1-7.86,3.5,16.42,16.42,0,0,1-7.55-.17,19.29,19.29,0,0,1-7-3.53,30.85,30.85,0,0,1-9.94-14.57,19.56,19.56,0,0,1-.72-7.75,16.42,16.42,0,0,1,2.6-7.09A21.66,21.66,0,0,1,251.94,175Zm6,22a45.39,45.39,0,0,0,5.27,6.56,24.76,24.76,0,0,0,4.76,3.88,9.87,9.87,0,0,0,3.93,1.49,4.1,4.1,0,0,0,2.82-.57,4.16,4.16,0,0,0,1.57-2.42,9.9,9.9,0,0,0,0-4.2,24.46,24.46,0,0,0-1.88-5.86A53.48,53.48,0,0,0,265,182a25.17,25.17,0,0,0-4.73-3.85,9.87,9.87,0,0,0-3.93-1.49,3.7,3.7,0,0,0-4.39,3,9.87,9.87,0,0,0,0,4.2,25,25,0,0,0,1.86,5.82A46,46,0,0,0,257.93,197Z"/><path class="cls-1" d="M271,163.37l5-2.91L274,157a7.37,7.37,0,0,1-3.59-1.9c-.63-.76-.56-2.09.19-4l2.53-6.74a5.84,5.84,0,0,1,.79-1.46,4,4,0,0,1,1.25-1.15,2.25,2.25,0,0,1,1.85-.2,4.16,4.16,0,0,1,2,2.09l6.52,11.28,5-2.9a1.29,1.29,0,0,1,1.14-.18,1.49,1.49,0,0,1,.76.66,1.44,1.44,0,0,1,.19,1,1.29,1.29,0,0,1-.72.9l-5,2.9,10.51,18.19c.44.77,1.09,1.86,1.94,3.28s1.76,2.81,2.72,4.14a25.67,25.67,0,0,0,2.79,3.32c.89.89,1.6,1.18,2.13.88,1-.55,1.22-1.49.78-2.8a45.45,45.45,0,0,0-1.89-4.61,3.47,3.47,0,0,1-.21-2.76,3.65,3.65,0,0,1,1.57-1.86,3.6,3.6,0,0,1,2.71-.36,3.37,3.37,0,0,1,2.3,2.07,8.07,8.07,0,0,1,.73,2.93,10.74,10.74,0,0,1-.37,3.67,11.67,11.67,0,0,1-1.95,3.85,13,13,0,0,1-4.08,3.46,12.64,12.64,0,0,1-4.95,1.81,9.16,9.16,0,0,1-7.4-2.44,24.2,24.2,0,0,1-2.67-3,26.69,26.69,0,0,1-2.11-3.24c-.6-1.09-1.13-2-1.6-2.86l-10.5-18.19-5,2.91a1.29,1.29,0,0,1-1.14.18,1.49,1.49,0,0,1-.76-.66,1.44,1.44,0,0,1-.19-1A1.29,1.29,0,0,1,271,163.37Z"/><path class="cls-1" d="M317.79,137.28a21.6,21.6,0,0,1,8.31-2.22,16.48,16.48,0,0,1,7.43,1.35,19.43,19.43,0,0,1,6.32,4.54,30.87,30.87,0,0,1,7.53,16,19.29,19.29,0,0,1-.49,7.81,16.5,16.5,0,0,1-3.67,6.6,24.16,24.16,0,0,1-15.31,7.23,16.53,16.53,0,0,1-7.44-1.36,19.22,19.22,0,0,1-6.33-4.58,30.93,30.93,0,0,1-7.54-15.94,19.64,19.64,0,0,1,.51-7.77,16.39,16.39,0,0,1,3.68-6.6A21.51,21.51,0,0,1,317.79,137.28ZM320.25,160a45.94,45.94,0,0,0,4.18,7.29,24.57,24.57,0,0,0,4.09,4.59,10,10,0,0,0,3.65,2.09,4.16,4.16,0,0,0,2.88-.13,4.09,4.09,0,0,0,1.92-2.14,10,10,0,0,0,.71-4.15,25.3,25.3,0,0,0-.94-6.07,46.71,46.71,0,0,0-3-7.86,47.33,47.33,0,0,0-4.2-7.34,25,25,0,0,0-4.08-4.54,9.82,9.82,0,0,0-3.64-2.09,3.72,3.72,0,0,0-4.81,2.27,9.92,9.92,0,0,0-.7,4.14,25.23,25.23,0,0,0,.92,6A45.53,45.53,0,0,0,320.25,160Z"/><path class="cls-1" d="M359.9,173.81a4.14,4.14,0,0,1,2.55-.17,7.56,7.56,0,0,1,2.2,1.1c.72.51,1.43,1.06,2.15,1.65a13.71,13.71,0,0,0,2.34,1.58,7.53,7.53,0,0,0,2.87.86,8.44,8.44,0,0,0,3.71-.59,14.75,14.75,0,0,0,5-2.82,10.76,10.76,0,0,0,2.6-3.55,8.54,8.54,0,0,0,.74-3.8,11.54,11.54,0,0,0-.67-3.55,6.35,6.35,0,0,0-2.54-3.36,9,9,0,0,0-4.18-1.31,22.45,22.45,0,0,0-5.59.3c-2.08.34-4.34.81-6.77,1.39q-4.12,1.07-6.23-.48a4.72,4.72,0,0,1-1.91-4.42c.11-1.34.21-2.39.31-3.16s.16-1.31.17-1.61a13.93,13.93,0,0,1-6.13-2.9A15.39,15.39,0,0,1,346,142a15.87,15.87,0,0,1-1.07-7.56,14.56,14.56,0,0,1,2.13-5.94,16.62,16.62,0,0,1,4.18-4.43,26.4,26.4,0,0,1,5.11-3c0-.35-.05-1.15-.11-2.39a13.8,13.8,0,0,1,.45-4.09,12.76,12.76,0,0,1,2.16-4.4,10.1,10.1,0,0,1,4.88-3.36,15.85,15.85,0,0,1,3.59-.81,13.4,13.4,0,0,1,4,.09,9.85,9.85,0,0,1,3.58,1.35,5.62,5.62,0,0,1,2.31,3,4.42,4.42,0,0,1-.22,3.3,4.8,4.8,0,0,1-3,2.64,4,4,0,0,1-2.49.19,4.75,4.75,0,0,1-1.93-1.06,10.78,10.78,0,0,1-1.54-1.69,21.42,21.42,0,0,0-1.43-1.74,5.51,5.51,0,0,0-1.54-1.21,2.31,2.31,0,0,0-1.9,0,5.39,5.39,0,0,0-2.72,2,7.86,7.86,0,0,0-1.24,2.79,11.91,11.91,0,0,0-.31,2.67,9.77,9.77,0,0,0,.1,1.73,28.46,28.46,0,0,1,6-1.25,17.86,17.86,0,0,1,6.35.48,14.64,14.64,0,0,1,5.81,3.11,18.27,18.27,0,0,1,5.28,14.81,13.79,13.79,0,0,1-2.72,6.15,18.33,18.33,0,0,1-4.95,4.36,31.87,31.87,0,0,1-5.63,2.74,30.62,30.62,0,0,1-4.54,1.25,23.56,23.56,0,0,1-5,.44c0,.55-.06,1.14-.06,1.79s0,1.26.05,1.84.43.61,1.14.47a23.2,23.2,0,0,0,3.1-.95c.89-.32,1.84-.68,2.87-1.08s2.18-.84,3.42-1.29a36.58,36.58,0,0,1,10.51-2.44,18.86,18.86,0,0,1,7.11.87,9.82,9.82,0,0,1,4.37,2.92,13.34,13.34,0,0,1,2.22,3.83,11,11,0,0,1,.62,6,14.9,14.9,0,0,1-2.07,5.13,19.85,19.85,0,0,1-3.79,4.28,40.18,40.18,0,0,1-4.6,3.39,42.3,42.3,0,0,1-4.45,2.45c-1.41.66-2.54,1.14-3.37,1.44q-8.41,3.06-13.48,3c-3.37-.05-5.54-1.39-6.5-4.05a4.47,4.47,0,0,1,.22-3.3A4.83,4.83,0,0,1,359.9,173.81Zm-2.42-35.93a28.14,28.14,0,0,0,2.94,6.17,12,12,0,0,0,2.92,3.18,4.92,4.92,0,0,0,2.66,1,5.93,5.93,0,0,0,2.19-.3,6,6,0,0,0,1.87-1.17,4.9,4.9,0,0,0,1.39-2.49,12.32,12.32,0,0,0,.21-4.31A35.51,35.51,0,0,0,367,127.15a13.29,13.29,0,0,0-3-3.3,5.16,5.16,0,0,0-2.7-1.14,5.39,5.39,0,0,0-2.2.27,5.25,5.25,0,0,0-1.86,1.2,5.13,5.13,0,0,0-1.35,2.61,13.25,13.25,0,0,0-.16,4.43A28.33,28.33,0,0,0,357.48,137.88Z"/><path class="cls-1" d="M387,117.58l4.22-5.83a6.09,6.09,0,0,1,1.14-1.21,4,4,0,0,1,1.51-.78,2.28,2.28,0,0,1,1.84.29,4.22,4.22,0,0,1,1.4,2.55l.1.4a19.42,19.42,0,0,1,3.65-4.57A12,12,0,0,1,406,105.7a15.75,15.75,0,0,1,4.08-.48,15.24,15.24,0,0,1,4.29.63,10.12,10.12,0,0,1,3.59,1.93A6.35,6.35,0,0,1,420,111.1a4.43,4.43,0,0,1-.51,3.26,4.79,4.79,0,0,1-3.24,2.36,4.33,4.33,0,0,1-3.68-.45,13.62,13.62,0,0,1-2.74-2.41l-2.26-2.54a2.27,2.27,0,0,0-2.4-.78,8,8,0,0,0-3.5,2.34,22.31,22.31,0,0,0-3.33,4.61l5.18,19.67a20.62,20.62,0,0,0,1.45,4,24.35,24.35,0,0,0,1.49,2.57c.47.68.89,1.24,1.26,1.69a3.48,3.48,0,0,1,.76,1.39,1.76,1.76,0,0,1,0,.94,2.16,2.16,0,0,1-.5.86,2.56,2.56,0,0,1-1.25.63l-10.68,2.82c-1.5.39-2.41,0-2.73-1.25a3.49,3.49,0,0,1,0-1.58c.11-.58.19-1.27.26-2.09a25.5,25.5,0,0,0,0-3,21.07,21.07,0,0,0-.73-4.23l-4.17-15.81a4.92,4.92,0,0,0-1-2.09c-.45-.49-.82-.93-1.13-1.34a2,2,0,0,1-.46-1.25A4,4,0,0,1,387,117.58Z"/><path class="cls-1" d="M442.29,113.18a26.67,26.67,0,0,0,2.22-1.73c.74-.64,1.39-1.23,2-1.78a21.55,21.55,0,0,0-2.62-6.32q-1.61-2.46-3.74-2.09a3.51,3.51,0,0,0-2.29,2.08q-1,1.86-2,4a25.9,25.9,0,0,1-2.49,4.1,5.58,5.58,0,0,1-3.64,2.32A3.94,3.94,0,0,1,426,113a5.13,5.13,0,0,1-1.54-2.81,6,6,0,0,1,.58-3.89,9.53,9.53,0,0,1,3-3.34,20,20,0,0,1,5-2.6,37.48,37.48,0,0,1,6.64-1.75q7-1.22,10.46.75a11.4,11.4,0,0,1,5.11,6.39c.23.64.51,1.63.86,3s.72,2.84,1.12,4.48.81,3.37,1.24,5.18.82,3.5,1.18,5.1.71,3,1.05,4.28.6,2.16.8,2.68a3.82,3.82,0,0,0,.88,1.41l1.06,1c.34.34.66.68.94,1a2.89,2.89,0,0,1,.57,1.33,1.62,1.62,0,0,1-.45,1.51,2.93,2.93,0,0,1-1.59.79l-10.31,1.8a2.22,2.22,0,0,1-1.48-.29,3.26,3.26,0,0,1-1.27-1.51,15.46,15.46,0,0,1-3.82,3,14.14,14.14,0,0,1-4.55,1.67,10.94,10.94,0,0,1-4.92-.19,11.21,11.21,0,0,1-4.07-2.07,12.82,12.82,0,0,1-2.95-3.36,11.89,11.89,0,0,1-1.56-4.15,12.25,12.25,0,0,1,.46-6.78,14.56,14.56,0,0,1,3.33-5,29.08,29.08,0,0,1,5.05-3.91C438.69,115.5,440.52,114.33,442.29,113.18ZM449,133.83q-.28-3.57-.46-8.22t-1-10.82l-.24-1.39c-.38.41-.86.88-1.44,1.43s-1.2,1.17-1.86,1.85a18.18,18.18,0,0,0-1.86,2.13,12.77,12.77,0,0,0-1.59,2.76,13,13,0,0,0-.9,3.53,15.06,15.06,0,0,0,.19,4.43,15.53,15.53,0,0,0,.52,2.06,9.64,9.64,0,0,0,1,2.18,5.27,5.27,0,0,0,1.59,1.66,3.07,3.07,0,0,0,2.35.39,5.66,5.66,0,0,0,2-.73A10.31,10.31,0,0,0,449,133.83Z"/><path class="cls-1" d="M465.79,101.16l5.15-5a8.7,8.7,0,0,1,1.45-1,4,4,0,0,1,1.66-.56,2.14,2.14,0,0,1,1.63.53,3.5,3.5,0,0,1,.87,2.42,15.31,15.31,0,0,1,4.05-3.3,12.11,12.11,0,0,1,4.88-1.46A12.26,12.26,0,0,1,492,94a18.26,18.26,0,0,1,5.61,4.31,23.9,23.9,0,0,1,4.1,6.57,26.61,26.61,0,0,1,1.39,16.29,24,24,0,0,1-2.93,7.16,17.65,17.65,0,0,1-4.81,5.16,12.53,12.53,0,0,1-6.22,2.28,12.21,12.21,0,0,1-5.05-.61,16.06,16.06,0,0,1-4.54-2.49l.95,11.25a20.9,20.9,0,0,0,.74,4.22,23.5,23.5,0,0,0,1,2.79c.34.75.66,1.37,1,1.88a3.55,3.55,0,0,1,.5,1.5c.11,1.26-.61,2-2.15,2.09l-11,.94a2.51,2.51,0,0,1-1.18-.15,2.32,2.32,0,0,1-.83-.47,1.52,1.52,0,0,1-.47-1.08,3.7,3.7,0,0,1,.24-1.57,19.11,19.11,0,0,0,.62-2,24.84,24.84,0,0,0,.55-2.92,20.91,20.91,0,0,0,0-4.29l-3.15-36.88a7.37,7.37,0,0,1-2.44-3.25Q463.55,103.26,465.79,101.16Zm19.65,30.23a4.74,4.74,0,0,0,3.54-1.93,12.1,12.1,0,0,0,2-4.25,24,24,0,0,0,.74-5.52,51,51,0,0,0-.16-5.73,52.15,52.15,0,0,0-.82-5.72,25,25,0,0,0-1.66-5.4A12,12,0,0,0,486.38,99a4.72,4.72,0,0,0-3.82-1.3,6,6,0,0,0-3.1,1.22,10.37,10.37,0,0,0-2.55,2.84l2.28,26.71a10.81,10.81,0,0,0,3,2.29A6,6,0,0,0,485.44,131.39Z"/><path class="cls-1" d="M509.83,76.86l5.63-4.48a6.15,6.15,0,0,1,1.43-.85,4,4,0,0,1,1.67-.34,2.25,2.25,0,0,1,1.68.77,4.1,4.1,0,0,1,.66,2.83l-.36,22.5A21.81,21.81,0,0,1,525.38,93a10.76,10.76,0,0,1,6.13-1.64,11.11,11.11,0,0,1,7.1,2.65,11.37,11.37,0,0,1,3.86,7.24c.1.67.2,1.69.29,3.08s.17,2.92.25,4.61.17,3.46.25,5.31.15,3.6.2,5.24.13,3.1.22,4.4.19,2.23.29,2.79a3.61,3.61,0,0,0,.6,1.54c.3.42.58.83.85,1.22s.51.78.73,1.17a2.87,2.87,0,0,1,.31,1.42,1.65,1.65,0,0,1-.73,1.4,2.93,2.93,0,0,1-1.71.47l-10.46-.17a2.44,2.44,0,0,1-1.89-1,4.93,4.93,0,0,1-.69-3.33,85.24,85.24,0,0,1,1-8.7,108.15,108.15,0,0,0,1.19-11.93c.09-1.94.16-3.69.21-5.27a16.9,16.9,0,0,0-.27-4,5.42,5.42,0,0,0-1.24-2.64,3.53,3.53,0,0,0-2.64-1,7.38,7.38,0,0,0-4.39,1.75,20.88,20.88,0,0,0-4.43,4.66l-.3,18.76a20.37,20.37,0,0,0,.3,4.28,24.46,24.46,0,0,0,.74,2.87c.27.78.52,1.44.76,2a3.54,3.54,0,0,1,.35,1.54,1.82,1.82,0,0,1-.27.91,2.23,2.23,0,0,1-.71.69,2.6,2.6,0,0,1-1.38.27l-11-.18c-1.55,0-2.32-.67-2.3-1.95a3.6,3.6,0,0,1,.4-1.53,20.75,20.75,0,0,0,.82-1.93,24.17,24.17,0,0,0,.84-2.85,21.17,21.17,0,0,0,.44-4.27l.6-37.1a5.07,5.07,0,0,0-.42-2.29,14.88,14.88,0,0,1-.72-1.59,2,2,0,0,1-.1-1.33A3.87,3.87,0,0,1,509.83,76.86Z"/><path class="cls-1" d="M550.69,92.41l11.9,1.13a2.83,2.83,0,0,1,1.87,1,1.53,1.53,0,0,1,.26,1.15,9.74,9.74,0,0,1-.55,2.33,3.58,3.58,0,0,0,.08,2.63l7.89,23,7.44-15.88a7.62,7.62,0,0,0,.9-4.21,8,8,0,0,0-1-3,13.91,13.91,0,0,0-1.55-2.11,2.15,2.15,0,0,1-.72-1.61q.18-1.91,2.49-1.68l9.92,1a2.59,2.59,0,0,1,1.13.35,2.33,2.33,0,0,1,.73.62,1.48,1.48,0,0,1,.27,1.15,1.66,1.66,0,0,1-1,1.24,26.08,26.08,0,0,0-2.23,1.46,21.23,21.23,0,0,0-2.91,2.59,20.73,20.73,0,0,0-3.1,4.5q-2.44,4.77-4.88,10.17t-4.9,10.7q-2.47,5.31-4.93,10.16a71.75,71.75,0,0,1-5,8.49,27.16,27.16,0,0,1-5.09,5.73,7.14,7.14,0,0,1-5.22,1.84,12.6,12.6,0,0,1-3-.74,12.36,12.36,0,0,1-3.09-1.72,8.31,8.31,0,0,1-2.32-2.76,6.79,6.79,0,0,1-.67-3.9,3.66,3.66,0,0,1,1.75-3,5.35,5.35,0,0,1,3.28-.73,4.74,4.74,0,0,1,2.84,1.23,3.33,3.33,0,0,1,1,3c-.16,1.65-.26,3-.31,4.18s.19,1.73.74,1.78a4.48,4.48,0,0,0,3-.92,15.36,15.36,0,0,0,3.08-3,40.85,40.85,0,0,0,3.16-4.71c1.06-1.81,2.14-3.81,3.24-6L553,101.89a7.54,7.54,0,0,0-1.14-2c-.55-.72-1.1-1.41-1.68-2.08a15.59,15.59,0,0,1-1.48-2,2.81,2.81,0,0,1-.54-1.72Q548.38,92.18,550.69,92.41Z"/><path class="cls-1" d="M635.83,121.84l-1.18,5.27-20-4.47,1.18-5.26Z"/><text/></g></g></svg>