<svg xmlns="http://www.w3.org/2000/svg" viewBox="0 0 1047.76 1098.26"><defs><style>.cls-1{fill:#fff;}</style></defs><title>mid1</title><g id="Layer_2" data-name="Layer 2"><g id="Layer_1-2" data-name="Layer 1"><text/><path class="cls-1" d="M679.59,265.92l-2.12,4.61-17.51-8,2.12-4.61Z"/><path class="cls-1" d="M689.07,295.35a1.65,1.65,0,0,1,1.44-.71,17.25,17.25,0,0,0,2.22-.16,8.64,8.64,0,0,0,2.84-1,10.59,10.59,0,0,0,3.31-3.15l18.71-26.7a10.54,10.54,0,0,0,1.87-4.22,8.88,8.88,0,0,0-.05-3,19.26,19.26,0,0,0-.6-2.13,1.64,1.64,0,0,1,.17-1.6,1,1,0,0,1,.55-.38,1.33,1.33,0,0,1,1.44.25l5,3.54a9.68,9.68,0,0,1,3.71,5,20.58,20.58,0,0,1,.9,7,39.19,39.19,0,0,1-1.25,8.23,91,91,0,0,1-2.69,8.73q-1.59,4.37-3.39,8.44t-3.38,7.34l-2.67,5.51a21.09,21.09,0,0,0-1.26,2.88l33.52-34.51a1.7,1.7,0,0,1,.8-.59,1.49,1.49,0,0,1,.81-.14,2.35,2.35,0,0,1,1.21.51l8.5,6c1.19.83,1.44,1.74.76,2.72a3.48,3.48,0,0,1-1.12,1,18.8,18.8,0,0,0-1.66,1.08,22.18,22.18,0,0,0-2.15,1.77,19.18,19.18,0,0,0-2.59,3.09l-17.82,25.42a19.15,19.15,0,0,0-2,3.49,24.16,24.16,0,0,0-.94,2.63c-.2.75-.35,1.39-.44,1.93a3.41,3.41,0,0,1-.54,1.38,1.59,1.59,0,0,1-.69.57,1.85,1.85,0,0,1-.92.16,2.35,2.35,0,0,1-1.21-.51l-8.5-6c-1.19-.83-1.44-1.74-.76-2.72a3.48,3.48,0,0,1,1.12-1c.48-.27,1-.63,1.66-1.07a22.45,22.45,0,0,0,2.15-1.78,19.18,19.18,0,0,0,2.59-3.09l17.82-25.42a22.31,22.31,0,0,0,1.29-2.05c.36-.64.65-1.22.9-1.75l-32.21,33.05a1.79,1.79,0,0,1-1.36.57,2.69,2.69,0,0,1-1.44-.53l-7.15-5a1.74,1.74,0,0,1-.72-1.7,10.89,10.89,0,0,1,1-3.06q.69-1.51,2.31-4.72t3.56-7.12q1.95-3.93,3.85-8.21t3.15-8a35.91,35.91,0,0,0,1.61-6.5c.23-1.83-.07-3.05-.93-3.64L701,291.79a11.51,11.51,0,0,0-1.78,4.24,8.85,8.85,0,0,0,0,3,19.34,19.34,0,0,0,.57,2.11,1.67,1.67,0,0,1-.2,1.57,1.35,1.35,0,0,1-.49.42,1.5,1.5,0,0,1-.63.09,1.85,1.85,0,0,1-.87-.38l-8-5.6C688.78,296.67,688.59,296,689.07,295.35Z"/><path class="cls-1" d="M760.88,319.57a24.75,24.75,0,0,0,2.57.69c.89.18,1.7.34,2.44.46a20.24,20.24,0,0,0,3.25-5.55q.93-2.6-.55-4a3.27,3.27,0,0,0-2.86-.54c-1.3.22-2.69.47-4.17.76a24.06,24.06,0,0,1-4.48.46,5.27,5.27,0,0,1-3.81-1.41,3.68,3.68,0,0,1-1.43-3.2,4.81,4.81,0,0,1,1.22-2.75,5.73,5.73,0,0,1,3.25-1.77,9.11,9.11,0,0,1,4.18.32,18.57,18.57,0,0,1,4.77,2.26,34.84,34.84,0,0,1,5.08,4q4.86,4.53,5.37,8.26a10.77,10.77,0,0,1-1.88,7.46c-.35.53-.93,1.3-1.74,2.32s-1.72,2.15-2.73,3.38-2.06,2.52-3.17,3.87S764,337.2,763,338.37s-1.86,2.25-2.62,3.21-1.27,1.68-1.55,2.13a3.38,3.38,0,0,0-.55,1.45c-.06.48-.12.94-.18,1.39a10.35,10.35,0,0,1-.23,1.28,2.64,2.64,0,0,1-.67,1.18,1.54,1.54,0,0,1-1.39.52,2.79,2.79,0,0,1-1.49-.75l-7.19-6.7a2.11,2.11,0,0,1-.63-1.27A3.06,3.06,0,0,1,747,339a14.19,14.19,0,0,1-4.4-1.17,13.32,13.32,0,0,1-3.84-2.46,10.34,10.34,0,0,1-2.65-3.79,10.65,10.65,0,0,1-.76-4.23,12.12,12.12,0,0,1,.85-4.11,11,11,0,0,1,2.22-3.53,11.57,11.57,0,0,1,5.34-3.5,13.64,13.64,0,0,1,5.65-.34,26.83,26.83,0,0,1,5.79,1.56Q758.09,318.57,760.88,319.57Zm-11.65,16.75c1.67-1.49,3.64-3.16,5.89-5s4.76-4.14,7.54-6.89l.9-1c-.52-.05-1.15-.14-1.89-.26s-1.55-.24-2.44-.36a18.2,18.2,0,0,0-2.65-.18,12.47,12.47,0,0,0-3,.38,12.31,12.31,0,0,0-3.15,1.33,14.67,14.67,0,0,0-4.46,4.21,9.14,9.14,0,0,0-1.06,2,5.14,5.14,0,0,0-.34,2.14,2.94,2.94,0,0,0,1,2,5.3,5.3,0,0,0,1.69,1.09A9.69,9.69,0,0,0,749.23,336.32Z"/><path class="cls-1" d="M783.51,330.77l6.66,1.16a5.38,5.38,0,0,1,1.48.47,3.7,3.7,0,0,1,1.29,1,2.09,2.09,0,0,1,.51,1.67,3.94,3.94,0,0,1-1.58,2.23l-.29.25a18.32,18.32,0,0,1,5.35,1.21,11.29,11.29,0,0,1,4.44,3.23,14.61,14.61,0,0,1,2.07,3.25,14,14,0,0,1,1.23,3.89,9.29,9.29,0,0,1-.14,3.83,6.07,6.07,0,0,1-1.95,3.12,4.25,4.25,0,0,1-3,.91,4.54,4.54,0,0,1-3.33-1.77,4.11,4.11,0,0,1-1.13-3.3,12.86,12.86,0,0,1,.91-3.3c.45-1.07.85-2.06,1.21-2.95a2.11,2.11,0,0,0-.32-2.35,7.41,7.41,0,0,0-3.42-2,21.18,21.18,0,0,0-5.26-.92l-14.49,12.47a18.55,18.55,0,0,0-2.81,2.89,21.42,21.42,0,0,0-1.56,2.31c-.38.67-.68,1.26-.91,1.76a3.44,3.44,0,0,1-.86,1.21,1.69,1.69,0,0,1-.8.38,2,2,0,0,1-.94-.07,2.48,2.48,0,0,1-1-.8l-6.76-7.86c-1-1.1-1-2-.07-2.83a3.43,3.43,0,0,1,1.32-.67c.53-.15,1.16-.36,1.88-.64a20.81,20.81,0,0,0,2.52-1.19A19.27,19.27,0,0,0,767,345l11.65-10a4.63,4.63,0,0,0,1.35-1.72c.22-.58.45-1.07.66-1.5a1.9,1.9,0,0,1,.87-.9A3.64,3.64,0,0,1,783.51,330.77Z"/><path class="cls-1" d="M824.45,349.29l6.48,1.93a5.21,5.21,0,0,1,1.42.64,3.72,3.72,0,0,1,1.17,1.09,2.12,2.12,0,0,1,.31,1.72,4,4,0,0,1-1.82,2l-25.65,17.35a32.53,32.53,0,0,0,4.69,4.5,14.36,14.36,0,0,0,4.25,2.31,9,9,0,0,0,3.94.39,11.17,11.17,0,0,0,3.65-1.15,2.76,2.76,0,0,0,1.33-1.23,3,3,0,0,1,.92-1.14,1,1,0,0,1,.76-.14,1.33,1.33,0,0,1,.68.25,3.17,3.17,0,0,1,.88.95l2.63,3.88c.81,1.2.86,2.06.12,2.55a2.41,2.41,0,0,1-1.18.47,11.13,11.13,0,0,0-1.6.29,13.08,13.08,0,0,1-4.58.74,15,15,0,0,1-4.49-.78,21.77,21.77,0,0,1-4.23-1.94,32.43,32.43,0,0,1-3.89-2.69,14.91,14.91,0,0,1,.32,6.81,26.06,26.06,0,0,1-1.93,6.06,33.79,33.79,0,0,1-2.69,4.78l-2,2.93a6,6,0,0,0-.69,1.55c-.13.5-.24,1-.32,1.4a7.52,7.52,0,0,1-.35,1.22,2.18,2.18,0,0,1-.87,1,1.45,1.45,0,0,1-1.59.23,3.59,3.59,0,0,1-1.21-1.16L793.37,398a1.7,1.7,0,0,1-.06-1.84,10.7,10.7,0,0,1,2-2.5c1.21-1.19,2.45-2.55,3.74-4.08a30.59,30.59,0,0,0,3.3-4.73,16.24,16.24,0,0,0,1.82-4.76,5.24,5.24,0,0,0-.74-4.07l-7.36,5a18.79,18.79,0,0,0-3.13,2.54,21.85,21.85,0,0,0-1.81,2.12c-.46.63-.83,1.17-1.11,1.64a3.33,3.33,0,0,1-1,1.1,1.55,1.55,0,0,1-.85.29,1.92,1.92,0,0,1-.92-.18,2.4,2.4,0,0,1-.94-.91L780.52,379c-.81-1.21-.73-2.14.26-2.82a3.35,3.35,0,0,1,1.39-.51c.54-.09,1.19-.22,1.94-.42a22.18,22.18,0,0,0,2.64-.89,19.16,19.16,0,0,0,3.53-2l28.87-19.54a6.85,6.85,0,0,1,1.55-3.5Q821.69,348.44,824.45,349.29Z"/><path class="cls-1" d="M816.8,396.8q8.12-4.33,14.88-2.68t10.84,9.29a21.28,21.28,0,0,1,1.89,4.95,14.2,14.2,0,0,1,.35,5.12A11.17,11.17,0,0,1,843,418.2a11.33,11.33,0,0,1-4.31,3.77,8.78,8.78,0,0,1-4.61,1.22,7.63,7.63,0,0,1-3.77-1.26,12.48,12.48,0,0,1-3.1-3,32,32,0,0,1-2.56-4.07l-3.86-7.22a37.39,37.39,0,0,0-6.52,4.27,20.94,20.94,0,0,0-3.78,4,8.63,8.63,0,0,0-1.5,3.41,3.87,3.87,0,0,0,.24,2.43,4.31,4.31,0,0,0,1.69,1.75,8.63,8.63,0,0,0,2.47,1,12.91,12.91,0,0,0,2.92.34,19.69,19.69,0,0,0,2.94-.2,3.41,3.41,0,0,1,2.3.32,3.49,3.49,0,0,1,1.34,1.36,3.32,3.32,0,0,1,.2,2.68,2.64,2.64,0,0,1-2.24,1.77,9.54,9.54,0,0,1-3.11,0,13.45,13.45,0,0,1-3.76-1.18,16.63,16.63,0,0,1-3.82-2.51A13.83,13.83,0,0,1,807,423a18,18,0,0,1-2.27-7.8,16.89,16.89,0,0,1,1.31-7.24,20.27,20.27,0,0,1,4.21-6.28A26.39,26.39,0,0,1,816.8,396.8Zm6.33,9.7,2.35,4.41a3.81,3.81,0,0,0,1.61,1.7,4.5,4.5,0,0,0,2.06.45,7.05,7.05,0,0,0,2.25-.41,13.52,13.52,0,0,0,2.19-.95,30.82,30.82,0,0,0,2.82-1.68,15.68,15.68,0,0,0,2.36-1.87,7.23,7.23,0,0,0,1.43-1.87,1.75,1.75,0,0,0,0-1.66,2.93,2.93,0,0,0-1.8-1.21,10,10,0,0,0-3.62-.32,25.93,25.93,0,0,0-5.17.9A37.22,37.22,0,0,0,823.13,406.5Z"/><path class="cls-1" d="M850.89,421.66l2.08,5,3.46-1.43a7,7,0,0,1,2.22-3.11c.78-.49,2-.26,3.69.67l6,3.2a5.4,5.4,0,0,1,1.26.91,3.82,3.82,0,0,1,.92,1.31,2.1,2.1,0,0,1,0,1.75,3.85,3.85,0,0,1-2.2,1.62l-11.32,4.67,2.08,5.05a1.21,1.21,0,0,1,0,1.08,1.33,1.33,0,0,1-.71.63,1.41,1.41,0,0,1-1,.06,1.25,1.25,0,0,1-.75-.79l-2.08-5.05L836.3,444.8l-3.3,1.41c-1.44.62-2.83,1.29-4.19,2a24.68,24.68,0,0,0-3.45,2.18c-.94.72-1.3,1.35-1.08,1.88.4,1,1.23,1.32,2.51,1.07a39.72,39.72,0,0,0,4.53-1.19,3.29,3.29,0,0,1,2.6.15,3.39,3.39,0,0,1,1.54,4.26,3.17,3.17,0,0,1-2.22,1.89,7.88,7.88,0,0,1-2.82.32,10.28,10.28,0,0,1-3.37-.81,10.83,10.83,0,0,1-3.35-2.29,12.25,12.25,0,0,1-2.71-4.24,11.86,11.86,0,0,1-1.07-4.83,8.54,8.54,0,0,1,3.19-6.59,22.54,22.54,0,0,1,3.09-2.12,25,25,0,0,1,3.28-1.56c1.09-.42,2-.8,2.86-1.14l18.25-7.52-2.08-5.05a1.21,1.21,0,0,1,0-1.08,1.46,1.46,0,0,1,1.66-.69A1.25,1.25,0,0,1,850.89,421.66Z"/><path class="cls-1" d="M857.76,455l5.7,3.63a9.51,9.51,0,0,1,1.42,1.06,3.27,3.27,0,0,1,1,1.45,1.74,1.74,0,0,1-.29,1.61,5.08,5.08,0,0,1-2.56,1.46l-22.38,7.33a18.51,18.51,0,0,0-3.71,1.59,20.92,20.92,0,0,0-2.33,1.54c-.61.47-1.11.9-1.51,1.27a3.45,3.45,0,0,1-1.26.79,1.69,1.69,0,0,1-.89,0,2.14,2.14,0,0,1-.84-.42,2.52,2.52,0,0,1-.66-1.14l-3.23-9.86a2.28,2.28,0,0,1-.11-1.11,1.93,1.93,0,0,1,.28-.87,1.45,1.45,0,0,1,.86-.65,3.27,3.27,0,0,1,1.48-.12c.54.07,1.2.11,2,.13a22.47,22.47,0,0,0,2.79-.13,18.94,18.94,0,0,0,3.93-.92l14.3-4.68a6.81,6.81,0,0,1,2.45-2.94C854.94,453.58,856.15,453.89,857.76,455Zm25.64-2.9a6.65,6.65,0,0,1-.44,5.4,7.32,7.32,0,0,1-7,3.85,7.43,7.43,0,0,1-2.61-.7,6.55,6.55,0,0,1-2.14-1.64,7.16,7.16,0,0,1-1.38-2.46,7.07,7.07,0,0,1,4.53-9,7,7,0,0,1,2.8-.34,7,7,0,0,1,2.63.74A7.47,7.47,0,0,1,882,449.6,6.66,6.66,0,0,1,883.4,452.05Z"/><path class="cls-1" d="M864.05,472.75l5.37,4.12a5.23,5.23,0,0,1,1.09,1.11,3.71,3.71,0,0,1,.7,1.44,2.13,2.13,0,0,1-.32,1.71,3.91,3.91,0,0,1-2.43,1.25l-1.6.37a20.08,20.08,0,0,1,5,3.43,10.13,10.13,0,0,1,2.9,5.21,10.41,10.41,0,0,1-.8,7.08,10.64,10.64,0,0,1-5.72,5.17c-.58.25-1.5.57-2.74,1s-2.62.83-4.14,1.29l-4.79,1.43-4.73,1.39c-1.47.42-2.8.82-4,1.2a24.54,24.54,0,0,0-2.48.9,3.45,3.45,0,0,0-1.27.89c-.31.37-.62.72-.92,1.06s-.59.64-.9.93a2.69,2.69,0,0,1-1.22.6,1.52,1.52,0,0,1-1.44-.34,2.68,2.68,0,0,1-.82-1.45l-2.23-9.58a2.32,2.32,0,0,1,.51-2,4.61,4.61,0,0,1,2.87-1.39,79.78,79.78,0,0,1,8.18-1,103.25,103.25,0,0,0,11.15-1.63l4.85-1a16.28,16.28,0,0,0,3.61-1.17,5.06,5.06,0,0,0,2.12-1.73,3.3,3.3,0,0,0,.31-2.64,6.94,6.94,0,0,0-2.6-3.59,19.27,19.27,0,0,0-5.26-3l-17.17,4a19.26,19.26,0,0,0-3.83,1.26,22,22,0,0,0-2.46,1.33c-.65.42-1.18.8-1.61,1.14a3.41,3.41,0,0,1-1.33.67,1.59,1.59,0,0,1-.89,0,2,2,0,0,1-.79-.49,2.4,2.4,0,0,1-.56-1.19l-2.35-10.11c-.33-1.42.08-2.26,1.25-2.53a3.36,3.36,0,0,1,1.48,0c.54.12,1.19.22,2,.31a22.77,22.77,0,0,0,2.79.11,18.64,18.64,0,0,0,4-.57l15-3.48a4.73,4.73,0,0,0,2-.91q.71-.6,1.29-1a1.92,1.92,0,0,1,1.19-.4A3.89,3.89,0,0,1,864.05,472.75Z"/><path class="cls-1" d="M831.73,517.83a3.78,3.78,0,0,1-.41,2.35,6.94,6.94,0,0,1-1.5,1.78c-.62.53-1.28,1.06-2,1.58a13.21,13.21,0,0,0-2,1.79,7,7,0,0,0-1.43,2.43,8,8,0,0,0-.28,3.52,13.67,13.67,0,0,0,1.46,5.17,10,10,0,0,0,2.66,3.17,8.11,8.11,0,0,0,3.3,1.52,11,11,0,0,0,3.4.18,6,6,0,0,0,3.63-1.57,8.45,8.45,0,0,0,2.13-3.52,21.06,21.06,0,0,0,1-5.17c.15-2,.23-4.14.23-6.5,0-2.66.58-4.52,1.83-5.57a4.44,4.44,0,0,1,4.47-.76c1.19.39,2.13.72,2.81,1s1.16.43,1.43.51a13.15,13.15,0,0,1,4-5,14.51,14.51,0,0,1,7.34-2.56,15,15,0,0,1,7.14.71,13.68,13.68,0,0,1,4.94,3.27A15.43,15.43,0,0,1,879,521a24.28,24.28,0,0,1,1.56,5.33l2.21.42a13.34,13.34,0,0,1,3.63,1.33A12,12,0,0,1,890,531a9.59,9.59,0,0,1,2,5.2,15.6,15.6,0,0,1-.06,3.46,12.9,12.9,0,0,1-1,3.64,9.27,9.27,0,0,1-2,3,5.3,5.3,0,0,1-3.22,1.44,4.15,4.15,0,0,1-3-.93,4.52,4.52,0,0,1-1.74-3.34,3.79,3.79,0,0,1,.38-2.32,4.63,4.63,0,0,1,1.4-1.52,10.16,10.16,0,0,1,1.89-1,17.64,17.64,0,0,0,1.9-.92,5.11,5.11,0,0,0,1.45-1.13,2.2,2.2,0,0,0,.44-1.74,5.08,5.08,0,0,0-1.22-2.92,7.49,7.49,0,0,0-2.27-1.76,12.23,12.23,0,0,0-4-1.18,26.81,26.81,0,0,1-.21,5.75,16.53,16.53,0,0,1-1.85,5.7,13.64,13.64,0,0,1-4.13,4.6,17.13,17.13,0,0,1-14.7,1.52,13,13,0,0,1-5-3.85,17.56,17.56,0,0,1-2.87-5.49A27.95,27.95,0,0,1,850.81,527a22.39,22.39,0,0,1,.71-4.67q-.74-.23-1.62-.45c-.59-.14-1.15-.26-1.69-.36s-.65.25-.68.93a21.33,21.33,0,0,0,.18,3c.09.88.21,1.84.35,2.87s.27,2.17.41,3.41a34.06,34.06,0,0,1-.12,10.13,17.54,17.54,0,0,1-2.38,6.3,9.2,9.2,0,0,1-3.63,3.34,12.68,12.68,0,0,1-4,1.18,10.39,10.39,0,0,1-5.57-.77,13.59,13.59,0,0,1-4.21-3,18.35,18.35,0,0,1-3.07-4.42,35.7,35.7,0,0,1-2.07-5,40.78,40.78,0,0,1-1.25-4.61c-.28-1.44-.47-2.57-.56-3.39q-.92-8.38.28-13c.79-3.07,2.5-4.74,5.14-5a4.2,4.2,0,0,1,3,.93A4.51,4.51,0,0,1,831.73,517.83Zm33.35,5.79a26.12,26.12,0,0,0-6.3,1.31,11.8,11.8,0,0,0-3.55,2,4.63,4.63,0,0,0-1.52,2.21,5,5,0,0,0,.43,4,4.65,4.65,0,0,0,2,1.83,11.64,11.64,0,0,0,3.89,1.14,26.21,26.21,0,0,0,6.42-.07,26.62,26.62,0,0,0,6.33-1.31,12.53,12.53,0,0,0,3.67-2,4.88,4.88,0,0,0,1.65-2.22,5.12,5.12,0,0,0,.24-2.06,5.21,5.21,0,0,0-.68-2,4.85,4.85,0,0,0-2.08-1.81,12.75,12.75,0,0,0-4-1.14A27.14,27.14,0,0,0,865.08,523.62Z"/><path class="cls-1" d="M866.06,593.72l-5.07-.25.93-19.24,5.06.24Z"/><path class="cls-1" d="M851.08,620.52a3.74,3.74,0,0,1-2.17,2.86,20.7,20.7,0,0,1-3.8,1.3,24.53,24.53,0,0,0-3.8,1.26,3.67,3.67,0,0,0-2.16,2.83,8.07,8.07,0,0,0,0,4.15,6.27,6.27,0,0,0,1.61,2.63,7.19,7.19,0,0,0,2.36,1.51,14,14,0,0,0,2.29.7,11,11,0,0,0,6.33-.43,24.4,24.4,0,0,0,5.61-3.12,59.89,59.89,0,0,0,5.36-4.49,46.57,46.57,0,0,1,5.52-4.45,23.48,23.48,0,0,1,6.1-3,13.69,13.69,0,0,1,7.06-.28,10.37,10.37,0,0,1,5.09,2.54,14.5,14.5,0,0,1,3.39,4.71,18.53,18.53,0,0,1,1.57,6.2,24.43,24.43,0,0,1-.41,7q-1.47,7.26-4.43,10.68t-6.86,2.64a4.21,4.21,0,0,1-2.54-1.79,4.5,4.5,0,0,1-.64-3.71,3.48,3.48,0,0,1,1.18-2.11,6.32,6.32,0,0,1,2.14-1.12,20,20,0,0,1,2.59-.63,14.74,14.74,0,0,0,2.61-.71,6.78,6.78,0,0,0,2.17-1.27,4.24,4.24,0,0,0,1.24-2.41,8.06,8.06,0,0,0,0-4.15,6.27,6.27,0,0,0-1.61-2.63,7.18,7.18,0,0,0-2.4-1.52,14.61,14.61,0,0,0-2.32-.71,11.39,11.39,0,0,0-6.34.43,22.92,22.92,0,0,0-5.73,3.18q-2.77,2.07-5.49,4.5a59.43,59.43,0,0,1-5.64,4.47,23.12,23.12,0,0,1-6.16,3.09,13.66,13.66,0,0,1-7,.28,9.85,9.85,0,0,1-5-2.56,14.51,14.51,0,0,1-3.22-4.75,18.71,18.71,0,0,1-1.4-6.21,26.68,26.68,0,0,1,.5-7,30.55,30.55,0,0,1,1.8-6A17.39,17.39,0,0,1,841,618a9.37,9.37,0,0,1,3.22-2.54,5.85,5.85,0,0,1,3.67-.41,4.22,4.22,0,0,1,2.54,1.79A4.49,4.49,0,0,1,851.08,620.52Z"/><path class="cls-1" d="M865.68,677.26a20.28,20.28,0,0,1-3.84,7.11,15.31,15.31,0,0,1-5.72,4.2,18.2,18.2,0,0,1-7.18,1.39,29,29,0,0,1-15.76-5.15,18.17,18.17,0,0,1-5-5.37,15.45,15.45,0,0,1-2.14-6.77A22.7,22.7,0,0,1,831,657.54a15.65,15.65,0,0,1,5.73-4.2,18.26,18.26,0,0,1,7.22-1.38,29,29,0,0,1,15.75,5.15,18.29,18.29,0,0,1,5,5.36,15.44,15.44,0,0,1,2.13,6.78A20.24,20.24,0,0,1,865.68,677.26Zm-17.09-13a44.38,44.38,0,0,0-7.68-1.85,23.54,23.54,0,0,0-5.78-.16,9.39,9.39,0,0,0-3.78,1.14,3.5,3.5,0,0,0-1.55,4.75,9.29,9.29,0,0,0,2.38,3.15,23.74,23.74,0,0,0,4.75,3.28,43.94,43.94,0,0,0,7.3,3A44.42,44.42,0,0,0,852,679.5a23.57,23.57,0,0,0,5.73.15,9.28,9.28,0,0,0,3.78-1.15,3.47,3.47,0,0,0,1.55-4.74,9.4,9.4,0,0,0-2.37-3.16,23.91,23.91,0,0,0-4.72-3.26A43.46,43.46,0,0,0,848.59,664.28Z"/><path class="cls-1" d="M850.16,716.57a18.46,18.46,0,0,1-2.32,3.79,16,16,0,0,1-3.14,3,9.31,9.31,0,0,1-3.61,1.61,5.78,5.78,0,0,1-3.66-.43,4.23,4.23,0,0,1-2.08-2.31,4.51,4.51,0,0,1,.22-3.76,3.47,3.47,0,0,1,1.63-1.79,6.19,6.19,0,0,1,2.28-.59,13.19,13.19,0,0,1,2.57.1c.89.12,1.72.22,2.49.28a8,8,0,0,0,2,0,1.6,1.6,0,0,0,1.24-.94,3.43,3.43,0,0,0-.07-2.38,10.23,10.23,0,0,0-2-3.46,24.71,24.71,0,0,0-4.28-4,36.73,36.73,0,0,0-6.89-4,35.93,35.93,0,0,0-7.18-2.5,25.64,25.64,0,0,0-5.73-.69,11.16,11.16,0,0,0-4,.69,3.5,3.5,0,0,0-2,1.57,3.83,3.83,0,0,0-.33,2.21,7.07,7.07,0,0,0,.77,2.28,12.9,12.9,0,0,0,1.51,2.23,12.68,12.68,0,0,0,1.91,1.9,3.31,3.31,0,0,1,1.28,2,3.4,3.4,0,0,1-2.19,3.76,2.55,2.55,0,0,1-2.7-.46,8.91,8.91,0,0,1-1.79-2.1,13,13,0,0,1-1.54-3.49,14.62,14.62,0,0,1-.5-4.43,12.85,12.85,0,0,1,1.24-5,19,19,0,0,1,4.72-6.59,16.32,16.32,0,0,1,6.3-3.47,18.79,18.79,0,0,1,7.29-.57,25.39,25.39,0,0,1,7.74,2.2,27.31,27.31,0,0,1,7.09,4.57,17.73,17.73,0,0,1,4.34,5.88,16.14,16.14,0,0,1,1.37,7A19.76,19.76,0,0,1,850.16,716.57Z"/><path class="cls-1" d="M835.85,730.6l1.22,6.65a8.79,8.79,0,0,1,.19,1.76,3.28,3.28,0,0,1-.41,1.69,1.7,1.7,0,0,1-1.38.88,5,5,0,0,1-2.8-.88l-20.61-11.42a19.28,19.28,0,0,0-3.68-1.64,24.24,24.24,0,0,0-2.71-.66c-.77-.12-1.42-.2-2-.24a3.26,3.26,0,0,1-1.43-.39,1.66,1.66,0,0,1-.64-.62,2,2,0,0,1-.25-.9,2.31,2.31,0,0,1,.38-1.26l5-9.07a2.37,2.37,0,0,1,.73-.85,2.17,2.17,0,0,1,.84-.38,1.43,1.43,0,0,1,1.06.19,3.31,3.31,0,0,1,1.09,1,19.48,19.48,0,0,0,1.24,1.54,22.25,22.25,0,0,0,2,2,19.34,19.34,0,0,0,3.34,2.26l13.17,7.29a6.82,6.82,0,0,1,3.81-.2C834.94,727.6,835.54,728.7,835.85,730.6Zm19.57,16.82a6.64,6.64,0,0,1-4.26,3.35,7.3,7.3,0,0,1-7.57-2.5,7.29,7.29,0,0,1-1.26-2.4,6.51,6.51,0,0,1-.26-2.68,7.08,7.08,0,0,1,.87-2.69,7.06,7.06,0,0,1,9.65-2.76,6.93,6.93,0,0,1,2.15,1.82A7.07,7.07,0,0,1,856,742a7.64,7.64,0,0,1,.26,2.74A6.48,6.48,0,0,1,855.42,747.42Z"/><path class="cls-1" d="M812.79,754.69c-.13.85-.21,1.73-.26,2.64s-.06,1.74-.06,2.49a20.13,20.13,0,0,0,6,2.31q2.71.5,3.84-1.19a3.27,3.27,0,0,0,.07-2.91c-.42-1.25-.89-2.58-1.42-4a24.11,24.11,0,0,1-1.18-4.35,5.32,5.32,0,0,1,.77-4,3.72,3.72,0,0,1,2.94-1.94,4.89,4.89,0,0,1,2.91.77,5.73,5.73,0,0,1,2.27,2.92,9.14,9.14,0,0,1,.36,4.17,19.31,19.31,0,0,1-1.46,5.08,36.18,36.18,0,0,1-3.11,5.66c-2.45,3.67-4.88,5.89-7.28,6.63a10.81,10.81,0,0,1-7.67-.66c-.58-.26-1.44-.7-2.58-1.34s-2.39-1.35-3.77-2.14l-4.33-2.5c-1.51-.88-2.92-1.72-4.24-2.5s-2.52-1.48-3.59-2.07-1.86-1-2.35-1.18a3.33,3.33,0,0,0-1.52-.32l-1.4.06c-.45,0-.88,0-1.3,0a2.6,2.6,0,0,1-1.27-.48,1.52,1.52,0,0,1-.74-1.29,2.64,2.64,0,0,1,.5-1.59l5.44-8.18a2.08,2.08,0,0,1,1.16-.82,3.08,3.08,0,0,1,1.85.11,14.64,14.64,0,0,1,.44-4.53,13.36,13.36,0,0,1,1.81-4.19,10.31,10.31,0,0,1,3.32-3.23,10.58,10.58,0,0,1,4-1.42,11.86,11.86,0,0,1,4.2.17A11.07,11.07,0,0,1,809,732.5a11.56,11.56,0,0,1,4.32,4.7,13.64,13.64,0,0,1,1.24,5.52,27.12,27.12,0,0,1-.6,6Q813.33,751.77,812.79,754.69Zm-18.41-8.8q2.61,2.13,5.9,5t8,6.32l1.11.74c0-.52,0-1.15,0-1.9s0-1.58,0-2.47a20,20,0,0,0-.25-2.65,11.87,11.87,0,0,0-.86-2.87,12.13,12.13,0,0,0-1.82-2.89,13.84,13.84,0,0,0-3.13-2.75,14.29,14.29,0,0,0-1.75-1,8.46,8.46,0,0,0-2.14-.73,5.07,5.07,0,0,0-2.16,0,2.92,2.92,0,0,0-1.78,1.35,5.31,5.31,0,0,0-.82,1.85A10.3,10.3,0,0,0,794.38,745.89Z"/><path class="cls-1" d="M820.85,790.27,821,797a5.4,5.4,0,0,1-.18,1.55,3.85,3.85,0,0,1-.69,1.44,2.1,2.1,0,0,1-1.54.82,3.91,3.91,0,0,1-2.49-1.12l-34-26.9a18.23,18.23,0,0,0-3.37-2.21,20.29,20.29,0,0,0-2.57-1.09,19,19,0,0,0-1.89-.56,3.24,3.24,0,0,1-1.35-.62,1.61,1.61,0,0,1-.53-.71,2.06,2.06,0,0,1-.11-.93,2.42,2.42,0,0,1,.58-1.18l6.44-8.14a2.37,2.37,0,0,1,.86-.71,2.12,2.12,0,0,1,.89-.25,1.46,1.46,0,0,1,1,.36,3.29,3.29,0,0,1,.91,1.17c.25.49.57,1.06,1,1.72a24,24,0,0,0,1.65,2.25,19.2,19.2,0,0,0,2.94,2.76l27.35,21.63a4.62,4.62,0,0,0,1.95,1c.6.11,1.14.24,1.6.37a1.92,1.92,0,0,1,1,.68A3.75,3.75,0,0,1,820.85,790.27Z"/><path class="cls-1" d="M760,783.54a1.6,1.6,0,0,1,.36,1.56,17.68,17.68,0,0,0-.33,2.19,8.64,8.64,0,0,0,.34,3,10.55,10.55,0,0,0,2.33,3.94l21.81,24.23a10.58,10.58,0,0,0,3.7,2.76,8.52,8.52,0,0,0,2.92.62,16.35,16.35,0,0,0,2.21-.1,1.66,1.66,0,0,1,1.52.52,1,1,0,0,1,.24.62,1.32,1.32,0,0,1-.56,1.35L790,828.36a9.62,9.62,0,0,1-5.74,2.48,20,20,0,0,1-7-.7,38.32,38.32,0,0,1-7.74-3.06q-4-2.05-7.91-4.58t-7.45-5.2q-3.57-2.67-6.4-4.95c-1.89-1.51-3.48-2.8-4.77-3.84a21.75,21.75,0,0,0-2.52-1.87l26.09,40.42a1.7,1.7,0,0,1,.4.9,1.62,1.62,0,0,1,0,.83,2.33,2.33,0,0,1-.77,1.06l-7.71,6.94c-1.08,1-2,1-2.82.13a3.33,3.33,0,0,1-.71-1.3c-.16-.53-.38-1.15-.67-1.86a23.15,23.15,0,0,0-1.25-2.5,19.21,19.21,0,0,0-2.43-3.22L729.75,825a18.74,18.74,0,0,0-3-2.75,21.72,21.72,0,0,0-2.35-1.51q-1-.56-1.77-.87a3.38,3.38,0,0,1-1.23-.83,1.69,1.69,0,0,1-.4-.8,2,2,0,0,1,.05-.93,2.43,2.43,0,0,1,.77-1.07l7.71-6.94c1.09-1,2-1,2.83-.13a3.5,3.5,0,0,1,.7,1.31,19.6,19.6,0,0,0,.68,1.86,22.25,22.25,0,0,0,1.25,2.5,19.49,19.49,0,0,0,2.42,3.22l20.77,23.07a21.4,21.4,0,0,0,1.71,1.72c.54.49,1,.91,1.5,1.27l-25-38.82a1.76,1.76,0,0,1-.26-1.45,2.81,2.81,0,0,1,.84-1.28l6.5-5.84a1.69,1.69,0,0,1,1.81-.32,10.62,10.62,0,0,1,2.75,1.66c.89.67,2.25,1.78,4.08,3.31s3.88,3.22,6.14,5.07,4.64,3.71,7.14,5.6,4.87,3.5,7.11,4.87a35.28,35.28,0,0,0,6,3c1.73.65,3,.62,3.76-.08L760.83,796a11.34,11.34,0,0,0-3.73-2.68,8.68,8.68,0,0,0-3-.66c-.84,0-1.57,0-2.18.08a1.66,1.66,0,0,1-1.49-.55,1.32,1.32,0,0,1-.3-.56,1.41,1.41,0,0,1,.06-.63,1.71,1.71,0,0,1,.56-.78l7.25-6.52C758.82,783,759.49,782.92,760,783.54Z"/><path class="cls-1" d="M730.7,834.23q5.16,7.62,4.24,14.52t-8.1,11.76a21.25,21.25,0,0,1-4.73,2.4,14.28,14.28,0,0,1-5.05.89,10.79,10.79,0,0,1-9.07-5.11,8.77,8.77,0,0,1-1.71-4.46,7.61,7.61,0,0,1,.86-3.87,12.26,12.26,0,0,1,2.64-3.4,30.85,30.85,0,0,1,3.78-3l6.78-4.6a37.12,37.12,0,0,0-4.94-6A20.64,20.64,0,0,0,711,830a8.68,8.68,0,0,0-3.55-1.13,3.89,3.89,0,0,0-2.39.5,4.39,4.39,0,0,0-1.57,1.86,8.94,8.94,0,0,0-.71,2.56,13.07,13.07,0,0,0,0,2.94,18.36,18.36,0,0,0,.51,2.91,3.39,3.39,0,0,1-.08,2.31,3.43,3.43,0,0,1-1.21,1.48,3.3,3.3,0,0,1-2.65.48,2.62,2.62,0,0,1-2-2,9.55,9.55,0,0,1-.31-3.09,13.76,13.76,0,0,1,.77-3.87,16.39,16.39,0,0,1,2.1-4.06,13.8,13.8,0,0,1,3.72-3.61,17.88,17.88,0,0,1,7.53-3.08,17,17,0,0,1,7.34.53,20.32,20.32,0,0,1,6.68,3.53A26.56,26.56,0,0,1,730.7,834.23Zm-9,7.32-4.13,2.8a3.79,3.79,0,0,0-1.52,1.79,4.6,4.6,0,0,0-.23,2.09,7.16,7.16,0,0,0,.65,2.2,14.48,14.48,0,0,0,1.17,2.08c.61.9,1.27,1.78,2,2.62a16,16,0,0,0,2.11,2.15,7.26,7.26,0,0,0,2,1.23,1.75,1.75,0,0,0,1.66-.13,3,3,0,0,0,1-1.92,10.15,10.15,0,0,0-.06-3.63,26.75,26.75,0,0,0-1.45-5.05A36.2,36.2,0,0,0,721.71,841.55Z"/><path class="cls-1" d="M696.54,878.73a11.43,11.43,0,0,1-4.6,1.31,15.19,15.19,0,0,1-4.84-.51l4.88,9.33a6.82,6.82,0,0,1,3.3,1.93c.56.73.45,2-.33,3.74l-2.64,6.22a5.22,5.22,0,0,1-.79,1.34,3.75,3.75,0,0,1-1.22,1,2.11,2.11,0,0,1-1.74.12,3.92,3.92,0,0,1-1.82-2l-20.13-38.42a18.51,18.51,0,0,0-2.17-3.39,20.89,20.89,0,0,0-1.91-2,17.08,17.08,0,0,0-1.5-1.28,3.22,3.22,0,0,1-1-1.12c-.56-1.06-.19-1.93,1.1-2.6l7.05-3.69c1-.51,1.67-.62,2.12-.32a4.81,4.81,0,0,1,1.39,1.82,14.2,14.2,0,0,1,2.31-4.34,11.37,11.37,0,0,1,3.69-3,11.55,11.55,0,0,1,6.1-1.3,17,17,0,0,1,6.44,1.69,22.32,22.32,0,0,1,5.94,4.2A25.1,25.1,0,0,1,703.32,861a22.5,22.5,0,0,1,.07,7.27,16.71,16.71,0,0,1-2.29,6.22A11.68,11.68,0,0,1,696.54,878.73ZM690.69,859a49.13,49.13,0,0,0-2.8-4.66,23,23,0,0,0-3.41-4.07,11.2,11.2,0,0,0-3.72-2.41,4.45,4.45,0,0,0-3.78.27,5.67,5.67,0,0,0-2.25,2.18,9.85,9.85,0,0,0-1.17,3.39L685.25,876a10.46,10.46,0,0,0,3.42.9,5.69,5.69,0,0,0,3.08-.6,4.46,4.46,0,0,0,2.36-3,11.41,11.41,0,0,0,.17-4.4,23,23,0,0,0-1.37-5.05A51,51,0,0,0,690.69,859Z"/><path class="cls-1" d="M668.72,885l-3.17,6a8.52,8.52,0,0,1-.94,1.49,3.27,3.27,0,0,1-1.36,1.08,1.74,1.74,0,0,1-1.63-.16A5,5,0,0,1,660,890.9l-9.08-21.73A19.27,19.27,0,0,0,649,865.6a22.14,22.14,0,0,0-1.72-2.2c-.52-.57-1-1-1.39-1.41a3.26,3.26,0,0,1-.88-1.19,1.67,1.67,0,0,1-.12-.88,2.18,2.18,0,0,1,.36-.87,2.37,2.37,0,0,1,1.08-.75l9.57-4a2.5,2.5,0,0,1,1.1-.21,2,2,0,0,1,.89.22,1.46,1.46,0,0,1,.72.8,3.3,3.3,0,0,1,.23,1.47c0,.54,0,1.2,0,2a21.11,21.11,0,0,0,.35,2.77,19,19,0,0,0,1.23,3.85l5.8,13.88a6.82,6.82,0,0,1,3.12,2.21C669.87,882,669.65,883.27,668.72,885Zm4.93,25.33a6.69,6.69,0,0,1-5.42,0,7.32,7.32,0,0,1-4.39-6.66,7.43,7.43,0,0,1,.49-2.66,6.78,6.78,0,0,1,1.47-2.26,6.93,6.93,0,0,1,2.34-1.57,7.12,7.12,0,0,1,9.85,6.57,7,7,0,0,1-.53,2.68,7.65,7.65,0,0,1-1.48,2.31A6.62,6.62,0,0,1,673.65,910.29Z"/><path class="cls-1" d="M635.62,889.57c-.63.59-1.24,1.23-1.84,1.91s-1.13,1.32-1.59,1.91a20.31,20.31,0,0,0,3.27,5.54q1.83,2.09,3.75,1.45a3.27,3.27,0,0,0,1.86-2.24c.44-1.24.9-2.58,1.36-4A25.28,25.28,0,0,1,644.2,890a5.28,5.28,0,0,1,3.08-2.64,3.67,3.67,0,0,1,3.5.3,4.77,4.77,0,0,1,1.81,2.4,5.72,5.72,0,0,1,0,3.7,9,9,0,0,1-2.31,3.5,18.92,18.92,0,0,1-4.29,3.07,34.9,34.9,0,0,1-6,2.51q-6.32,2-9.83.69a10.79,10.79,0,0,1-5.6-5.28c-.29-.56-.69-1.44-1.19-2.65s-1-2.54-1.63-4-1.2-3-1.84-4.65-1.23-3.16-1.78-4.59-1.06-2.72-1.53-3.85-.85-1.93-1.11-2.39a3.29,3.29,0,0,0-1-1.19l-1.12-.82c-.36-.27-.7-.54-1-.82a2.73,2.73,0,0,1-.71-1.17,1.54,1.54,0,0,1,.23-1.47,2.67,2.67,0,0,1,1.37-.93l9.35-3a2.06,2.06,0,0,1,1.42.08,3,3,0,0,1,1.38,1.23,14.36,14.36,0,0,1,3.16-3.28,13.25,13.25,0,0,1,4-2.17,10.25,10.25,0,0,1,4.61-.46,10.53,10.53,0,0,1,4.06,1.39,11.88,11.88,0,0,1,3.18,2.73,11.12,11.12,0,0,1,2,3.66,11.59,11.59,0,0,1,.46,6.37,13.42,13.42,0,0,1-2.44,5.09,26.89,26.89,0,0,1-4.18,4.31C638.67,887,637.11,888.27,635.62,889.57Zm-9-18.32c.5,2.19,1,4.72,1.52,7.58s1.31,6.18,2.36,9.94l.41,1.26c.3-.43.68-.93,1.15-1.52s1-1.24,1.5-2a19.28,19.28,0,0,0,1.44-2.24,11.79,11.79,0,0,0,1.11-2.77,12.15,12.15,0,0,0,.37-3.4,14.18,14.18,0,0,0-.75-4.11,16.16,16.16,0,0,0-.76-1.84,9.27,9.27,0,0,0-1.24-1.9,5,5,0,0,0-1.7-1.33,2.89,2.89,0,0,0-2.23-.05,5.39,5.39,0,0,0-1.78.94A10.29,10.29,0,0,0,626.64,871.25Z"/><path class="cls-1" d="M575.33,901.2l-.82-5,19-3.08.81,5Z"/><path class="cls-1" d="M550.56,881.87a3.58,3.58,0,0,1-.33,1.45c-.23.5-.46,1.11-.71,1.84a22.25,22.25,0,0,0-.7,2.71,19.27,19.27,0,0,0-.29,4l.51,31a18.89,18.89,0,0,0,.41,4,23,23,0,0,0,.79,2.68c.27.72.53,1.33.77,1.82a3.28,3.28,0,0,1,.37,1.44c0,1.19-.7,1.8-2.15,1.82l-10.37.17a2.16,2.16,0,0,1-.86-.14,5.16,5.16,0,0,1-.75-.34,1.12,1.12,0,0,1-.52-.65,12.32,12.32,0,0,1-12.63.59,16.47,16.47,0,0,1-5-4.13,20.44,20.44,0,0,1-3.41-6.15,24.17,24.17,0,0,1-.25-15.13,20.62,20.62,0,0,1,3.21-6.25,16.46,16.46,0,0,1,4.85-4.29,12.12,12.12,0,0,1,6-1.66,12.89,12.89,0,0,1,8.79,3.29l-.13-8a19.68,19.68,0,0,0-.41-4,24.2,24.2,0,0,0-.79-2.67,19.62,19.62,0,0,0-.77-1.82,3.31,3.31,0,0,1-.37-1.44c0-1.2.69-1.81,2.15-1.83l10.37-.17a2.41,2.41,0,0,1,1.1.22,2,2,0,0,1,.75.53A1.47,1.47,0,0,1,550.56,881.87Zm-11.9,41.23L538.35,904a9.31,9.31,0,0,0-2.64-2.18,6,6,0,0,0-3-.77,4.65,4.65,0,0,0-3.45,1.46,10.25,10.25,0,0,0-2.12,3.62,20.31,20.31,0,0,0-1.06,4.89,47.33,47.33,0,0,0-.22,5.27,46.67,46.67,0,0,0,.4,5.3,20.32,20.32,0,0,0,1.21,4.9,10.18,10.18,0,0,0,2.24,3.55,4.64,4.64,0,0,0,3.49,1.35,5.68,5.68,0,0,0,3-.76,4.71,4.71,0,0,0,1.65-1.89,7.68,7.68,0,0,0,.7-2.63A26.76,26.76,0,0,0,538.66,923.1Z"/><path class="cls-1" d="M494,904.24a25.28,25.28,0,0,0-2.46,1c-.83.38-1.58.74-2.24,1.09a20,20,0,0,0,.71,6.39c.54,1.76,1.49,2.71,2.83,2.86a3.28,3.28,0,0,0,2.61-1.28c.92-.95,1.88-2,2.89-3.1a25.23,25.23,0,0,1,3.31-3.06,5.31,5.31,0,0,1,3.89-1.14,3.67,3.67,0,0,1,3.07,1.71,4.85,4.85,0,0,1,.67,2.93,5.76,5.76,0,0,1-1.55,3.37,9.13,9.13,0,0,1-3.54,2.24,19.3,19.3,0,0,1-5.17,1,35.54,35.54,0,0,1-6.46-.15q-6.58-.72-9.24-3.4a10.76,10.76,0,0,1-2.95-7.11c0-.63,0-1.6,0-2.9s.09-2.75.16-4.34.15-3.25.23-5,.17-3.38.26-4.91.15-2.92.18-4.14a25.12,25.12,0,0,0,0-2.63,3.47,3.47,0,0,0-.42-1.5c-.24-.42-.48-.82-.69-1.21a10.58,10.58,0,0,1-.58-1.17,2.55,2.55,0,0,1-.17-1.35,1.51,1.51,0,0,1,.8-1.24,2.71,2.71,0,0,1,1.64-.3l9.77,1.07a2.09,2.09,0,0,1,1.27.65,3.05,3.05,0,0,1,.75,1.69,14.42,14.42,0,0,1,4.23-1.7,13.45,13.45,0,0,1,4.55-.33,10.38,10.38,0,0,1,4.39,1.46,10.72,10.72,0,0,1,3.13,2.93,11.86,11.86,0,0,1,1.78,3.81,10.8,10.8,0,0,1,.33,4.15,11.56,11.56,0,0,1-2.18,6,13.67,13.67,0,0,1-4.32,3.65,27.75,27.75,0,0,1-5.58,2.22Q496.85,903.37,494,904.24Zm-.68-20.4c-.45,2.2-1,4.72-1.73,7.54s-1.34,6.17-1.91,10l-.15,1.31c.45-.26,1-.57,1.67-.91s1.39-.74,2.17-1.18a19,19,0,0,0,2.24-1.44,12.32,12.32,0,0,0,2.14-2.08,12.16,12.16,0,0,0,1.74-3,14.31,14.31,0,0,0,1-4,15.52,15.52,0,0,0,.06-2,9.33,9.33,0,0,0-.34-2.23,5.2,5.2,0,0,0-1-1.92,3,3,0,0,0-2-1,5.54,5.54,0,0,0-2,.13A10.35,10.35,0,0,0,493.33,883.84Z"/><path class="cls-1" d="M452,911.37a18.38,18.38,0,0,1-4.19-1.48,15.29,15.29,0,0,1-3.62-2.43,9.46,9.46,0,0,1-2.34-3.18,5.85,5.85,0,0,1-.35-3.67,4.18,4.18,0,0,1,1.83-2.52,4.52,4.52,0,0,1,3.72-.58,3.47,3.47,0,0,1,2.09,1.22,5.84,5.84,0,0,1,1.05,2.1,12.7,12.7,0,0,1,.45,2.54c.07.89.15,1.72.25,2.49a8.45,8.45,0,0,0,.48,2,1.59,1.59,0,0,0,1.18,1,3.46,3.46,0,0,0,2.32-.56,10.54,10.54,0,0,0,2.95-2.71,24.81,24.81,0,0,0,3-5,41.8,41.8,0,0,0,3.35-15.12,25.84,25.84,0,0,0-.53-5.74,11.11,11.11,0,0,0-1.53-3.81,3.54,3.54,0,0,0-2-1.63,4,4,0,0,0-2.22.15,6.91,6.91,0,0,0-2.07,1.23,13.8,13.8,0,0,0-1.86,1.94,13,13,0,0,0-1.46,2.28,3.31,3.31,0,0,1-1.68,1.67,3.41,3.41,0,0,1-2,.16,3.47,3.47,0,0,1-2.15-1.51,2.54,2.54,0,0,1-.12-2.74,9,9,0,0,1,1.68-2.19,12.79,12.79,0,0,1,3.08-2.23,14.25,14.25,0,0,1,4.23-1.43,12.7,12.7,0,0,1,5.11.16,19,19,0,0,1,7.44,3.22,16.39,16.39,0,0,1,4.72,5.43,18.54,18.54,0,0,1,2.1,7,25.16,25.16,0,0,1-.52,8,26.92,26.92,0,0,1-3,7.89,17.71,17.71,0,0,1-4.83,5.49,16.05,16.05,0,0,1-6.52,2.8A19.94,19.94,0,0,1,452,911.37Z"/><path class="cls-1" d="M428.07,919.23l-6.33,2.37a5.38,5.38,0,0,1-1.52.35,3.79,3.79,0,0,1-1.59-.17,2.15,2.15,0,0,1-1.29-1.18,3.9,3.9,0,0,1,.23-2.72l10-29.31a31.58,31.58,0,0,0-6.46-.76,14.17,14.17,0,0,0-4.77.72,8.87,8.87,0,0,0-3.38,2.06,11,11,0,0,0-2.22,3.11,2.77,2.77,0,0,0-.32,1.79,3,3,0,0,1-.05,1.47,1,1,0,0,1-.52.56,1.31,1.31,0,0,1-.69.22,3.35,3.35,0,0,1-1.28-.23L403.44,896c-1.38-.47-1.93-1.13-1.64-2a2.52,2.52,0,0,1,.66-1.1,10.65,10.65,0,0,0,1.1-1.18,12.87,12.87,0,0,1,3.21-3.36,14.94,14.94,0,0,1,4.05-2.08,22.15,22.15,0,0,1,4.54-1,34,34,0,0,1,4.73-.2,14.86,14.86,0,0,1-4.36-5.23,25.79,25.79,0,0,1-2.11-6,32.29,32.29,0,0,1-.74-5.44c-.07-1.65-.12-2.83-.15-3.56a5.71,5.71,0,0,0-.39-1.65c-.19-.48-.38-.92-.58-1.31a7.65,7.65,0,0,1-.46-1.19,2.28,2.28,0,0,1,.08-1.33c.24-.69.62-1.07,1.13-1.14a3.54,3.54,0,0,1,1.67.2l9.3,3.17a1.7,1.7,0,0,1,1.16,1.42,10.38,10.38,0,0,1-.11,3.22c-.24,1.68-.41,3.51-.52,5.51a31.18,31.18,0,0,0,.22,5.76,15.88,15.88,0,0,0,1.43,4.9,5.22,5.22,0,0,0,3,2.8l2.87-8.41a19.11,19.11,0,0,0,1-3.92,23.18,23.18,0,0,0,.17-2.78c0-.78-.05-1.44-.11-2a3.28,3.28,0,0,1,.13-1.48,1.62,1.62,0,0,1,.5-.73,2,2,0,0,1,.84-.42,2.5,2.5,0,0,1,1.31.16l9.81,3.35c1.38.47,1.88,1.27,1.49,2.4a3.24,3.24,0,0,1-.8,1.25c-.38.4-.81.89-1.29,1.5a22.13,22.13,0,0,0-1.57,2.31,19.3,19.3,0,0,0-1.63,3.69l-11.25,33a6.91,6.91,0,0,1,.88,3.71C430.86,917.81,429.88,918.58,428.07,919.23Z"/><path class="cls-1" d="M385.33,873.53a24,24,0,0,0-2.65.12c-.9.09-1.73.18-2.47.29a20.08,20.08,0,0,0-1.44,6.27c-.07,1.84.51,3,1.73,3.63a3.28,3.28,0,0,0,2.89-.35c1.17-.59,2.42-1.25,3.74-2a25.2,25.2,0,0,1,4.14-1.78,5.29,5.29,0,0,1,4.05.2,3.74,3.74,0,0,1,2.34,2.63,4.91,4.91,0,0,1-.35,3,5.71,5.71,0,0,1-2.57,2.66,9,9,0,0,1-4.08.95,18.75,18.75,0,0,1-5.23-.73,34.69,34.69,0,0,1-6-2.28q-6-2.85-7.6-6.26a10.77,10.77,0,0,1-.44-7.68c.18-.61.5-1.53,1-2.74s1-2.57,1.58-4,1.21-3,1.87-4.64,1.28-3.14,1.87-4.56,1.1-2.7,1.53-3.84a24.64,24.64,0,0,0,.85-2.5,3.46,3.46,0,0,0,.09-1.55c-.09-.47-.17-.93-.25-1.37a12,12,0,0,1-.16-1.29,2.58,2.58,0,0,1,.29-1.33,1.53,1.53,0,0,1,1.17-.91,2.68,2.68,0,0,1,1.64.26l8.87,4.24a2.06,2.06,0,0,1,1,1,3.11,3.11,0,0,1,.16,1.84,14.47,14.47,0,0,1,4.54-.2,13.28,13.28,0,0,1,4.4,1.19,10.29,10.29,0,0,1,3.67,2.83,10.58,10.58,0,0,1,2,3.8,12,12,0,0,1,.43,4.18,11.14,11.14,0,0,1-1.06,4,11.52,11.52,0,0,1-4,4.94,13.61,13.61,0,0,1-5.28,2,27.52,27.52,0,0,1-6,.25Q388.31,873.65,385.33,873.53Zm6.1-19.47q-1.73,2.9-4.12,6.54t-5.12,8.84l-.57,1.19c.51-.1,1.13-.2,1.88-.31l2.43-.39a18.29,18.29,0,0,0,2.59-.63,11.75,11.75,0,0,0,2.71-1.25,12.47,12.47,0,0,0,2.62-2.21,14.33,14.33,0,0,0,2.27-3.49,14.17,14.17,0,0,0,.72-1.87,8.79,8.79,0,0,0,.41-2.22,5.09,5.09,0,0,0-.32-2.14,2.93,2.93,0,0,0-1.58-1.58,5.6,5.6,0,0,0-2-.54A10.93,10.93,0,0,0,391.43,854.06Z"/><path class="cls-1" d="M383,834.86a3.75,3.75,0,0,1-1.6-1.78,7.16,7.16,0,0,1-.46-2.27c0-.82,0-1.67,0-2.54a13.18,13.18,0,0,0-.18-2.65,7.28,7.28,0,0,0-1-2.62,8,8,0,0,0-2.59-2.41,13.74,13.74,0,0,0-5-2.06,10.1,10.1,0,0,0-4.13.13,8,8,0,0,0-3.25,1.65,10.92,10.92,0,0,0-2.24,2.55,6,6,0,0,0-1,3.82,8.49,8.49,0,0,0,1.45,3.86,20.84,20.84,0,0,0,3.45,4c1.46,1.34,3.11,2.75,5,4.21,2.1,1.63,3.19,3.26,3.24,4.89a4.44,4.44,0,0,1-2.18,4q-1.56,1-2.52,1.59a14.47,14.47,0,0,0-1.28.81,13.11,13.11,0,0,1,1.39,6.21,14.5,14.5,0,0,1-2.53,7.35,15.1,15.1,0,0,1-5,5.16,13.7,13.7,0,0,1-5.63,1.85,15.3,15.3,0,0,1-5.7-.54,24.87,24.87,0,0,1-5.14-2.07l-1.7,1.46a12.79,12.79,0,0,1-3.3,2,11.8,11.8,0,0,1-4.51,1,9.49,9.49,0,0,1-5.3-1.67,15.37,15.37,0,0,1-2.68-2.19,12.71,12.71,0,0,1-2.25-3,9.25,9.25,0,0,1-1.07-3.43,5.34,5.34,0,0,1,.86-3.43,4.19,4.19,0,0,1,2.57-1.74,4.48,4.48,0,0,1,3.7.71,3.69,3.69,0,0,1,1.58,1.73,4.43,4.43,0,0,1,.33,2,9.7,9.7,0,0,1-.36,2.12,18.78,18.78,0,0,0-.46,2.06,5,5,0,0,0,0,1.84,2.19,2.19,0,0,0,1.09,1.42,5.07,5.07,0,0,0,3.05.86,7.54,7.54,0,0,0,2.79-.7,11.88,11.88,0,0,0,3.38-2.38,27.57,27.57,0,0,1-4.38-3.72,16.68,16.68,0,0,1-3.32-5A13.6,13.6,0,0,1,335,851.8a14.69,14.69,0,0,1,2.51-7.08,14.51,14.51,0,0,1,5.41-5.4,12.94,12.94,0,0,1,6.13-1.55,17.36,17.36,0,0,1,6.09,1.16,29.93,29.93,0,0,1,5.29,2.58,28.23,28.23,0,0,1,3.54,2.64,22,22,0,0,1,3.22,3.44c.43-.28.88-.61,1.36-1s.93-.74,1.34-1.09.2-.67-.32-1.12a21.27,21.27,0,0,0-2.49-1.75c-.75-.47-1.57-1-2.47-1.5s-1.87-1.13-2.92-1.79a34.31,34.31,0,0,1-7.89-6.37,17.81,17.81,0,0,1-3.47-5.77,9.22,9.22,0,0,1-.36-4.92,12.49,12.49,0,0,1,1.55-3.87,10.4,10.4,0,0,1,4.06-3.9,13.57,13.57,0,0,1,5-1.42,18.4,18.4,0,0,1,5.36.32,37.15,37.15,0,0,1,5.17,1.45,39.1,39.1,0,0,1,4.39,1.88c1.31.67,2.31,1.22,3,1.66q7.13,4.49,10,8.26t.76,7.16a4.21,4.21,0,0,1-2.57,1.74A4.48,4.48,0,0,1,383,834.86Zm-25.22,22.58a26,26,0,0,0,2.87-5.75,11.39,11.39,0,0,0,.67-4,4.71,4.71,0,0,0-.78-2.56,5,5,0,0,0-3.44-2.16,4.69,4.69,0,0,0-2.65.41,11.69,11.69,0,0,0-3.31,2.34,26.56,26.56,0,0,0-3.93,5.09,27.06,27.06,0,0,0-2.89,5.78,12.64,12.64,0,0,0-.73,4.1,4.86,4.86,0,0,0,.72,2.67,5.13,5.13,0,0,0,1.47,1.47,5.2,5.2,0,0,0,2,.68,4.88,4.88,0,0,0,2.71-.51,12.58,12.58,0,0,0,3.38-2.44A26.81,26.81,0,0,0,357.74,857.44Z"/><path class="cls-1" d="M306.67,863.76a6.64,6.64,0,0,1-2.71-4.69,7.33,7.33,0,0,1,3.55-7.15,7.67,7.67,0,0,1,2.54-.91,6.8,6.8,0,0,1,2.69.13,6.91,6.91,0,0,1,2.54,1.24,7,7,0,0,1,1.38,9.94,7,7,0,0,1-2.11,1.88,7.08,7.08,0,0,1-2.58.89,7.68,7.68,0,0,1-2.74-.13A6.4,6.4,0,0,1,306.67,863.76Zm19.42-17-6.76.26a8.81,8.81,0,0,1-1.76-.06,3.28,3.28,0,0,1-1.62-.64,1.75,1.75,0,0,1-.68-1.49,5.07,5.07,0,0,1,1.28-2.66l14.21-18.78a18.87,18.87,0,0,0,2.15-3.41,21.28,21.28,0,0,0,1-2.6c.23-.73.41-1.37.52-1.9a3.42,3.42,0,0,1,.59-1.37,1.68,1.68,0,0,1,.7-.54,2,2,0,0,1,.93-.13,2.47,2.47,0,0,1,1.19.56l8.27,6.26a2.39,2.39,0,0,1,.73.85,1.82,1.82,0,0,1,.26.88,1.45,1.45,0,0,1-.33,1,3.19,3.19,0,0,1-1.15.94c-.48.25-1,.59-1.7,1a24.26,24.26,0,0,0-2.21,1.7,19.85,19.85,0,0,0-2.71,3l-9.08,12a6.82,6.82,0,0,1-.34,3.8C329.19,846.29,328,846.72,326.09,846.77Z"/><path class="cls-1" d="M310.78,835.73,304,835.4a5.18,5.18,0,0,1-1.53-.28,3.68,3.68,0,0,1-1.4-.78,2.11,2.11,0,0,1-.71-1.59,3.91,3.91,0,0,1,1.28-2.42l1.1-1.21a20.17,20.17,0,0,1-6.1.06,10.16,10.16,0,0,1-5.35-2.63,10.41,10.41,0,0,1-3.38-6.26,10.75,10.75,0,0,1,1.74-7.52c.35-.53.91-1.32,1.71-2.35s1.68-2.17,2.67-3.42,2-2.55,3.11-3.91,2.13-2.64,3.1-3.83,1.82-2.28,2.57-3.25,1.25-1.7,1.52-2.15a3.56,3.56,0,0,0,.53-1.46c.05-.48.1-.95.15-1.39a12.21,12.21,0,0,1,.21-1.28,2.67,2.67,0,0,1,.66-1.2,1.54,1.54,0,0,1,1.38-.54,2.71,2.71,0,0,1,1.5.73l7.29,6.59a2.3,2.3,0,0,1,.71,1.9,4.64,4.64,0,0,1-1.58,2.78,77.63,77.63,0,0,1-6.12,5.5,101.57,101.57,0,0,0-8.23,7.71c-1.26,1.31-2.39,2.51-3.41,3.59a16.34,16.34,0,0,0-2.3,3,5.16,5.16,0,0,0-.75,2.63,3.27,3.27,0,0,0,1.25,2.34,6.93,6.93,0,0,0,4.19,1.48,19.39,19.39,0,0,0,6-.56l11.82-13.08a18.79,18.79,0,0,0,2.43-3.21,21.43,21.43,0,0,0,1.25-2.5,17.09,17.09,0,0,0,.68-1.85,3.43,3.43,0,0,1,.71-1.31,1.67,1.67,0,0,1,.75-.48,2.1,2.1,0,0,1,.94,0,2.47,2.47,0,0,1,1.13.66l7.7,7c1.08,1,1.22,1.91.42,2.8a3.55,3.55,0,0,1-1.23.83c-.5.21-1.1.5-1.78.86a24.24,24.24,0,0,0-2.35,1.5,19.24,19.24,0,0,0-3,2.75L315.07,831a4.74,4.74,0,0,0-1.12,1.88c-.15.6-.31,1.12-.47,1.57a1.9,1.9,0,0,1-.75,1A3.79,3.79,0,0,1,310.78,835.73Z"/><path class="cls-1" d="M311.61,780.27a3.75,3.75,0,0,1-1-2.17,7.12,7.12,0,0,1,.21-2.31c.2-.79.44-1.61.72-2.44a13.65,13.65,0,0,0,.6-2.58,7.2,7.2,0,0,0-.23-2.81,7.84,7.84,0,0,0-1.78-3.05A13.4,13.4,0,0,0,306,761.5a10,10,0,0,0-4-1.08,8.09,8.09,0,0,0-3.59.64,11,11,0,0,0-2.88,1.79,6,6,0,0,0-2.09,3.37,8.63,8.63,0,0,0,.27,4.11,21.19,21.19,0,0,0,2.16,4.79c1,1.71,2.18,3.53,3.52,5.47,1.54,2.17,2.11,4,1.68,5.61a4.43,4.43,0,0,1-3.23,3.18c-1.2.36-2.16.62-2.87.8s-1.2.3-1.47.39a13.07,13.07,0,0,1-.47,6.36,14.45,14.45,0,0,1-4.55,6.29,15,15,0,0,1-6.27,3.49,13.5,13.5,0,0,1-5.92.14,15.22,15.22,0,0,1-5.3-2.16,24.36,24.36,0,0,1-4.32-3.48l-2,.91a13.07,13.07,0,0,1-3.75,1,11.88,11.88,0,0,1-4.59-.4,9.6,9.6,0,0,1-4.59-3.14,15.74,15.74,0,0,1-1.93-2.87,12.72,12.72,0,0,1-1.27-3.54,9.1,9.1,0,0,1,0-3.6,5.3,5.3,0,0,1,1.81-3,4.18,4.18,0,0,1,3-.93,4.5,4.5,0,0,1,3.33,1.75,3.79,3.79,0,0,1,1,2.12,4.79,4.79,0,0,1-.28,2,9.89,9.89,0,0,1-1,1.92,20.29,20.29,0,0,0-1,1.84,5.13,5.13,0,0,0-.53,1.76,2.16,2.16,0,0,0,.63,1.67,5.06,5.06,0,0,0,2.67,1.71,7.6,7.6,0,0,0,2.87.14,11.67,11.67,0,0,0,2.45-.63,11,11,0,0,0,1.48-.67,26.14,26.14,0,0,1-3.12-4.84A16.54,16.54,0,0,1,260,788.7a13.71,13.71,0,0,1,.75-6.14,14.81,14.81,0,0,1,4.46-6,14.44,14.44,0,0,1,6.74-3.59,13,13,0,0,1,6.31.29,17.64,17.64,0,0,1,5.5,2.87,30.53,30.53,0,0,1,4.31,4,29.58,29.58,0,0,1,2.63,3.56,22.47,22.47,0,0,1,2.08,4.23c.49-.15,1-.33,1.59-.55s1.1-.44,1.59-.67.39-.58,0-1.16a23,23,0,0,0-1.88-2.39c-.58-.67-1.22-1.39-1.93-2.15s-1.46-1.62-2.28-2.57a34.35,34.35,0,0,1-5.7-8.38,17.68,17.68,0,0,1-1.65-6.53,9.23,9.23,0,0,1,1.08-4.81,12.64,12.64,0,0,1,2.6-3.25,10.44,10.44,0,0,1,5-2.56,13.94,13.94,0,0,1,5.19.08,18.78,18.78,0,0,1,5,1.87,37.7,37.7,0,0,1,4.53,2.89,38.44,38.44,0,0,1,3.65,3.07c1.06,1,1.86,1.83,2.41,2.46q5.52,6.35,7.18,10.81t-1.34,7.06a4.21,4.21,0,0,1-3,.93A4.5,4.5,0,0,1,311.61,780.27Zm-30.68,14.3a26.36,26.36,0,0,0,4.41-4.67,11.24,11.24,0,0,0,1.8-3.63,4.7,4.7,0,0,0,0-2.69,5.78,5.78,0,0,0-1-1.81,5.69,5.69,0,0,0-1.66-1.25,4.67,4.67,0,0,0-2.65-.37,11.66,11.66,0,0,0-3.85,1.28,26.29,26.29,0,0,0-5.23,3.73,26.89,26.89,0,0,0-4.45,4.7,12.74,12.74,0,0,0-1.89,3.71,4.94,4.94,0,0,0-.08,2.76,5.29,5.29,0,0,0,1,1.83,5.36,5.36,0,0,0,1.69,1.23,4.92,4.92,0,0,0,2.74.3,12.84,12.84,0,0,0,3.94-1.36A27,27,0,0,0,280.93,794.57Z"/><path class="cls-1" d="M259.54,747l-26.75,15.75a19.36,19.36,0,0,0-3.28,2.34,21.77,21.77,0,0,0-1.94,2c-.5.6-.9,1.12-1.21,1.57a3.49,3.49,0,0,1-1.06,1c-1,.6-1.92.28-2.66-1L216,757.4a26.85,26.85,0,0,1-3.37-8.87,19.58,19.58,0,0,1,.51-9,23.46,23.46,0,0,1,4.89-8.67,38.65,38.65,0,0,1,9.84-7.88,36,36,0,0,1,11.26-4.55,22.7,22.7,0,0,1,9.76,0,19.82,19.82,0,0,1,8,4A26.45,26.45,0,0,1,263,729.7L269.69,741a2.52,2.52,0,0,1,.36,1.06,2,2,0,0,1-.1.92,1.49,1.49,0,0,1-.7.82,3.29,3.29,0,0,1-1.42.42,19.7,19.7,0,0,0-1.95.3,21.36,21.36,0,0,0-2.7.72A19.39,19.39,0,0,0,259.54,747Zm2-14.69-.75-1.27a7.17,7.17,0,0,0-2.77-2.31,13.26,13.26,0,0,0-5.5-1.43,26.77,26.77,0,0,0-8.15.91,41.06,41.06,0,0,0-10.73,4.69,42.91,42.91,0,0,0-9.69,7.38,27.83,27.83,0,0,0-4.91,6.87,13.83,13.83,0,0,0-1.49,5.54,7,7,0,0,0,.62,3.44l.75,1.27c.37.63,1.3.54,2.78-.27s3.41-1.92,5.79-3.32L254.28,738c2.37-1.4,4.28-2.55,5.71-3.45S262,732.91,261.58,732.28Z"/><path class="cls-1" d="M232.35,716.65q-8.43,3.72-15,1.56T207.2,708.13a21.53,21.53,0,0,1-1.52-5.09,14.47,14.47,0,0,1,0-5.13,11.18,11.18,0,0,1,2.08-4.58,11.34,11.34,0,0,1,4.58-3.42,8.73,8.73,0,0,1,4.69-.88,7.67,7.67,0,0,1,3.66,1.54,12.5,12.5,0,0,1,2.87,3.22,31.58,31.58,0,0,1,2.25,4.25l3.3,7.49a37.07,37.07,0,0,0,6.82-3.77,20.9,20.9,0,0,0,4.08-3.71,8.77,8.77,0,0,0,1.75-3.29,3.9,3.9,0,0,0-.06-2.45,4.39,4.39,0,0,0-1.55-1.87,8.43,8.43,0,0,0-2.39-1.16,12.36,12.36,0,0,0-2.88-.56,18.28,18.28,0,0,0-2.95,0,3.44,3.44,0,0,1-2.27-.49,3.52,3.52,0,0,1-1.24-1.46,3.36,3.36,0,0,1,0-2.69,2.64,2.64,0,0,1,2.37-1.59,9.63,9.63,0,0,1,3.09.25,13.7,13.7,0,0,1,3.67,1.46,16.91,16.91,0,0,1,3.62,2.79,14.19,14.19,0,0,1,2.88,4.32,18,18,0,0,1,1.67,8,16.83,16.83,0,0,1-1.85,7.12,20.15,20.15,0,0,1-4.67,5.94A26,26,0,0,1,232.35,716.65Zm-5.58-10.15-2-4.57a3.73,3.73,0,0,0-1.48-1.82,4.37,4.37,0,0,0-2-.6,7.25,7.25,0,0,0-2.28.23,15.81,15.81,0,0,0-2.26.78,32.06,32.06,0,0,0-2.93,1.47,16,16,0,0,0-2.5,1.69,7.48,7.48,0,0,0-1.57,1.76,1.73,1.73,0,0,0-.16,1.65,2.94,2.94,0,0,0,1.69,1.34,10,10,0,0,0,3.59.59,26.31,26.31,0,0,0,5.23-.51A37,37,0,0,0,226.77,706.5Z"/><path class="cls-1" d="M223.94,677.15a3.46,3.46,0,0,1,.07-2.48,6.86,6.86,0,0,1,1.42-2.09,20.43,20.43,0,0,1,2.13-1.91,22.74,22.74,0,0,0,2.13-1.92,7.52,7.52,0,0,0,1.43-2,3.29,3.29,0,0,0,.07-2.44,3.83,3.83,0,0,0-1.09-1.74,5.08,5.08,0,0,0-1.69-1.06,6,6,0,0,0-2-.38,6.22,6.22,0,0,0-2,.29,5.63,5.63,0,0,0-3.16,2.53,19.07,19.07,0,0,0-1.94,4.43q-.78,2.53-1.43,5.37a52.64,52.64,0,0,1-1.54,5.41,17.21,17.21,0,0,1-2.35,4.56,7.57,7.57,0,0,1-3.9,2.77,8.24,8.24,0,0,1-5.39,0,13,13,0,0,1-4.47-2.7,18,18,0,0,1-3.35-4.17,22.47,22.47,0,0,1-2-4.43,25.19,25.19,0,0,1-1.22-6.08,16.17,16.17,0,0,1,.43-5.05,9.63,9.63,0,0,1,1.87-3.76,6.7,6.7,0,0,1,3.13-2.11,4.22,4.22,0,0,1,3.09.32,4.54,4.54,0,0,1,2.38,2.93,3.46,3.46,0,0,1-.07,2.48A6.86,6.86,0,0,1,203,666a21.63,21.63,0,0,1-2.13,1.91,24.19,24.19,0,0,0-2.13,1.91,7.57,7.57,0,0,0-1.43,2.06,3.29,3.29,0,0,0-.07,2.44,3.89,3.89,0,0,0,1.09,1.74,5.18,5.18,0,0,0,1.69,1.06,6.25,6.25,0,0,0,4,.09,5.78,5.78,0,0,0,3.2-2.54,19,19,0,0,0,2-4.49c.54-1.73,1-3.56,1.48-5.47a48.57,48.57,0,0,1,1.63-5.52,18.23,18.23,0,0,1,2.41-4.63,7.51,7.51,0,0,1,3.9-2.76,7.79,7.79,0,0,1,5.33,0,12.41,12.41,0,0,1,4.34,2.82,18.79,18.79,0,0,1,3.26,4.28,24.74,24.74,0,0,1,2,4.48,25.11,25.11,0,0,1,1.2,6,16.11,16.11,0,0,1-.41,5.09,9.59,9.59,0,0,1-1.87,3.75,6.62,6.62,0,0,1-3.13,2.11,4.17,4.17,0,0,1-3.09-.32A4.5,4.5,0,0,1,223.94,677.15Z"/><path class="cls-1" d="M169.42,653.73a6.65,6.65,0,0,1,.89-5.34,7.34,7.34,0,0,1,7.29-3.26,7.57,7.57,0,0,1,2.54.92,6.76,6.76,0,0,1,2,1.81,7.1,7.1,0,0,1,1.17,2.57A7.07,7.07,0,0,1,178,659a7,7,0,0,1-5.37-.85,7.75,7.75,0,0,1-2-1.84A6.66,6.66,0,0,1,169.42,653.73Zm25.79-.76-5.38-4.09a8.8,8.8,0,0,1-1.32-1.17,3.29,3.29,0,0,1-.84-1.52,1.78,1.78,0,0,1,.42-1.59,5.08,5.08,0,0,1,2.68-1.23l22.92-5.45a19.31,19.31,0,0,0,3.82-1.27,21.65,21.65,0,0,0,2.45-1.34,18.89,18.89,0,0,0,1.61-1.15,3.44,3.44,0,0,1,1.32-.67,1.58,1.58,0,0,1,.89,0,1.93,1.93,0,0,1,.8.49,2.44,2.44,0,0,1,.56,1.19l2.4,10.09a2.38,2.38,0,0,1,0,1.12,2,2,0,0,1-.36.84,1.47,1.47,0,0,1-.91.58,3.22,3.22,0,0,1-1.48,0c-.54-.11-1.19-.21-2-.29a21.27,21.27,0,0,0-2.79-.1,19.41,19.41,0,0,0-4,.58l-14.64,3.48a6.92,6.92,0,0,1-2.68,2.73C197.91,654.58,196.73,654.16,195.21,653Z"/><path class="cls-1" d="M231.46,628.59a3.75,3.75,0,0,1,.32-2.37,7.12,7.12,0,0,1,1.43-1.82c.6-.57,1.24-1.12,1.93-1.66a13.82,13.82,0,0,0,1.89-1.86,7,7,0,0,0,1.33-2.48,7.91,7.91,0,0,0,.16-3.53,13.71,13.71,0,0,0-1.65-5.12,10.1,10.1,0,0,0-2.78-3.06,8,8,0,0,0-3.36-1.4,10.76,10.76,0,0,0-3.39-.06,6,6,0,0,0-3.58,1.71,8.47,8.47,0,0,0-2,3.6,21.34,21.34,0,0,0-.78,5.2q-.12,3,0,6.5.19,4-1.62,5.64a4.46,4.46,0,0,1-4.44.92c-1.2-.35-2.15-.64-2.84-.88a14.31,14.31,0,0,0-1.45-.46,13.1,13.1,0,0,1-3.83,5.09,14.43,14.43,0,0,1-7.23,2.83,15.09,15.09,0,0,1-7.16-.45,13.63,13.63,0,0,1-5.06-3.09,15.54,15.54,0,0,1-3.29-4.68,24.78,24.78,0,0,1-1.75-5.26c-.33-.06-1.07-.18-2.22-.35a12.72,12.72,0,0,1-3.68-1.2,11.83,11.83,0,0,1-3.65-2.81,9.48,9.48,0,0,1-2.16-5.13,15.53,15.53,0,0,1-.08-3.45,13,13,0,0,1,.85-3.67,9.15,9.15,0,0,1,1.92-3,5.28,5.28,0,0,1,3.16-1.57,4.21,4.21,0,0,1,3,.82,4.51,4.51,0,0,1,1.85,3.28,3.72,3.72,0,0,1-.29,2.33,4.41,4.41,0,0,1-1.34,1.57,9.82,9.82,0,0,1-1.85,1.1c-.67.31-1.29.64-1.87,1a5.06,5.06,0,0,0-1.4,1.2,2.16,2.16,0,0,0-.38,1.74,5.09,5.09,0,0,0,1.33,2.88,7.34,7.34,0,0,0,2.33,1.67,11.92,11.92,0,0,0,2.41.8,9.65,9.65,0,0,0,1.61.23,26.88,26.88,0,0,1,0-5.75,17,17,0,0,1,1.65-5.76,13.68,13.68,0,0,1,3.95-4.75,14.75,14.75,0,0,1,7-2.68,14.53,14.53,0,0,1,7.62.62,13,13,0,0,1,5.15,3.66A17.43,17.43,0,0,1,210.3,610a27.79,27.79,0,0,1,1.75,10.11,22.28,22.28,0,0,1-.54,4.69c.5.13,1,.27,1.64.39s1.16.22,1.7.3.64-.28.65-1a22.07,22.07,0,0,0-.29-3c-.13-.88-.28-1.83-.46-2.85s-.35-2.16-.53-3.39a34.28,34.28,0,0,1-.26-10.13,17.73,17.73,0,0,1,2.14-6.39,9.25,9.25,0,0,1,3.52-3.47,12.71,12.71,0,0,1,3.94-1.32,10.38,10.38,0,0,1,5.6.56,13.4,13.4,0,0,1,4.32,2.88,18,18,0,0,1,3.23,4.29,35.92,35.92,0,0,1,2.25,4.88,38.31,38.31,0,0,1,1.42,4.56c.34,1.42.57,2.55.69,3.37q1.22,8.34.2,13t-5,5.21a4.2,4.2,0,0,1-3-.82A4.52,4.52,0,0,1,231.46,628.59ZM197.92,624a25.94,25.94,0,0,0,6.24-1.54,11.47,11.47,0,0,0,3.48-2.08,4.67,4.67,0,0,0,1.44-2.26,5.07,5.07,0,0,0-.58-4,4.7,4.7,0,0,0-2-1.75,11.66,11.66,0,0,0-3.93-1,26.5,26.5,0,0,0-6.42.3,27.16,27.16,0,0,0-6.28,1.55,12.62,12.62,0,0,0-3.59,2.1,4.78,4.78,0,0,0-1.56,2.28,5.06,5.06,0,0,0-.17,2.07,5.18,5.18,0,0,0,.75,1.94,4.85,4.85,0,0,0,2.15,1.74,12.5,12.5,0,0,0,4,1A26.36,26.36,0,0,0,197.92,624Z"/><path class="cls-1" d="M184.81,592.33l-4.4-5.13a5.22,5.22,0,0,1-.85-1.3,3.7,3.7,0,0,1-.39-1.55,2.12,2.12,0,0,1,.66-1.62,4,4,0,0,1,2.64-.72l1.64,0a20.18,20.18,0,0,1-4.24-4.39,10.08,10.08,0,0,1-1.77-5.69,10.41,10.41,0,0,1,2.23-6.76,10.72,10.72,0,0,1,6.65-3.9c.63-.12,1.59-.25,2.88-.38l4.32-.41,5-.43,4.9-.38c1.54-.12,2.91-.24,4.13-.37a23.82,23.82,0,0,0,2.6-.38,3.39,3.39,0,0,0,1.43-.61l1.12-.85a11.92,11.92,0,0,1,1.07-.73,2.69,2.69,0,0,1,1.32-.34,1.54,1.54,0,0,1,1.34.63,2.79,2.79,0,0,1,.51,1.59l.22,9.83a2.27,2.27,0,0,1-.89,1.81,4.65,4.65,0,0,1-3.11.78,81.78,81.78,0,0,1-8.2-.67,101.63,101.63,0,0,0-11.25-.68h-5a16.13,16.13,0,0,0-3.77.4,5,5,0,0,0-2.43,1.26,3.27,3.27,0,0,0-.84,2.52,6.88,6.88,0,0,0,1.81,4,19.19,19.19,0,0,0,4.54,4l17.62-.4a19.26,19.26,0,0,0,4-.45,22,22,0,0,0,2.67-.8c.73-.28,1.33-.54,1.82-.78a3.27,3.27,0,0,1,1.43-.39,1.76,1.76,0,0,1,.87.22,2,2,0,0,1,.67.65,2.45,2.45,0,0,1,.31,1.28l.24,10.37c0,1.45-.55,2.19-1.75,2.22a3.26,3.26,0,0,1-1.45-.32c-.5-.22-1.11-.45-1.85-.69a20.85,20.85,0,0,0-2.71-.68,18.9,18.9,0,0,0-4-.26l-15.36.35a4.64,4.64,0,0,0-2.14.48,15.51,15.51,0,0,1-1.46.74,1.91,1.91,0,0,1-1.25.14A3.79,3.79,0,0,1,184.81,592.33Z"/><path class="cls-1" d="M198.5,513.22l5,.67L201,533l-5-.67Z"/><path class="cls-1" d="M223.93,495.17a3.26,3.26,0,0,1-1.28-.75c-.41-.36-.92-.77-1.55-1.23a22.15,22.15,0,0,0-2.36-1.48,19.31,19.31,0,0,0-3.75-1.49l-29.75-8.88a19.1,19.1,0,0,0-4-.81,22.8,22.8,0,0,0-2.79-.06,18.05,18.05,0,0,0-2,.19,3.45,3.45,0,0,1-1.48-.08c-1.15-.34-1.51-1.21-1.09-2.61l3-9.94a2.31,2.31,0,0,1,.4-.78,6.31,6.31,0,0,1,.55-.6,1.1,1.1,0,0,1,.78-.3,12,12,0,0,1,0-6.91,12.25,12.25,0,0,1,3.22-5.31,16.31,16.31,0,0,1,5.44-3.5,20.61,20.61,0,0,1,6.89-1.41,23.65,23.65,0,0,1,7.63,1,23.27,23.27,0,0,1,6.87,3.31,20.41,20.41,0,0,1,5,4.95,16.25,16.25,0,0,1,2.63,5.92,12.18,12.18,0,0,1-.22,6.2,12.88,12.88,0,0,1-5.79,7.39l7.63,2.27a19.1,19.1,0,0,0,3.95.81,19.34,19.34,0,0,0,2.79.06c.77,0,1.42-.1,2-.18a3.33,3.33,0,0,1,1.49.08c1.14.34,1.51,1.21,1.09,2.6l-3,9.94a2.37,2.37,0,0,1-.53,1,2.07,2.07,0,0,1-.74.56A1.5,1.5,0,0,1,223.93,495.17ZM188.21,471.4l18.31,5.47A9.49,9.49,0,0,0,209.4,475a6,6,0,0,0,1.64-2.64,4.63,4.63,0,0,0-.35-3.73,10.23,10.23,0,0,0-2.81-3.12,21,21,0,0,0-4.35-2.48,45.51,45.51,0,0,0-10.13-3,20.53,20.53,0,0,0-5-.32,10.12,10.12,0,0,0-4.06,1.06,4.64,4.64,0,0,0-2.34,2.93,5.61,5.61,0,0,0-.2,3.11,4.7,4.7,0,0,0,1.31,2.15,7.64,7.64,0,0,0,2.3,1.45A26.81,26.81,0,0,0,188.21,471.4Z"/><path class="cls-1" d="M206.58,444.46,204.7,438a5.68,5.68,0,0,1-.22-1.55,3.69,3.69,0,0,1,.29-1.57,2.12,2.12,0,0,1,1.28-1.19,4,4,0,0,1,2.7.44l.35.15a18,18,0,0,1-1.26-5.34,11.32,11.32,0,0,1,1-5.4,14.61,14.61,0,0,1,2-3.3,14.19,14.19,0,0,1,2.95-2.8,9.32,9.32,0,0,1,3.51-1.55,6,6,0,0,1,3.66.38,4.22,4.22,0,0,1,2.12,2.28,4.52,4.52,0,0,1-.13,3.76,4.08,4.08,0,0,1-2.47,2.46,13.06,13.06,0,0,1-3.37.64c-1.16.06-2.22.13-3.18.2a2.12,2.12,0,0,0-2,1.31,7.47,7.47,0,0,0-.3,3.95,21.16,21.16,0,0,0,1.49,5.14l17.55,7.55a19.31,19.31,0,0,0,3.83,1.27,23.87,23.87,0,0,0,2.76.38c.78.05,1.43.06,2,0a3.37,3.37,0,0,1,1.46.25,1.61,1.61,0,0,1,.7.56,2,2,0,0,1,.35.87,2.45,2.45,0,0,1-.26,1.29l-4.1,9.53c-.58,1.33-1.41,1.77-2.51,1.29a3.29,3.29,0,0,1-1.19-.89,18,18,0,0,0-1.39-1.4,21.42,21.42,0,0,0-2.18-1.75,19.52,19.52,0,0,0-3.55-1.91L212.46,447a4.6,4.6,0,0,0-2.14-.45c-.62,0-1.17.06-1.64.06a2,2,0,0,1-1.2-.39A3.85,3.85,0,0,1,206.58,444.46Z"/><path class="cls-1" d="M202.59,393.73a6.64,6.64,0,0,1,4.2-3.42,7.05,7.05,0,0,1,5.43.58,7.23,7.23,0,0,1,2.19,1.78,7.45,7.45,0,0,1,1.3,2.37,6.36,6.36,0,0,1,.3,2.68,7,7,0,0,1-.81,2.7,7,7,0,0,1-9.6,2.94,7,7,0,0,1-2.19-1.78,6.8,6.8,0,0,1-1.28-2.4,7.59,7.59,0,0,1-.32-2.73A6.68,6.68,0,0,1,202.59,393.73Zm19.87,16.47-1.34-6.63a9.4,9.4,0,0,1-.22-1.75,3.33,3.33,0,0,1,.38-1.7,1.72,1.72,0,0,1,1.36-.91,5.08,5.08,0,0,1,2.82.84l20.81,11.05a19.23,19.23,0,0,0,3.71,1.57,21.1,21.1,0,0,0,2.72.61,19.56,19.56,0,0,0,2,.2,3.4,3.4,0,0,1,1.44.37,1.66,1.66,0,0,1,.65.61,1.9,1.9,0,0,1,.27.9,2.35,2.35,0,0,1-.36,1.26l-4.87,9.16a2.36,2.36,0,0,1-.71.86,2.12,2.12,0,0,1-.84.4,1.47,1.47,0,0,1-1.06-.17,3.3,3.3,0,0,1-1.1-1c-.33-.43-.75-.94-1.28-1.51a22.94,22.94,0,0,0-2-1.92,20,20,0,0,0-3.39-2.19l-13.29-7.06a6.88,6.88,0,0,1-3.81.27C223.42,413.18,222.81,412.09,222.46,410.2Z"/><path class="cls-1" d="M230.93,393.32l-.75-6.72a5.49,5.49,0,0,1,0-1.56,3.77,3.77,0,0,1,.56-1.5,2.13,2.13,0,0,1,1.46-1,4,4,0,0,1,2.58.89l1.38.89a20.13,20.13,0,0,1-1-6,10.1,10.1,0,0,1,1.74-5.7,10.48,10.48,0,0,1,5.65-4.34,10.72,10.72,0,0,1,7.7.54c.58.25,1.44.69,2.59,1.3s2.41,1.32,3.8,2.1L261,374.7l4.27,2.45c1.33.77,2.54,1.44,3.62,2a24.67,24.67,0,0,0,2.36,1.16,3.5,3.5,0,0,0,1.53.3l1.39-.08c.45,0,.88,0,1.3,0a2.59,2.59,0,0,1,1.28.46,1.53,1.53,0,0,1,.75,1.28,2.61,2.61,0,0,1-.47,1.59l-5.35,8.25a2.27,2.27,0,0,1-1.76,1,4.58,4.58,0,0,1-3-1.11,80.51,80.51,0,0,1-6.41-5.17,101.43,101.43,0,0,0-8.91-6.9c-1.5-1-2.86-2-4.09-2.8a16.56,16.56,0,0,0-3.34-1.79,5.14,5.14,0,0,0-2.72-.33,3.32,3.32,0,0,0-2.12,1.61,6.93,6.93,0,0,0-.78,4.37,19.13,19.13,0,0,0,1.5,5.85l14.78,9.6a18.79,18.79,0,0,0,3.57,1.89,19.61,19.61,0,0,0,2.66.84,19.15,19.15,0,0,0,1.94.38,3.38,3.38,0,0,1,1.4.49,1.63,1.63,0,0,1,.59.66,2.14,2.14,0,0,1,.2.92,2.44,2.44,0,0,1-.48,1.23l-5.64,8.7c-.79,1.22-1.69,1.51-2.7.86a3.54,3.54,0,0,1-1-1.08,17.06,17.06,0,0,0-1.13-1.62,24.69,24.69,0,0,0-1.85-2.09,19.94,19.94,0,0,0-3.18-2.48L236.3,396.8a4.67,4.67,0,0,0-2-.81c-.61-.06-1.15-.13-1.62-.22a1.87,1.87,0,0,1-1.11-.58A3.75,3.75,0,0,1,230.93,393.32Z"/><path class="cls-1" d="M247.58,358.42l3.41-4.26-2.93-2.34a6.78,6.78,0,0,1-3.79-.44c-.81-.44-1.21-1.63-1.2-3.55l-.09-6.76a5.43,5.43,0,0,1,.19-1.55,3.72,3.72,0,0,1,.7-1.44,2.09,2.09,0,0,1,1.54-.81,3.94,3.94,0,0,1,2.49,1.14l9.57,7.64,3.41-4.26a1.2,1.2,0,0,1,.93-.55,1.42,1.42,0,0,1,.9.32,1.39,1.39,0,0,1,.5.8,1.21,1.21,0,0,1-.32,1l-3.41,4.26L274.89,360c.65.52,1.59,1.26,2.83,2.21s2.5,1.85,3.8,2.69a25.15,25.15,0,0,0,3.57,2c1.09.47,1.81.48,2.17,0,.65-.81.56-1.72-.28-2.72a43.15,43.15,0,0,0-3.23-3.38,3.24,3.24,0,0,1-1.12-2.34,3.35,3.35,0,0,1,.73-2.17A3.44,3.44,0,0,1,285.6,355a3.2,3.2,0,0,1,2.73,1,7.69,7.69,0,0,1,1.64,2.31,10.22,10.22,0,0,1,.93,3.34,10.86,10.86,0,0,1-.38,4,12.49,12.49,0,0,1-2.39,4.43,12.13,12.13,0,0,1-3.72,3.27,8.52,8.52,0,0,1-7.31.4,21.85,21.85,0,0,1-3.35-1.68A24.67,24.67,0,0,1,270.8,370c-.9-.75-1.69-1.4-2.38-2L253,355.77,249.59,360a1.2,1.2,0,0,1-.94.55,1.39,1.39,0,0,1-.89-.32,1.41,1.41,0,0,1-.51-.8A1.26,1.26,0,0,1,247.58,358.42Z"/><path class="cls-1" d="M307.25,345.49a3.25,3.25,0,0,1-.7-1.3c-.16-.53-.38-1.15-.67-1.87a23.76,23.76,0,0,0-1.24-2.49,19.67,19.67,0,0,0-2.42-3.23l-20.7-23.14a19.83,19.83,0,0,0-2.94-2.76,24.56,24.56,0,0,0-2.35-1.51c-.68-.36-1.27-.66-1.77-.87a3.27,3.27,0,0,1-1.23-.84c-.79-.89-.65-1.82.43-2.79l7.73-6.92a2.38,2.38,0,0,1,.75-.46,7.67,7.67,0,0,1,.78-.23,1.08,1.08,0,0,1,.82.16,12.27,12.27,0,0,1,9.16-8.72,16.53,16.53,0,0,1,6.47-.14,20.6,20.6,0,0,1,6.61,2.41,23.71,23.71,0,0,1,6,4.86,23.31,23.31,0,0,1,4.12,6.42,20.61,20.61,0,0,1,1.66,6.83,16.57,16.57,0,0,1-.85,6.42,12.14,12.14,0,0,1-3.44,5.16,12.89,12.89,0,0,1-8.8,3.27l5.31,5.93a19.83,19.83,0,0,0,2.94,2.76,22.74,22.74,0,0,0,2.35,1.51q1,.56,1.77.87a3.35,3.35,0,0,1,1.22.84c.8.9.66,1.83-.43,2.8l-7.73,6.91a2.36,2.36,0,0,1-1,.56,2,2,0,0,1-.91.09A1.49,1.49,0,0,1,307.25,345.49Zm-18-38.94L302,320.79a9.57,9.57,0,0,0,3.43-.09,6,6,0,0,0,2.79-1.39,4.69,4.69,0,0,0,1.65-3.36,10.34,10.34,0,0,0-.77-4.13,20.62,20.62,0,0,0-2.41-4.39,45.41,45.41,0,0,0-3.28-4.13,46.06,46.06,0,0,0-3.77-3.75,20.57,20.57,0,0,0-4.12-2.9,10.14,10.14,0,0,0-4-1.22A4.63,4.63,0,0,0,288,296.7a5.58,5.58,0,0,0-1.8,2.55,4.65,4.65,0,0,0,0,2.51,7.66,7.66,0,0,0,1.19,2.44A28.19,28.19,0,0,0,289.25,306.55Z"/><path class="cls-1" d="M319,293.22l1.79-6.52a5.31,5.31,0,0,1,.61-1.44,3.7,3.7,0,0,1,1.07-1.18,2.11,2.11,0,0,1,1.71-.35,3.94,3.94,0,0,1,2.07,1.78l.23.32a18,18,0,0,1,1.71-5.22,11.33,11.33,0,0,1,3.64-4.1,14.6,14.6,0,0,1,3.44-1.76,14.33,14.33,0,0,1,4-.86,9.45,9.45,0,0,1,3.8.52,6,6,0,0,1,2.92,2.23,4.23,4.23,0,0,1,.62,3.05,4.55,4.55,0,0,1-2.08,3.14,4.11,4.11,0,0,1-3.39.82,13,13,0,0,1-3.2-1.23l-2.82-1.49a2.14,2.14,0,0,0-2.37.1,7.4,7.4,0,0,0-2.31,3.21A20.44,20.44,0,0,0,329,289.4L340,305a19.12,19.12,0,0,0,2.6,3.08,21.89,21.89,0,0,0,2.16,1.77c.63.45,1.19.8,1.66,1.07a3.37,3.37,0,0,1,1.12,1,1.69,1.69,0,0,1,.31.83,2.06,2.06,0,0,1-.16.93,2.46,2.46,0,0,1-.9,1l-8.47,6c-1.19.84-2.13.77-2.82-.2A3.37,3.37,0,0,1,335,319c-.1-.53-.25-1.17-.46-1.92a22.21,22.21,0,0,0-.94-2.63,20,20,0,0,0-2-3.48l-8.86-12.55a4.61,4.61,0,0,0-1.59-1.5,15.87,15.87,0,0,1-1.43-.81,1.91,1.91,0,0,1-.82-.95A3.71,3.71,0,0,1,319,293.22Z"/><path class="cls-1" d="M362,258.07a20.32,20.32,0,0,1,7.68-2.55,15.48,15.48,0,0,1,7,.87,18.19,18.19,0,0,1,6.17,3.91,26.14,26.14,0,0,1,5,6.72,26.66,26.66,0,0,1,2.9,7.83,18.16,18.16,0,0,1,0,7.35,15.45,15.45,0,0,1-3.09,6.39,20.19,20.19,0,0,1-6.29,5.08,20.5,20.5,0,0,1-7.68,2.55,15.43,15.43,0,0,1-7-.87,18.12,18.12,0,0,1-6.2-4,29.06,29.06,0,0,1-7.94-14.55,18.32,18.32,0,0,1,.05-7.31,15.43,15.43,0,0,1,3.09-6.4A20.42,20.42,0,0,1,362,258.07Zm3.55,21.16a44.21,44.21,0,0,0,4.32,6.62,23.6,23.6,0,0,0,4.09,4.07,9.1,9.1,0,0,0,3.54,1.76,3.47,3.47,0,0,0,4.38-2.39,9.23,9.23,0,0,0,.44-3.92,23.69,23.69,0,0,0-1.22-5.65,50.11,50.11,0,0,0-7.56-13.86,23.75,23.75,0,0,0-4.07-4.05,9.39,9.39,0,0,0-3.54-1.76,3.9,3.9,0,0,0-2.69.28,3.82,3.82,0,0,0-1.69,2.12,9.39,9.39,0,0,0-.44,3.92,24.07,24.07,0,0,0,1.2,5.61A42.93,42.93,0,0,0,365.53,279.23Z"/><path class="cls-1" d="M397.61,241.14a11.39,11.39,0,0,1,4.71-.83,15.24,15.24,0,0,1,4.76,1l-3.89-9.78a6.89,6.89,0,0,1-3.08-2.26c-.48-.78-.24-2,.72-3.68l3.27-5.92a5.64,5.64,0,0,1,.92-1.25,3.79,3.79,0,0,1,1.32-.9,2.14,2.14,0,0,1,1.75.06,3.94,3.94,0,0,1,1.6,2.22l16,40.29a18.71,18.71,0,0,0,1.81,3.6,21.75,21.75,0,0,0,1.68,2.23,19.72,19.72,0,0,0,1.37,1.43,3.34,3.34,0,0,1,.86,1.21c.44,1.11,0,1.94-1.37,2.48L422.68,274c-1,.4-1.73.43-2.14.09a4.73,4.73,0,0,1-1.2-1.95,14.36,14.36,0,0,1-2.75,4.07,11.29,11.29,0,0,1-4,2.63,11.6,11.6,0,0,1-6.21.67,17.16,17.16,0,0,1-6.22-2.35,22.31,22.31,0,0,1-5.47-4.79,24.47,24.47,0,0,1-4-6.73,24.16,24.16,0,0,1-1.7-7.55,22.29,22.29,0,0,1,.68-7.24,16.66,16.66,0,0,1,2.93-6A11.66,11.66,0,0,1,397.61,241.14Zm3.77,20.24a49.81,49.81,0,0,0,2.3,4.92,22.55,22.55,0,0,0,3,4.4,11.1,11.1,0,0,0,3.45,2.78,4.45,4.45,0,0,0,3.79.13,5.6,5.6,0,0,0,2.46-1.94,9.67,9.67,0,0,0,1.52-3.25L408.55,245a10.18,10.18,0,0,0-3.3-1.24,5.68,5.68,0,0,0-3.13.27,4.47,4.47,0,0,0-2.66,2.7,11.54,11.54,0,0,0-.62,4.36,22.52,22.52,0,0,0,.84,5.16A49.54,49.54,0,0,0,401.38,261.38Z"/><path class="cls-1" d="M426.3,237.2l3.95-5.48a5.24,5.24,0,0,1,1-1.25,3.51,3.51,0,0,1,1.41-.77,2.1,2.1,0,0,1,1.74.3,4.32,4.32,0,0,1,1.35,2.51l6.61,25c.2.75.41,1.48.62,2.17a7.65,7.65,0,0,0,.81,1.85,3.19,3.19,0,0,0,1.2,1.17,2.26,2.26,0,0,0,1.68.12,6.89,6.89,0,0,0,3.52-2.71,19.33,19.33,0,0,0,2.82-5.35l-4.45-16.81a6.83,6.83,0,0,1-2.79-2.61c-.39-.84,0-2,1.15-3.57l4-5.49A11.42,11.42,0,0,1,452,225a3.16,3.16,0,0,1,1.4-.82,2,2,0,0,1,1.66.33,4.29,4.29,0,0,1,1.35,2.51L462.52,250a18.86,18.86,0,0,0,1.37,3.79,24.44,24.44,0,0,0,1.4,2.41,19.47,19.47,0,0,0,1.19,1.58,3.45,3.45,0,0,1,.71,1.31c.3,1.15-.25,1.92-1.65,2.29l-7.69,2c-1.16.31-1.91.22-2.25-.25a8.11,8.11,0,0,1-1-2.45l-.4-1.51a20.13,20.13,0,0,1-3.28,5.15,10.11,10.11,0,0,1-5.12,3.05,22.84,22.84,0,0,1-4.83.8,8.11,8.11,0,0,1-3.78-.7,7.06,7.06,0,0,1-2.83-2.47,14.69,14.69,0,0,1-1.94-4.57l-4.51-17a6.83,6.83,0,0,1-2.79-2.61C424.76,239.94,425.15,238.75,426.3,237.2Z"/><path class="cls-1" d="M480.94,218.66a18.24,18.24,0,0,1,4.44-.11,15.34,15.34,0,0,1,4.25,1,9.37,9.37,0,0,1,3.31,2.14,5.83,5.83,0,0,1,1.64,3.31,4.16,4.16,0,0,1-.81,3,4.56,4.56,0,0,1-3.27,1.87,3.5,3.5,0,0,1-2.39-.39,6.1,6.1,0,0,1-1.73-1.6,12.3,12.3,0,0,1-1.32-2.21c-.38-.81-.76-1.55-1.12-2.23a7.69,7.69,0,0,0-1.16-1.68,1.6,1.6,0,0,0-1.46-.54,3.57,3.57,0,0,0-2,1.36,10.54,10.54,0,0,0-1.79,3.58,25.12,25.12,0,0,0-1,5.75,36.47,36.47,0,0,0,.44,7.94,35.9,35.9,0,0,0,1.81,7.38,25.76,25.76,0,0,0,2.55,5.18,11,11,0,0,0,2.78,3,3.53,3.53,0,0,0,2.41.83,4,4,0,0,0,2-.94,6.7,6.7,0,0,0,1.49-1.88,13.7,13.7,0,0,0,1.05-2.48,13.18,13.18,0,0,0,.55-2.65,3.19,3.19,0,0,1,2.78-3,3.42,3.42,0,0,1,2.54.64,2.57,2.57,0,0,1,1.09,2.52,8.82,8.82,0,0,1-.79,2.64,13,13,0,0,1-2.08,3.19,14.37,14.37,0,0,1-3.44,2.84,12.74,12.74,0,0,1-4.84,1.67,19,19,0,0,1-8.1-.36A16.39,16.39,0,0,1,472.5,255a18.61,18.61,0,0,1-4.46-5.8,25.15,25.15,0,0,1-2.37-7.69,26.87,26.87,0,0,1,0-8.44,17.89,17.89,0,0,1,2.56-6.85,16.18,16.18,0,0,1,5.1-4.94A20,20,0,0,1,480.94,218.66Z"/><path class="cls-1" d="M499.79,217.07l5.45-.27-.19-3.74a6.84,6.84,0,0,1-2.18-3.13c-.21-.9.42-2,1.86-3.26l5-4.55a5.44,5.44,0,0,1,1.28-.88,3.84,3.84,0,0,1,1.54-.43,2.12,2.12,0,0,1,1.63.62,4,4,0,0,1,.8,2.62l.61,12.23,5.45-.27a1.23,1.23,0,0,1,1,.34,1.46,1.46,0,0,1,.35.88,1.34,1.34,0,0,1-.27.91,1.2,1.2,0,0,1-1,.44l-5.45.27,1,19.71c0,.83.11,2,.22,3.58s.27,3.1.5,4.62a27,27,0,0,0,.9,4q.55,1.69,1.41,1.65,1.56-.07,1.86-2a44,44,0,0,0,.39-4.66,3.28,3.28,0,0,1,1-2.4,3.38,3.38,0,0,1,4.53,0,3.18,3.18,0,0,1,1,2.72,7.49,7.49,0,0,1-.64,2.77,10,10,0,0,1-1.89,2.9,10.61,10.61,0,0,1-3.27,2.39,12.41,12.41,0,0,1-4.91,1.15,12.05,12.05,0,0,1-4.91-.62,9,9,0,0,1-3.23-2.1,8.75,8.75,0,0,1-1.91-3.11,22.17,22.17,0,0,1-1-3.62,25.61,25.61,0,0,1-.38-3.61c0-1.17-.07-2.2-.11-3.08l-1-19.71-5.46.27a1.23,1.23,0,0,1-1-.34,1.35,1.35,0,0,1-.35-.88,1.39,1.39,0,0,1,.26-.91A1.23,1.23,0,0,1,499.79,217.07Z"/><path class="cls-1" d="M533.37,221.72l5.32-4.17a9.16,9.16,0,0,1,1.47-1,3.34,3.34,0,0,1,1.68-.43,1.74,1.74,0,0,1,1.43.81,5.1,5.1,0,0,1,.52,2.9l-.54,23.55a19.74,19.74,0,0,0,.26,4,22.89,22.89,0,0,0,.68,2.7c.25.74.48,1.35.7,1.85a3.26,3.26,0,0,1,.32,1.45,1.57,1.57,0,0,1-.25.85,1.93,1.93,0,0,1-.68.65,2.4,2.4,0,0,1-1.29.25l-10.37-.24a2.34,2.34,0,0,1-1.09-.26,2,2,0,0,1-.73-.56,1.44,1.44,0,0,1-.33-1,3.31,3.31,0,0,1,.39-1.44c.24-.48.5-1.09.78-1.81a22.25,22.25,0,0,0,.8-2.68,18.57,18.57,0,0,0,.44-4l.34-15a7,7,0,0,1-2-3.29C531.14,223.92,531.83,222.88,533.37,221.72Zm5.8-25.15a6.7,6.7,0,0,1,4.94,2.22,7,7,0,0,1,1.91,5.12,6.83,6.83,0,0,1-.61,2.75,7.26,7.26,0,0,1-1.53,2.23,6.5,6.5,0,0,1-2.26,1.47,7.15,7.15,0,0,1-7.76-1.7,6.79,6.79,0,0,1-2-5.07,6.87,6.87,0,0,1,.61-2.76,7,7,0,0,1,1.57-2.23,7.62,7.62,0,0,1,2.3-1.5A6.63,6.63,0,0,1,539.17,196.57Z"/><path class="cls-1" d="M569.14,217.29a20.38,20.38,0,0,1,7.75,2.29,15.51,15.51,0,0,1,5.29,4.74,18.28,18.28,0,0,1,2.84,6.74,29,29,0,0,1-1.8,16.48,18.21,18.21,0,0,1-4.22,6,15.46,15.46,0,0,1-6.19,3.48A22.57,22.57,0,0,1,557,255.31a15.48,15.48,0,0,1-5.29-4.73,18.2,18.2,0,0,1-2.83-6.79,29,29,0,0,1,1.79-16.47,18.4,18.4,0,0,1,4.22-6,15.58,15.58,0,0,1,6.19-3.48A20.33,20.33,0,0,1,569.14,217.29ZM560,236.69a43.38,43.38,0,0,0-.23,7.9,23.23,23.23,0,0,0,1,5.68,9.12,9.12,0,0,0,1.9,3.46,3.47,3.47,0,0,0,5,.54,9.4,9.4,0,0,0,2.6-3,23.61,23.61,0,0,0,2.23-5.33,50.5,50.5,0,0,0,1.71-15.7,23.69,23.69,0,0,0-1-5.65,9.12,9.12,0,0,0-1.9-3.46,3.47,3.47,0,0,0-5-.54,9.4,9.4,0,0,0-2.6,3,23.57,23.57,0,0,0-2.22,5.29A43.7,43.7,0,0,0,560,236.69Z"/><path class="cls-1" d="M593.76,226.79l6.06-3a5.26,5.26,0,0,1,1.48-.5,3.74,3.74,0,0,1,1.6,0,2.14,2.14,0,0,1,1.4,1,4,4,0,0,1,0,2.74L604,228.7a20.47,20.47,0,0,1,5.31-3,10.17,10.17,0,0,1,6-.29,10.5,10.5,0,0,1,6,3.85,10.7,10.7,0,0,1,2.1,7.42c0,.63-.16,1.6-.35,2.88s-.42,2.72-.68,4.29-.54,3.21-.84,4.93-.58,3.34-.86,4.85-.5,2.87-.67,4.09a23.54,23.54,0,0,0-.29,2.61,3.19,3.19,0,0,0,.24,1.54l.53,1.29a12.85,12.85,0,0,1,.44,1.22,2.61,2.61,0,0,1,0,1.36,1.52,1.52,0,0,1-1,1.14,2.59,2.59,0,0,1-1.66.09l-9.57-2.24a2.26,2.26,0,0,1-1.53-1.32,4.61,4.61,0,0,1,0-3.2,82.3,82.3,0,0,1,2.71-7.78,101.06,101.06,0,0,0,3.47-10.72c.47-1.76.88-3.36,1.25-4.79a16.46,16.46,0,0,0,.56-3.76,5.12,5.12,0,0,0-.62-2.67,3.3,3.3,0,0,0-2.23-1.44,6.9,6.9,0,0,0-4.37.74,19.36,19.36,0,0,0-5,3.39l-4,17.17a18.64,18.64,0,0,0-.57,4,23.17,23.17,0,0,0,.1,2.79,19.64,19.64,0,0,0,.31,1.95,3.36,3.36,0,0,1,0,1.48,1.64,1.64,0,0,1-.42.79,2.08,2.08,0,0,1-.8.49,2.44,2.44,0,0,1-1.31,0l-10.11-2.36c-1.41-.34-2-1.08-1.71-2.25a3.25,3.25,0,0,1,.67-1.32q.51-.65,1.14-1.62a22.68,22.68,0,0,0,1.33-2.45,19.26,19.26,0,0,0,1.26-3.83l3.51-15a4.71,4.71,0,0,0,.07-2.19c-.16-.6-.27-1.13-.35-1.6a2,2,0,0,1,.17-1.24A3.75,3.75,0,0,1,593.76,226.79Z"/></g></g></svg>